<svg id="Calque_1" data-name="Calque 1" xmlns="http://www.w3.org/2000/svg" viewBox="0 0 592.58 322.9"><title>avatar_con_v1</title><path d="M658.63,650.42s-77.46-52.33-202.81-55c-1.09,10.45-2.14,17.54-2.14,17.54s115.22-9,194.78,67A239.22,239.22,0,0,0,658.63,650.42Z" transform="translate(-205.31 -357)"/><circle cx="169.76" cy="108.74" r="41.78"/><circle cx="411.54" cy="108.74" r="41.78"/><path d="M797.89,419.22c-4.74-20.74-7.11-35-7.11-35s-307,77.63-579.53-27.26c-6.55,36.15-5.92,62.22-5.92,62.22s98.54,23.88,256.94,26.61c-4.17,28.16-20.59,89.54-84.53,89.54-87.14,0-77.71-88.62-77.71-88.62H277s2.23,104,103.62,104c64.14,0,92.46-47.54,104.61-82.47,10.1,35.27,38.54,86.91,118.44,86.91,101.71,0,128.15-95.55,134-126.46Q767.27,424.59,797.89,419.22Zm-192,118.22c-84.13,0-96.73-65.93-98.46-91.43A1766.52,1766.52,0,0,0,717,431.55C711.5,461.82,689.3,537.44,605.89,537.44Z" transform="translate(-205.31 -357)"/></svg>