<?xml version="1.0" standalone="no"?>
<!DOCTYPE svg PUBLIC "-//W3C//DTD SVG 20010904//EN"
 "http://www.w3.org/TR/2001/REC-SVG-20010904/DTD/svg10.dtd">
<svg version="1.0" xmlns="http://www.w3.org/2000/svg"
 width="1350.000000pt" height="759.000000pt" viewBox="0 0 1350.000000 759.000000"
 preserveAspectRatio="xMidYMid meet">
<metadata>
Created by potrace 1.10, written by Peter Selinger 2001-2011
</metadata>
<g transform="translate(0.000000,759.000000) scale(0.100000,-0.100000)"
fill="#000000" stroke="none">
<path d="M6718 7372 c-2 -20 -10 -28 -33 -32 -16 -4 -40 -12 -53 -19 -13 -7
-30 -10 -38 -7 -21 8 -17 36 6 36 11 0 20 5 20 10 0 13 -27 13 -36 -1 -14 -24
-101 -51 -173 -54 -60 -3 -76 -7 -88 -24 -16 -24 -58 -28 -67 -6 -8 23 -32 18
-50 -10 -19 -29 -42 -32 -67 -9 -13 12 -22 13 -36 5 -10 -6 -40 -14 -68 -19
-45 -7 -50 -10 -53 -36 -3 -26 -5 -26 -17 -10 -12 17 -17 17 -111 -8 -117 -30
-190 -57 -224 -81 -13 -9 -32 -17 -41 -17 -23 0 -41 -24 -33 -45 8 -19 -10
-35 -42 -35 -21 0 -134 -99 -134 -118 0 -5 -12 -12 -27 -15 -17 -4 -35 -18
-44 -35 -13 -24 -26 -31 -63 -36 -25 -4 -46 -9 -46 -12 0 -3 12 -16 26 -29 31
-29 59 -32 72 -9 6 10 28 18 58 21 57 7 109 45 77 57 -15 6 -13 10 12 31 15
14 31 25 34 25 4 0 21 13 39 30 18 16 53 41 77 56 25 14 45 30 45 35 0 5 5 9
12 9 6 0 32 10 56 21 24 12 72 28 106 35 33 7 79 17 101 23 22 6 59 11 83 11
23 0 50 4 60 9 22 12 107 37 156 46 21 3 46 10 55 15 15 8 81 20 235 41 38 5
77 14 87 19 22 12 66 13 73 1 3 -4 87 -10 187 -13 145 -4 189 -3 217 9 19 8
44 13 56 12 54 -4 86 2 86 15 0 8 -11 17 -24 20 -17 4 -26 14 -28 33 -4 32
-24 41 -31 14 -4 -18 -9 -20 -39 -10 -18 6 -46 17 -61 26 -15 8 -51 16 -80 18
-29 1 -56 4 -62 5 -13 3 -77 -12 -72 -17 3 -2 42 -5 87 -7 64 -2 84 -6 92 -19
5 -9 18 -17 28 -17 11 0 20 -4 20 -9 0 -15 -18 -23 -31 -15 -13 8 -73 7 -206
-2 -69 -5 -93 -10 -93 -20 0 -9 -11 -14 -27 -14 l-28 1 28 22 c15 13 27 28 27
35 0 8 17 12 48 12 l47 0 -25 20 c-20 15 -23 21 -12 31 19 20 15 26 -17 27
-25 0 -30 -4 -33 -26z"/>
<path d="M7200 7329 c0 -5 5 -9 10 -9 6 0 10 -6 10 -14 0 -20 23 -26 106 -26
59 0 74 3 74 15 0 10 -10 15 -27 15 -16 0 -44 4 -63 9 -60 15 -110 20 -110 10z"/>
<path d="M7709 7250 l-24 -19 47 -1 c54 0 68 12 32 29 -31 14 -28 15 -55 -9z"/>
<path d="M7295 7240 c-4 -6 7 -13 24 -16 46 -10 40 -34 -9 -34 -22 0 -40 -4
-40 -9 0 -18 39 -22 80 -10 31 9 43 10 52 1 15 -15 63 -15 87 -1 15 10 26 6
66 -22 26 -19 55 -38 63 -44 9 -5 22 -16 30 -23 16 -14 34 -12 40 6 2 7 -5 12
-17 12 -28 0 -37 20 -12 27 36 9 24 26 -14 19 -22 -4 -35 -3 -35 4 0 5 3 10 8
10 4 0 12 11 19 25 9 20 8 25 -3 25 -8 0 -22 -5 -32 -11 -15 -10 -26 -6 -62
20 -24 17 -55 31 -72 31 -32 0 -38 -16 -8 -25 30 -9 25 -33 -5 -27 -14 2 -25
8 -25 13 0 5 -18 9 -40 9 -29 0 -40 4 -40 15 0 17 -45 21 -55 5z"/>
<path d="M7822 7182 c-14 -9 37 -35 91 -46 15 -4 27 -11 27 -16 0 -16 76 -12
90 5 7 9 29 15 51 15 32 0 39 3 39 20 0 24 -1 24 -43 6 -33 -13 -46 -12 -207
18 -19 3 -41 3 -48 -2z"/>
<path d="M8440 7140 c14 -10 27 -17 29 -15 8 8 -22 35 -38 35 -12 0 -10 -5 9
-20z"/>
<path d="M7491 7127 c-8 -10 -4 -19 19 -35 16 -12 36 -22 44 -22 27 0 26 16
-2 37 -44 32 -49 33 -61 20z"/>
<path d="M6980 7116 c-5 -5 -10 -14 -10 -18 0 -9 59 -36 115 -53 22 -7 48 -15
58 -20 13 -5 17 -2 17 13 0 13 10 24 31 31 35 12 30 31 -7 31 -14 0 -35 5 -47
12 -27 15 -143 18 -157 4z m155 -26 c3 -5 -3 -10 -14 -10 -12 0 -21 5 -21 10
0 6 6 10 14 10 8 0 18 -4 21 -10z"/>
<path d="M7767 7113 c-13 -12 -7 -43 8 -43 8 0 15 -4 15 -9 0 -9 88 -41 115
-41 8 0 23 4 33 9 9 5 25 12 35 15 27 9 11 26 -24 26 -16 0 -37 4 -47 9 -15 9
-115 41 -125 41 -2 0 -7 -3 -10 -7z"/>
<path d="M6770 7089 c-6 -10 -20 -19 -31 -19 -12 0 -19 -5 -16 -12 5 -15 28
-14 80 4 42 15 43 29 4 39 -21 6 -29 3 -37 -12z"/>
<path d="M8485 7099 c-4 -6 2 -13 14 -16 12 -3 21 -12 21 -19 0 -8 7 -14 15
-14 8 0 15 -7 15 -15 0 -8 7 -15 15 -15 8 0 15 7 15 15 0 8 -4 15 -10 15 -5 0
-23 14 -40 30 -34 34 -36 34 -45 19z"/>
<path d="M6471 7091 c-12 -8 -12 -12 -2 -25 8 -9 22 -16 32 -16 10 0 22 -6 26
-13 29 -46 104 -72 131 -45 9 9 15 9 24 0 7 -7 27 -12 44 -12 18 0 39 -6 46
-12 35 -32 95 -61 109 -52 15 9 10 51 -7 58 -9 3 -33 6 -55 6 -21 0 -39 5 -39
10 0 6 -10 10 -22 10 -13 1 -41 9 -63 20 -22 11 -50 19 -63 20 -12 0 -39 7
-58 15 -20 8 -41 12 -46 8 -6 -3 -18 4 -27 15 -11 15 -20 19 -30 13z"/>
<path d="M8135 7076 c-22 -17 -35 -22 -47 -15 -19 10 -51 1 -43 -12 3 -4 12
-6 20 -3 7 3 30 -11 52 -33 21 -21 71 -58 111 -82 44 -26 74 -52 78 -65 5 -23
123 -96 154 -96 10 0 20 -4 22 -8 2 -5 20 -12 41 -15 32 -5 37 -3 37 14 0 31
-4 34 -32 31 -19 -2 -28 1 -28 11 0 14 -16 19 -97 33 -18 4 -33 13 -36 24 -2
10 -17 24 -33 31 -17 9 -31 26 -36 44 -7 29 -21 40 -110 87 -21 11 -38 26 -38
34 0 18 29 18 36 0 3 -8 13 -12 23 -9 10 3 33 -3 51 -12 17 -9 39 -14 48 -10
8 3 19 0 24 -7 6 -10 10 -10 18 2 17 26 11 40 -17 40 -14 0 -34 6 -42 14 -9 7
-41 16 -71 20 -49 6 -58 4 -85 -18z"/>
<path d="M6088 7033 c-10 -2 -18 -11 -18 -20 0 -11 6 -14 23 -9 12 3 32 6 45
6 13 0 22 6 22 15 0 15 -33 19 -72 8z"/>
<path d="M6815 7030 c-4 -6 7 -10 27 -10 18 0 43 -3 56 -6 16 -5 22 -2 22 10
0 13 -11 16 -49 16 -28 0 -53 -4 -56 -10z"/>
<path d="M6940 7033 c0 -15 23 -33 43 -33 30 0 16 34 -16 38 -15 2 -27 -1 -27
-5z"/>
<path d="M8000 7000 c0 -5 18 -10 41 -10 24 0 38 4 34 10 -3 6 -22 10 -41 10
-19 0 -34 -4 -34 -10z"/>
<path d="M5990 6991 c0 -10 40 -22 52 -15 18 11 6 24 -22 24 -16 0 -30 -4 -30
-9z"/>
<path d="M6146 6978 c-8 -4 -25 -7 -38 -6 -18 3 -24 -2 -26 -24 -2 -16 -9 -28
-15 -28 -7 0 -17 -11 -24 -25 -11 -24 -10 -25 23 -25 24 0 36 5 40 18 16 52
48 76 68 50 7 -10 31 -20 54 -24 38 -6 42 -5 42 15 0 12 -8 24 -17 28 -10 3
-24 11 -32 17 -17 13 -55 15 -75 4z"/>
<path d="M5953 6973 c-7 -2 -13 -11 -13 -19 0 -15 38 -6 40 11 2 11 -10 15
-27 8z"/>
<path d="M7757 6974 c-13 -13 -7 -24 14 -24 11 0 19 5 17 12 -5 14 -22 21 -31
12z"/>
<path d="M6297 6963 c-17 -35 9 -103 40 -103 24 0 23 20 -2 30 -26 10 -26 30
1 30 21 0 17 28 -5 40 -23 12 -29 12 -34 3z"/>
<path d="M6013 6952 c-13 -2 -23 -10 -23 -18 0 -8 -4 -14 -10 -14 -5 0 -10 -7
-10 -15 0 -9 -7 -18 -15 -21 -8 -4 -15 -14 -15 -23 0 -11 11 -4 36 22 19 20
41 37 49 37 8 0 16 4 19 8 9 14 -8 27 -31 24z"/>
<path d="M6747 6943 c-13 -12 -7 -33 8 -33 8 0 15 9 15 20 0 20 -11 26 -23 13z"/>
<path d="M7070 6939 c0 -7 -15 -10 -40 -7 -36 3 -40 1 -38 -17 2 -13 15 -23
36 -30 24 -7 31 -13 27 -27 -5 -13 2 -18 30 -24 20 -3 43 -13 51 -21 15 -15
13 -18 29 33 3 8 10 12 16 9 6 -4 8 -13 6 -19 -3 -7 -1 -19 3 -27 8 -11 15
-11 46 0 37 13 45 10 57 -23 1 -4 17 0 35 11 34 21 33 33 -3 33 -13 0 -28 7
-35 15 -7 8 -20 15 -29 15 -9 0 -25 6 -36 14 -11 7 -44 14 -74 15 -66 2 -73 7
-43 30 13 9 20 20 16 24 -12 11 -54 8 -54 -4z"/>
<path d="M7913 6943 c-7 -3 -13 -16 -13 -29 0 -17 6 -24 19 -24 11 0 23 -4 26
-10 3 -5 17 -10 30 -10 13 0 27 5 30 10 9 15 48 12 71 -5 24 -18 74 -20 74 -2
0 35 -95 74 -154 63 -20 -4 -44 -3 -53 2 -10 5 -24 7 -30 5z"/>
<path d="M8340 6934 c0 -14 3 -14 15 -4 8 7 15 14 15 16 0 2 -7 4 -15 4 -8 0
-15 -7 -15 -16z"/>
<path d="M5880 6922 c0 -9 -9 -23 -20 -30 -11 -7 -20 -17 -20 -22 0 -6 -10
-24 -22 -40 -19 -26 -28 -30 -68 -30 -40 0 -49 -4 -68 -29 -14 -19 -18 -32
-11 -36 7 -5 7 -11 0 -19 -14 -16 -4 -26 24 -26 29 0 48 24 40 50 -8 26 3 26
26 -1 21 -24 57 -22 73 3 8 14 6 20 -9 31 -17 14 -16 16 28 35 43 19 47 24 47
56 0 19 5 38 10 41 18 11 11 35 -10 35 -12 0 -20 -7 -20 -18z"/>
<path d="M6396 6907 c-26 -19 -14 -33 32 -41 22 -3 45 -12 52 -21 18 -22 76
-29 123 -15 47 14 35 30 -25 30 -20 0 -39 4 -43 9 -19 32 -113 57 -139 38z"/>
<path d="M7360 6914 c0 -12 51 -54 66 -54 21 0 17 38 -5 50 -22 11 -61 14 -61
4z"/>
<path d="M7673 6907 c-3 -5 -3 -10 -2 -11 35 -26 60 -36 90 -36 20 0 42 -7 49
-15 14 -17 36 -20 45 -5 3 6 -2 13 -12 17 -10 4 -33 18 -52 32 -34 26 -106 36
-118 18z"/>
<path d="M8460 6910 c-11 -7 -7 -10 18 -10 17 0 32 5 32 10 0 13 -30 13 -50 0z"/>
<path d="M6920 6866 c0 -23 16 -36 46 -36 17 0 19 31 2 48 -21 21 -48 14 -48
-12z"/>
<path d="M6253 6862 c-13 -2 -23 -10 -23 -18 0 -16 18 -18 39 -5 20 13 10 27
-16 23z"/>
<path d="M8636 6834 c-3 -8 -6 -18 -6 -20 0 -8 189 -4 194 5 7 11 -87 22 -125
14 -16 -3 -35 0 -43 6 -11 9 -15 8 -20 -5z"/>
<path d="M5515 6819 c-4 -6 -5 -13 -2 -16 7 -7 27 6 27 18 0 12 -17 12 -25 -2z"/>
<path d="M6396 6821 c-8 -12 20 -22 39 -15 19 8 9 24 -15 24 -10 0 -21 -4 -24
-9z"/>
<path d="M6830 6820 c-8 -5 -11 -12 -8 -16 11 -10 60 5 53 16 -8 12 -26 12
-45 0z"/>
<path d="M8190 6800 c0 -15 80 -89 97 -90 7 0 22 -13 34 -29 12 -16 32 -32 45
-35 13 -4 24 -13 24 -22 0 -17 41 -16 46 1 4 14 -87 85 -108 85 -12 0 -18 8
-18 24 0 17 -10 30 -35 45 -47 27 -85 37 -85 21z"/>
<path d="M6602 6788 c5 -15 48 -18 48 -3 0 6 -11 11 -26 13 -18 3 -25 0 -22
-10z"/>
<path d="M6682 6778 c2 -18 9 -22 28 -20 52 6 51 42 -1 42 -26 0 -30 -3 -27
-22z"/>
<path d="M7670 6790 c0 -5 9 -10 20 -10 11 0 20 5 20 10 0 6 -9 10 -20 10 -11
0 -20 -4 -20 -10z"/>
<path d="M7855 6790 c-3 -5 -2 -10 3 -10 5 0 19 -9 32 -20 27 -23 50 -26 50
-6 0 31 -70 60 -85 36z"/>
<path d="M7020 6780 c0 -5 11 -10 25 -10 14 0 25 5 25 10 0 6 -11 10 -25 10
-14 0 -25 -4 -25 -10z"/>
<path d="M7480 6781 c-8 -6 -36 -13 -62 -16 -57 -8 -55 -21 5 -30 23 -3 56
-13 73 -22 22 -11 43 -14 77 -9 61 9 54 34 -11 38 -42 3 -47 5 -45 26 3 23
-12 28 -37 13z"/>
<path d="M5930 6760 c20 -38 115 -55 115 -21 0 10 -20 19 -62 26 -56 10 -61
10 -53 -5z"/>
<path d="M6080 6760 c-8 -5 -11 -12 -8 -16 11 -10 60 5 53 16 -8 12 -26 12
-45 0z"/>
<path d="M6330 6741 c0 -26 40 -39 52 -17 11 20 28 12 28 -14 0 -30 44 -36
102 -15 37 13 52 15 61 6 12 -12 37 -15 37 -3 0 17 -65 42 -110 42 -27 0 -52
5 -55 10 -3 6 -31 10 -61 10 -47 0 -54 -3 -54 -19z"/>
<path d="M8664 6749 c12 -8 25 -8 40 -1 18 9 16 11 -19 11 -33 0 -37 -1 -21
-10z"/>
<path d="M5414 6736 c-10 -8 -16 -17 -13 -20 10 -10 39 5 39 20 0 17 -2 17
-26 0z"/>
<path d="M5315 6720 c-25 -28 -54 -34 -73 -16 -24 21 -91 24 -103 6 -5 -8 -7
-20 -4 -27 9 -25 -105 -80 -140 -67 -7 3 -16 1 -19 -4 -3 -6 17 -13 47 -16 74
-10 88 -22 33 -29 -44 -6 -123 10 -149 31 -17 13 -67 21 -67 11 0 -5 5 -9 10
-9 6 0 10 -7 10 -15 0 -8 6 -15 13 -15 6 0 18 -13 25 -30 15 -33 46 -39 85
-18 12 6 45 10 74 9 43 -2 54 1 63 19 6 11 21 20 35 20 43 0 79 20 128 72 26
28 47 55 47 60 0 4 5 8 10 8 6 0 10 7 10 15 0 21 -13 19 -35 -5z"/>
<path d="M5610 6730 c0 -5 9 -10 20 -10 11 0 20 5 20 10 0 6 -9 10 -20 10 -11
0 -20 -4 -20 -10z"/>
<path d="M7180 6720 c0 -12 34 -12 70 0 20 7 16 8 -22 9 -27 1 -48 -3 -48 -9z"/>
<path d="M5488 6693 c-16 -2 -28 -9 -28 -14 0 -5 -7 -9 -15 -9 -8 0 -15 -7
-15 -15 0 -20 16 -19 24 0 3 9 11 15 18 14 15 -3 68 18 68 26 0 5 -6 5 -52 -2z"/>
<path d="M8480 6690 c0 -13 37 -50 49 -50 5 0 13 -9 16 -21 4 -11 20 -25 35
-31 21 -7 30 -17 32 -36 2 -19 8 -26 20 -24 10 2 28 -6 40 -18 33 -30 45 -8
17 32 -13 18 -27 35 -31 36 -5 2 -8 10 -8 17 0 22 -60 76 -79 70 -9 -2 -29 4
-46 15 -34 22 -45 25 -45 10z"/>
<path d="M8735 6690 c-8 -13 20 -24 40 -16 8 3 15 10 15 16 0 13 -47 13 -55 0z"/>
<path d="M8815 6690 c3 -6 36 -10 72 -10 83 0 79 5 -10 13 -43 4 -66 3 -62 -3z"/>
<path d="M6086 6673 c-11 -11 -6 -23 9 -23 8 0 15 4 15 9 0 13 -16 22 -24 14z"/>
<path d="M6830 6665 c0 -16 31 -19 64 -6 18 7 18 8 -5 14 -39 11 -59 8 -59 -8z"/>
<path d="M8647 6674 c-10 -10 2 -24 21 -24 19 0 62 -46 62 -67 0 -7 9 -13 20
-13 23 0 24 4 10 31 -6 10 -17 19 -25 19 -8 0 -15 9 -15 20 0 28 -54 53 -73
34z"/>
<path d="M6971 6651 c15 -12 28 -16 34 -10 5 5 27 9 50 10 35 1 37 2 15 9 -14
4 -47 8 -74 9 l-48 1 23 -19z"/>
<path d="M7655 6660 c3 -5 25 -10 47 -10 29 0 47 -6 63 -22 57 -59 109 -83 58
-27 -61 67 -64 69 -120 69 -34 0 -52 -4 -48 -10z"/>
<path d="M7830 6661 c0 -13 60 -42 73 -34 13 8 -32 42 -55 43 -10 0 -18 -4
-18 -9z"/>
<path d="M8135 6640 c-3 -5 1 -10 9 -10 8 0 18 5 21 10 3 6 -1 10 -9 10 -8 0
-18 -4 -21 -10z"/>
<path d="M5677 6606 c-10 -8 -39 -14 -64 -14 -28 0 -52 -6 -61 -16 -26 -26 -3
-37 43 -21 22 8 50 14 63 15 12 0 22 4 22 9 0 5 9 13 20 16 11 4 18 11 15 16
-8 12 -17 11 -38 -5z"/>
<path d="M7140 6610 c0 -5 7 -10 15 -10 8 0 15 5 15 10 0 6 -7 10 -15 10 -8 0
-15 -4 -15 -10z"/>
<path d="M5820 6600 c0 -5 11 -10 25 -10 14 0 25 5 25 10 0 6 -11 10 -25 10
-14 0 -25 -4 -25 -10z"/>
<path d="M7301 6593 c18 -29 108 -95 119 -88 15 9 12 35 -4 35 -8 0 -21 8 -28
18 -30 41 -112 73 -87 35z"/>
<path d="M7960 6595 c0 -17 27 -38 39 -31 6 4 8 13 5 20 -7 19 -44 28 -44 11z"/>
<path d="M6260 6580 c0 -5 7 -10 15 -10 8 0 15 5 15 10 0 6 -7 10 -15 10 -8 0
-15 -4 -15 -10z"/>
<path d="M6615 6580 l-40 -5 32 -13 c24 -10 36 -11 52 -2 12 6 21 12 21 14 0
9 -28 11 -65 6z"/>
<path d="M7192 6579 c2 -7 10 -15 17 -17 8 -3 12 1 9 9 -2 7 -10 15 -17 17 -8
3 -12 -1 -9 -9z"/>
<path d="M7532 6561 c2 -9 18 -21 36 -27 19 -6 41 -24 52 -41 25 -42 32 -44
59 -24 l23 17 -26 17 c-14 10 -26 24 -26 32 0 20 -37 38 -83 40 -30 2 -37 -1
-35 -14z"/>
<path d="M5835 6559 c-16 -5 -39 -7 -49 -5 -42 11 -122 -52 -106 -83 5 -9 11
-24 14 -33 7 -24 37 -23 58 1 18 21 14 31 -13 31 -31 0 -30 18 2 34 38 19 61
20 76 5 15 -15 73 19 73 43 0 20 -10 21 -55 7z"/>
<path d="M7707 6554 c-10 -11 3 -24 24 -24 23 0 25 15 3 24 -19 7 -19 7 -27 0z"/>
<path d="M4809 6532 c11 -8 9 -15 -9 -40 -13 -18 -19 -35 -15 -43 6 -9 10 -9
19 2 6 8 23 22 39 32 31 20 34 33 10 40 -10 2 -27 8 -38 12 -14 5 -16 4 -6 -3z"/>
<path d="M5596 6505 c-3 -9 -19 -15 -41 -15 -19 0 -43 -4 -53 -9 -9 -6 -34
-13 -54 -16 -40 -6 -55 -35 -19 -35 11 0 22 -6 25 -12 3 -9 11 -6 25 10 10 12
21 27 23 33 2 5 23 10 47 11 38 0 81 23 81 43 0 12 -28 4 -34 -10z"/>
<path d="M6284 6504 c3 -9 6 -18 6 -20 0 -2 15 -4 33 -4 l32 0 -25 20 c-31 24
-54 26 -46 4z"/>
<path d="M8117 6499 c5 -18 39 -39 64 -39 21 0 7 31 -21 45 -39 20 -49 19 -43
-6z"/>
<path d="M7282 6488 c5 -15 28 -18 29 -3 0 6 -7 12 -17 13 -10 3 -15 -1 -12
-10z"/>
<path d="M7770 6491 c0 -11 25 -21 51 -21 23 0 25 15 3 24 -23 9 -54 7 -54 -3z"/>
<path d="M5954 6472 c-11 -4 -33 -17 -49 -30 -27 -22 -28 -23 -9 -37 15 -11
17 -16 7 -26 -21 -21 -15 -36 20 -45 26 -8 32 -15 32 -39 1 -16 6 -30 12 -32
22 -8 22 14 -1 60 l-24 46 34 11 c26 9 34 17 34 36 0 13 -4 24 -10 24 -5 0
-10 -7 -10 -15 0 -8 -9 -15 -19 -15 -28 0 -35 17 -11 25 11 3 20 15 20 26 0
10 -1 19 -2 18 -2 -1 -12 -4 -24 -7z"/>
<path d="M6260 6465 c0 -8 7 -15 15 -15 8 0 15 7 15 15 0 8 -7 15 -15 15 -8 0
-15 -7 -15 -15z"/>
<path d="M6452 6468 c3 -7 15 -14 29 -16 23 -2 23 -2 5 13 -24 18 -39 20 -34
3z"/>
<path d="M6545 6469 c-8 -12 -5 -16 15 -19 34 -5 43 -1 30 15 -15 18 -36 20
-45 4z"/>
<path d="M7444 6462 c-6 -4 -14 -15 -17 -26 -7 -16 -4 -18 30 -11 45 8 47 10
40 30 -7 16 -34 20 -53 7z"/>
<path d="M8607 6463 c-12 -11 -8 -23 8 -23 8 0 15 7 15 15 0 16 -12 20 -23 8z"/>
<path d="M4902 6438 c3 -19 -2 -23 -24 -23 -37 -1 -59 -22 -32 -31 10 -3 30
-11 43 -17 20 -10 25 -8 43 16 12 16 29 27 44 27 36 0 30 27 -8 35 -18 4 -41
9 -51 11 -13 4 -16 0 -15 -18z"/>
<path d="M8792 6451 c2 -7 7 -12 11 -12 12 1 9 15 -3 20 -7 2 -11 -2 -8 -8z"/>
<path d="M6620 6436 c0 -20 13 -27 30 -15 13 8 13 10 0 19 -21 14 -30 12 -30
-4z"/>
<path d="M5253 6433 c-31 -6 -29 -23 2 -23 37 0 31 -15 -21 -51 -39 -29 -84
-92 -73 -103 2 -3 21 2 43 9 21 7 53 11 71 8 25 -4 48 3 97 28 34 19 64 34 64
34 1 0 4 17 8 37 6 31 4 37 -14 43 -27 9 -74 -26 -97 -73 -11 -23 -26 -38 -40
-40 -22 -3 -22 -3 -7 35 9 21 22 42 30 46 18 10 18 27 0 27 -8 0 -16 7 -20 15
-3 8 -9 14 -13 14 -4 -1 -18 -4 -30 -6z"/>
<path d="M7696 6431 c-4 -5 3 -15 14 -21 11 -6 20 -20 20 -31 0 -12 10 -23 25
-29 14 -5 25 -13 25 -18 0 -24 214 -102 232 -84 16 16 -9 72 -32 72 -10 0 -32
11 -48 25 -36 30 -56 33 -47 5 11 -34 -15 -23 -64 29 -46 50 -110 76 -125 52z"/>
<path d="M8550 6426 c0 -9 7 -16 16 -16 9 0 14 5 12 12 -6 18 -28 21 -28 4z"/>
<path d="M7371 6421 c-19 -12 -6 -41 19 -41 11 0 20 -4 20 -10 0 -5 5 -10 10
-10 7 0 7 6 1 18 -5 9 -12 25 -15 35 -6 19 -14 21 -35 8z"/>
<path d="M8684 6414 c3 -9 6 -27 6 -40 0 -15 6 -24 15 -24 23 0 30 28 15 56
-15 27 -46 34 -36 8z"/>
<path d="M6132 6408 c-14 -14 -16 -38 -4 -38 12 0 32 23 32 37 0 16 -12 17
-28 1z"/>
<path d="M7500 6413 c0 -6 7 -16 15 -23 8 -7 15 -17 15 -22 0 -10 25 -38 34
-38 16 0 2 29 -29 59 -19 19 -35 29 -35 24z"/>
<path d="M8210 6392 c0 -13 39 -46 46 -39 3 3 -4 15 -15 26 -23 23 -31 26 -31
13z"/>
<path d="M8590 6375 c0 -8 7 -15 16 -15 14 0 14 3 4 15 -7 8 -14 15 -16 15 -2
0 -4 -7 -4 -15z"/>
<path d="M8070 6370 c0 -5 12 -10 26 -10 14 0 23 4 19 10 -3 6 -15 10 -26 10
-10 0 -19 -4 -19 -10z"/>
<path d="M5113 6353 c-26 -18 -30 -43 -8 -43 9 0 20 12 26 26 12 33 10 36 -18
17z"/>
<path d="M7430 6340 c0 -5 4 -10 9 -10 5 0 29 -18 53 -40 36 -34 44 -38 47
-23 2 11 -11 30 -34 50 -37 32 -75 43 -75 23z"/>
<path d="M8630 6336 c0 -9 7 -16 16 -16 17 0 14 22 -4 28 -7 2 -12 -3 -12 -12z"/>
<path d="M4820 6316 c0 -26 31 -41 49 -23 8 8 6 16 -6 29 -23 25 -43 23 -43
-6z"/>
<path d="M4940 6315 c0 -8 5 -15 10 -15 6 0 10 7 10 15 0 8 -4 15 -10 15 -5 0
-10 -7 -10 -15z"/>
<path d="M8772 6318 c-29 -29 -2 -118 35 -118 7 0 13 -4 13 -10 0 -5 5 -10 11
-10 7 0 18 -8 25 -17 12 -16 13 -16 14 -2 0 9 -12 22 -26 29 -20 11 -24 19
-19 38 5 21 3 24 -14 19 -17 -4 -21 0 -21 18 0 13 5 25 11 27 11 4 2 38 -10
38 -4 0 -12 -5 -19 -12z"/>
<path d="M8310 6299 c-13 -24 -5 -38 12 -21 19 19 35 14 42 -13 8 -33 53 -56
67 -34 16 25 10 38 -31 64 -48 30 -76 32 -90 4z"/>
<path d="M5575 6300 c-3 -5 3 -10 14 -10 11 0 23 5 26 10 3 6 -3 10 -14 10
-11 0 -23 -4 -26 -10z"/>
<path d="M5706 6291 c-17 -18 -16 -20 4 -26 26 -8 45 7 37 29 -8 21 -20 20
-41 -3z"/>
<path d="M7587 6303 c-14 -13 -6 -23 35 -43 62 -30 73 -25 34 15 -34 34 -55
42 -69 28z"/>
<path d="M4760 6275 c0 -8 12 -22 28 -32 15 -10 33 -23 40 -30 16 -15 29 -17
37 -4 6 11 -42 51 -62 51 -7 0 -16 7 -19 15 -8 19 -24 19 -24 0z"/>
<path d="M8125 6281 c-7 -12 12 -24 25 -16 11 7 4 25 -10 25 -5 0 -11 -4 -15
-9z"/>
<path d="M7270 6270 c20 -13 43 -13 35 0 -3 6 -16 10 -28 10 -18 0 -19 -2 -7
-10z"/>
<path d="M6060 6229 c0 -20 4 -29 9 -23 15 15 17 47 4 51 -9 3 -13 -6 -13 -28z"/>
<path d="M7337 6254 c-11 -11 3 -24 24 -24 12 0 19 5 17 13 -5 14 -31 21 -41
11z"/>
<path d="M5125 6230 c-11 -17 5 -32 21 -19 7 6 11 15 8 20 -7 12 -21 11 -29
-1z"/>
<path d="M8171 6220 c-11 -6 -5 -12 25 -24 21 -9 45 -24 52 -33 11 -15 12 -14
12 9 0 14 -6 30 -12 35 -20 16 -62 23 -77 13z"/>
<path d="M8626 6213 c4 -10 9 -35 12 -55 5 -47 15 -48 29 -4 9 30 8 37 -11 55
-27 26 -41 27 -30 4z"/>
<path d="M5261 6198 c-7 -19 -8 -19 -14 -4 -6 14 -14 17 -34 11 -36 -9 -75
-48 -67 -68 7 -19 -14 -33 -29 -18 -17 17 -29 13 -22 -8 4 -13 0 -23 -12 -30
-28 -15 -2 -36 34 -26 15 4 36 8 47 9 13 1 20 10 22 30 4 37 11 43 27 22 12
-16 14 -15 35 4 12 11 22 27 22 34 0 8 7 19 15 26 8 7 15 19 15 26 0 22 -30
16 -39 -8z"/>
<path d="M6003 6175 c0 -27 2 -38 4 -22 2 15 2 37 0 50 -2 12 -4 0 -4 -28z"/>
<path d="M7560 6212 c0 -19 36 -41 59 -35 22 6 22 6 -6 24 -30 20 -53 25 -53
11z"/>
<path d="M7845 6200 c10 -11 28 -20 40 -20 12 0 34 -9 48 -20 24 -19 47 -26
47 -14 0 22 -24 44 -48 44 -16 0 -37 7 -48 15 -10 8 -28 15 -38 15 -18 0 -18
-1 -1 -20z"/>
<path d="M8420 6196 c0 -16 42 -46 65 -46 23 0 18 26 -10 44 -30 20 -55 21
-55 2z"/>
<path d="M4880 6185 c0 -8 7 -15 15 -15 8 0 15 7 15 15 0 8 -7 15 -15 15 -8 0
-15 -7 -15 -15z"/>
<path d="M8717 6177 c-12 -32 28 -127 54 -127 15 0 10 57 -6 64 -8 3 -15 14
-15 25 0 42 -22 67 -33 38z"/>
<path d="M4721 6158 c-6 -17 -4 -25 6 -32 17 -9 33 8 33 37 0 25 -29 21 -39
-5z"/>
<path d="M4792 6161 c4 -13 18 -16 19 -4 0 4 -5 9 -11 12 -7 2 -11 -2 -8 -8z"/>
<path d="M4997 6124 c-23 -31 -16 -57 12 -46 11 4 20 10 20 15 3 31 0 57 -6
57 -5 0 -16 -12 -26 -26z"/>
<path d="M8001 6103 c1 -26 73 -85 93 -77 9 3 16 10 16 15 0 5 9 9 20 9 40 0
19 18 -51 44 -83 31 -79 30 -78 9z"/>
<path d="M4758 6090 c-10 -11 -27 -20 -39 -20 -14 0 -19 -6 -17 -17 1 -10 -4
-33 -11 -51 -13 -30 -12 -36 6 -60 11 -15 29 -27 39 -27 16 0 19 7 18 53 -1
42 2 52 15 52 9 0 23 -6 30 -12 11 -11 13 -9 8 7 -2 11 -8 27 -12 37 -4 11 0
18 15 23 27 9 21 29 -11 33 -15 2 -31 -5 -41 -18z"/>
<path d="M8670 6095 c0 -8 5 -15 10 -15 6 0 10 7 10 15 0 8 -4 15 -10 15 -5 0
-10 -7 -10 -15z"/>
<path d="M8486 6091 c-6 -9 13 -84 35 -140 12 -30 49 -215 49 -246 0 -35 17
-39 28 -6 19 53 -3 230 -35 276 -7 11 -13 31 -13 45 -1 28 -54 88 -64 71z"/>
<path d="M7726 6073 c-8 -21 10 -41 24 -27 11 11 3 44 -10 44 -4 0 -11 -8 -14
-17z"/>
<path d="M8818 6078 c7 -7 8 -17 2 -29 -7 -11 -7 -20 -1 -24 6 -3 15 4 21 15
8 16 8 24 -4 35 -8 8 -18 15 -22 15 -5 0 -3 -5 4 -12z"/>
<path d="M7825 6060 c3 -5 13 -10 21 -10 8 0 12 5 9 10 -3 6 -13 10 -21 10 -8
0 -12 -4 -9 -10z"/>
<path d="M7923 6039 c-18 -10 -40 -16 -48 -13 -20 8 -19 -2 6 -37 27 -38 52
-39 47 -1 -2 21 1 28 19 30 17 3 24 -3 29 -22 3 -13 14 -32 24 -41 16 -15 18
-14 23 7 7 25 -27 84 -53 91 -8 2 -30 -4 -47 -14z"/>
<path d="M8670 6043 c0 -5 9 -23 20 -41 20 -33 44 -36 33 -4 -12 34 -53 68
-53 45z"/>
<path d="M8411 6026 c-8 -9 -11 -44 -9 -98 3 -71 5 -83 20 -80 25 4 31 -14 14
-40 -14 -22 -12 -29 23 -100 22 -43 44 -90 50 -105 38 -92 148 -218 179 -205
13 4 13 7 1 16 -20 16 -55 68 -63 93 -4 12 -13 27 -21 33 -8 7 -15 24 -15 39
0 15 -16 48 -39 78 -21 29 -42 69 -46 90 -3 21 -12 47 -19 58 -7 11 -16 54
-20 95 -11 123 -27 160 -55 126z"/>
<path d="M5060 5999 c-51 -30 -123 -111 -107 -121 6 -4 16 -3 21 2 6 6 15 10
20 10 6 0 5 -5 -2 -12 -7 -7 -12 -19 -12 -29 0 -9 -18 -31 -40 -50 -30 -25
-38 -39 -34 -55 3 -12 -1 -36 -10 -52 -11 -21 -14 -47 -11 -84 15 -177 19
-193 41 -164 8 11 14 28 14 37 0 10 9 24 20 32 27 19 43 64 30 87 -5 10 -10
29 -10 42 0 29 33 100 54 118 9 7 16 23 16 35 0 28 34 110 49 119 6 4 11 16
11 26 0 11 14 29 30 42 22 16 27 24 18 30 -22 14 -62 9 -98 -13z m-80 -449 c0
-5 -7 -10 -15 -10 -8 0 -15 5 -15 10 0 6 7 10 15 10 8 0 15 -4 15 -10z"/>
<path d="M8820 5981 c0 -12 5 -21 10 -21 6 0 10 6 10 14 0 8 -4 18 -10 21 -5
3 -10 -3 -10 -14z"/>
<path d="M8101 5981 c-12 -8 -12 -13 2 -35 9 -14 17 -34 17 -44 0 -11 7 -36
15 -56 8 -19 14 -50 13 -68 -2 -24 1 -33 12 -33 12 0 15 14 15 61 0 37 6 70
16 85 18 29 14 59 -9 59 -10 0 -23 9 -30 20 -13 22 -29 25 -51 11z"/>
<path d="M8730 5958 c0 -1 7 -21 14 -43 10 -27 21 -41 35 -43 20 -3 30 13 13
20 -5 2 -15 16 -23 32 -11 24 -39 48 -39 34z"/>
<path d="M7105 5920 c-3 -5 3 -10 15 -10 12 0 18 5 15 10 -3 6 -10 10 -15 10
-5 0 -12 -4 -15 -10z"/>
<path d="M7700 5875 c0 -19 5 -25 21 -25 15 0 19 4 15 16 -3 9 -6 20 -6 25 0
5 -7 9 -15 9 -9 0 -15 -9 -15 -25z"/>
<path d="M8060 5884 c0 -4 6 -35 14 -68 8 -34 18 -96 21 -138 4 -46 12 -81 20
-88 10 -9 13 -25 8 -56 -4 -34 -3 -44 8 -44 15 0 43 92 30 98 -32 13 -35 23
-36 121 -1 80 -5 104 -17 114 -9 6 -18 23 -20 36 -3 22 -28 44 -28 25z"/>
<path d="M8311 5877 c-13 -16 -5 -67 10 -67 13 0 22 47 12 65 -8 14 -11 14
-22 2z"/>
<path d="M4638 5853 c-9 -10 -24 -24 -33 -31 -9 -8 -14 -19 -12 -25 4 -14 59
-21 91 -13 24 6 60 61 51 76 -10 17 -79 12 -97 -7z"/>
<path d="M7861 5845 c0 -16 6 -39 14 -49 8 -11 15 -39 15 -62 0 -28 5 -44 15
-48 8 -3 15 -16 15 -30 0 -14 4 -27 10 -31 5 -3 8 -31 7 -63 -2 -54 -4 -57
-31 -60 -26 -3 -28 -6 -23 -40 3 -20 10 -55 17 -77 6 -22 12 -49 13 -59 3 -30
-20 -30 -36 -1 -12 24 -15 25 -27 10 -11 -14 -10 -24 8 -68 11 -29 24 -68 28
-87 11 -57 46 -120 66 -120 21 0 23 11 6 28 -10 10 -10 17 0 32 6 11 12 41 12
68 0 33 7 58 23 82 45 67 40 107 -10 75 -14 -9 -29 -13 -33 -8 -4 4 -10 39
-13 77 -6 62 -5 68 14 73 11 3 19 13 18 22 -1 9 1 29 6 44 6 22 1 39 -19 76
-14 27 -26 57 -26 67 0 11 -7 28 -15 38 -8 11 -15 29 -15 41 0 12 -9 39 -20
61 l-19 39 0 -30z"/>
<path d="M8810 5800 c0 -35 5 -52 17 -58 14 -9 14 -11 -7 -22 -20 -11 -25 -10
-41 11 l-19 24 0 -31 c0 -26 5 -33 28 -39 33 -8 62 -37 62 -63 0 -22 19 -42
40 -42 13 1 12 3 -2 14 -22 16 -23 36 -4 36 27 0 27 19 -1 62 -17 27 -28 59
-29 86 -2 41 -17 72 -35 72 -5 0 -9 -22 -9 -50z"/>
<path d="M6863 5815 c-31 -13 -46 -45 -22 -45 25 0 68 33 69 53 0 10 -10 8
-47 -8z"/>
<path d="M7270 5816 c0 -9 7 -16 16 -16 9 0 14 5 12 12 -6 18 -28 21 -28 4z"/>
<path d="M6565 5801 c-18 -7 -17 -8 7 -14 14 -4 48 -4 75 0 l48 7 -40 7 c-50
10 -65 10 -90 0z"/>
<path d="M6420 5781 c-19 -4 -53 -17 -75 -29 l-40 -22 50 4 c129 12 188 26
173 41 -10 10 -73 14 -108 6z"/>
<path d="M5615 5770 c-18 -8 -17 -9 8 -9 16 -1 26 3 22 9 -3 6 -7 10 -8 9 -1
0 -11 -4 -22 -9z"/>
<path d="M7395 5770 c-3 -5 5 -12 19 -16 28 -7 66 3 66 17 0 12 -77 12 -85 -1z"/>
<path d="M7980 5767 c0 -5 4 -27 9 -50 6 -23 12 -55 16 -70 6 -30 25 -28 25 3
0 10 -11 42 -25 72 -14 29 -25 49 -25 45z"/>
<path d="M7766 5751 c-4 -5 -3 -29 1 -53 l7 -43 8 45 c7 42 -2 74 -16 51z"/>
<path d="M4545 5740 c3 -5 12 -10 20 -10 8 0 17 5 20 10 4 6 -5 10 -20 10 -15
0 -24 -4 -20 -10z"/>
<path d="M4602 5738 c5 -15 58 -24 58 -10 0 5 -10 12 -22 16 -34 9 -40 7 -36
-6z"/>
<path d="M8341 5713 c1 -34 2 -35 9 -13 11 36 11 50 0 50 -5 0 -10 -17 -9 -37z"/>
<path d="M6145 5717 c-40 -21 -73 -23 -300 -16 -33 0 -80 -3 -105 -7 -39 -8
-45 -13 -48 -36 -2 -16 -9 -28 -18 -28 -8 0 -14 -4 -14 -10 0 -14 11 -12 34 5
16 12 55 15 182 15 124 0 168 3 190 15 16 8 43 15 60 15 17 0 37 7 44 15 8 9
30 15 56 15 24 0 44 4 44 8 0 8 -71 34 -81 31 -2 -1 -22 -11 -44 -22z"/>
<path d="M7037 5732 c-18 -8 -18 -9 -1 -22 11 -10 48 -16 108 -18 74 -3 94 -8
109 -23 10 -10 26 -19 37 -19 10 0 22 -4 25 -10 8 -13 55 -13 75 0 21 14 4 24
-66 39 -29 7 -60 20 -66 30 -10 15 -33 20 -108 24 -52 4 -103 3 -113 -1z"/>
<path d="M6917 5713 c-16 -15 -5 -24 25 -21 41 4 50 28 11 28 -17 0 -33 -3
-36 -7z"/>
<path d="M4777 5693 c-4 -3 -7 -16 -7 -29 0 -13 -8 -24 -19 -27 -15 -4 -18
-13 -17 -50 1 -50 8 -63 28 -51 7 5 22 9 33 9 11 0 20 7 20 15 0 10 -8 14 -22
13 -28 -3 -31 13 -4 20 20 5 39 76 26 97 -7 11 -28 13 -38 3z"/>
<path d="M5232 5678 c6 -18 28 -21 28 -4 0 9 -7 16 -16 16 -9 0 -14 -5 -12
-12z"/>
<path d="M4500 5670 c0 -5 7 -10 15 -10 8 0 15 5 15 10 0 6 -7 10 -15 10 -8 0
-15 -4 -15 -10z"/>
<path d="M5610 5670 c0 -5 11 -10 25 -10 14 0 25 5 25 10 0 6 -11 10 -25 10
-14 0 -25 -4 -25 -10z"/>
<path d="M6525 5671 c-11 -4 -78 -16 -150 -26 -71 -9 -134 -21 -139 -26 -6 -5
-21 -9 -34 -9 -28 0 -145 -28 -182 -43 l-25 -10 34 -10 c26 -8 44 -7 81 6 26
9 63 17 83 17 19 0 54 7 77 15 23 8 76 15 117 15 56 0 75 4 79 15 5 13 44 15
264 15 142 0 265 -3 274 -6 25 -10 19 -24 -11 -25 -16 0 -37 -4 -48 -9 -16 -7
-14 -9 15 -9 48 -1 80 9 80 24 0 8 9 17 20 20 18 6 29 25 14 25 -4 0 -52 7
-108 16 -83 13 -112 14 -171 4 -51 -8 -82 -9 -115 -1 -52 12 -126 13 -155 2z"/>
<path d="M5515 5651 c-7 -13 30 -24 55 -16 28 9 15 25 -20 25 -16 0 -31 -4
-35 -9z"/>
<path d="M4640 5640 c0 -5 -9 -10 -19 -10 -11 0 -23 -4 -26 -10 -12 -19 32
-10 50 10 10 11 13 20 7 20 -7 0 -12 -4 -12 -10z"/>
<path d="M7490 5635 c0 -11 11 -15 42 -15 39 0 40 1 22 15 -25 19 -64 19 -64
0z"/>
<path d="M8750 5630 c0 -11 7 -23 15 -26 8 -4 15 -12 15 -20 0 -8 5 -14 10
-14 6 0 10 7 10 15 0 8 -4 15 -9 15 -5 0 -12 11 -15 25 -8 30 -26 33 -26 5z"/>
<path d="M7828 5627 c-6 -16 1 -37 13 -37 12 0 12 37 0 44 -5 3 -11 0 -13 -7z"/>
<path d="M5403 5610 c-10 -11 -26 -20 -36 -20 -26 0 -59 -19 -52 -31 9 -14 41
-11 55 6 7 8 27 15 45 15 39 0 67 26 44 41 -22 14 -38 11 -56 -11z"/>
<path d="M7118 5604 c-44 -13 -4 -34 63 -34 23 0 39 -6 43 -15 3 -9 18 -15 35
-15 16 0 33 -4 36 -10 7 -12 45 -14 44 -2 -1 15 -61 55 -97 64 -48 13 -102 18
-124 12z"/>
<path d="M5575 5589 c-4 -6 -5 -12 -2 -15 7 -7 37 7 37 17 0 13 -27 11 -35 -2z"/>
<path d="M8461 5548 c1 -56 53 -180 79 -190 13 -5 25 -6 27 -4 6 6 -43 110
-69 148 -10 14 -18 35 -18 46 0 12 -4 24 -10 27 -6 4 -10 -7 -9 -27z"/>
<path d="M4532 5563 c-16 -6 -42 -68 -41 -97 0 -21 0 -21 16 2 8 12 21 22 28
22 7 0 15 7 19 15 3 8 14 15 24 15 16 0 52 28 52 41 0 6 -82 8 -98 2z"/>
<path d="M6600 5561 c0 -13 37 -24 51 -15 8 4 7 9 -2 15 -19 12 -49 11 -49 0z"/>
<path d="M7401 5556 c-13 -15 -8 -18 57 -31 25 -5 32 -3 32 9 0 16 -37 36 -64
36 -8 0 -19 -6 -25 -14z"/>
<path d="M7830 5555 c0 -8 5 -15 10 -15 6 0 10 7 10 15 0 8 -4 15 -10 15 -5 0
-10 -7 -10 -15z"/>
<path d="M5648 5529 c-60 -30 -64 -35 -49 -58 8 -12 19 -10 65 12 67 32 142
35 221 11 37 -12 66 -15 99 -10 27 4 46 10 43 12 -3 3 -33 12 -66 20 -34 7
-72 20 -84 28 -14 9 -50 14 -97 14 -63 0 -84 -4 -132 -29z"/>
<path d="M8334 5538 c3 -13 6 -47 6 -76 0 -62 18 -67 36 -11 9 27 9 37 -1 49
-7 8 -16 25 -19 38 -4 12 -12 22 -18 22 -6 0 -8 -10 -4 -22z"/>
<path d="M8777 5536 c-7 -18 45 -56 78 -56 35 0 31 13 -13 44 -43 29 -57 32
-65 12z"/>
<path d="M5210 5526 c0 -21 35 -29 59 -14 31 19 25 28 -19 28 -28 0 -40 -4
-40 -14z"/>
<path d="M6740 5528 c-41 -5 -133 -11 -205 -12 -137 -3 -240 -17 -315 -43 -49
-17 -70 -18 -115 -8 -29 7 -29 7 -10 -9 17 -13 18 -17 5 -26 -20 -13 -77 -13
-197 1 -90 10 -103 9 -158 -10 -32 -12 -67 -21 -77 -21 -9 0 -33 -9 -53 -21
l-35 -21 -21 26 c-11 14 -25 26 -32 26 -6 0 2 -14 19 -31 28 -30 28 -31 10
-45 -11 -8 -34 -15 -50 -15 -47 -2 -67 -6 -115 -24 -33 -12 -62 -14 -115 -10
l-71 7 30 -26 c35 -30 112 -35 159 -11 15 8 53 15 82 15 39 0 56 4 60 15 4 8
17 15 29 15 13 0 26 4 29 9 11 16 92 51 120 51 14 0 37 7 50 15 20 13 54 15
192 13 146 -3 173 -1 201 15 18 9 42 17 55 17 13 0 32 7 42 15 11 9 42 15 70
15 28 0 70 5 94 10 34 8 54 7 90 -5 26 -9 51 -20 57 -24 19 -15 65 -18 152
-10 49 4 104 5 123 1 41 -9 90 -4 90 8 0 4 -73 10 -162 12 -158 3 -195 9 -182
29 10 16 496 10 552 -7 52 -15 102 -18 102 -6 0 4 -25 20 -55 36 -48 24 -74
29 -183 37 -146 10 -160 9 -262 -3z"/>
<path d="M8910 5520 c0 -5 4 -10 9 -10 6 0 18 -13 27 -29 20 -33 52 -51 94
-51 68 0 40 37 -60 77 -62 26 -70 27 -70 13z"/>
<path d="M4734 5483 c-5 -16 -9 -71 -9 -123 0 -93 0 -95 -27 -108 -22 -10 -28
-20 -28 -45 0 -18 7 -41 15 -51 9 -12 15 -42 15 -72 0 -29 5 -56 10 -59 6 -3
10 -19 10 -35 0 -17 9 -38 22 -50 17 -16 19 -23 10 -32 -19 -19 -14 -30 7 -18
16 8 23 6 35 -12 9 -12 16 -27 16 -33 0 -6 20 -31 44 -57 44 -46 48 -58 16
-58 -18 0 -67 47 -84 82 -6 12 -27 33 -45 45 -37 25 -67 68 -73 102 -3 25 -21
30 -26 7 -2 -8 6 -24 17 -35 12 -12 21 -28 21 -37 0 -9 17 -45 39 -78 21 -34
40 -71 42 -81 2 -11 14 -24 27 -30 18 -8 22 -15 17 -34 -7 -28 37 -81 67 -81
33 0 31 -27 -4 -65 -18 -20 -48 -52 -65 -71 -53 -57 -43 -70 22 -29 22 13 54
25 72 25 27 0 33 5 43 35 14 43 15 70 8 215 -8 141 -11 150 -52 150 -36 1 -74
29 -110 82 -31 46 -32 54 -50 258 -2 19 0 40 5 45 19 25 36 105 34 165 -2 36
2 70 7 77 13 16 2 33 -22 33 -11 0 -21 -11 -26 -27z"/>
<path d="M5501 5498 c-19 -5 -43 -16 -54 -23 -14 -10 -40 -12 -93 -8 -52 4
-74 3 -74 -6 0 -6 5 -11 10 -11 6 0 10 -7 10 -15 0 -9 -14 -17 -37 -21 -21 -3
-56 -17 -78 -29 -22 -13 -57 -26 -78 -30 -43 -8 -41 -21 5 -28 43 -7 137 19
166 46 16 15 37 22 66 22 24 0 49 5 57 11 8 7 30 15 49 19 58 11 100 34 100
55 0 25 -9 29 -49 18z"/>
<path d="M5110 5460 c0 -28 28 -37 48 -16 15 15 15 18 2 26 -26 17 -50 12 -50
-10z"/>
<path d="M8170 5447 c0 -8 18 -52 41 -97 37 -76 42 -81 57 -67 14 15 13 21
-13 72 -16 30 -32 55 -36 55 -4 0 -9 10 -11 22 -3 25 -38 38 -38 15z"/>
<path d="M7260 5431 c-16 -30 -14 -31 50 -31 64 0 74 9 38 34 -31 22 -75 20
-88 -3z"/>
<path d="M8786 5442 c-7 -11 20 -62 45 -85 11 -10 17 -22 14 -27 -3 -5 -1 -12
5 -15 20 -12 60 -84 60 -107 1 -21 2 -22 14 -5 16 21 51 22 90 2 37 -19 38
-19 34 7 -2 13 -11 24 -23 27 -11 2 -36 16 -56 32 -20 16 -42 29 -47 29 -23 0
-21 20 2 26 17 4 31 1 41 -10 19 -19 69 -22 63 -4 -3 7 -17 15 -32 19 -15 4
-34 13 -43 21 -8 7 -28 11 -44 10 -16 -2 -29 1 -29 8 0 13 -66 80 -79 80 -5 0
-12 -4 -15 -8z"/>
<path d="M4528 5399 c-43 -45 -44 -48 -21 -92 l16 -32 13 38 c7 20 20 47 29
59 16 24 20 54 8 61 -5 3 -25 -13 -45 -34z"/>
<path d="M8056 5401 c-5 -34 -1 -47 25 -87 18 -25 46 -52 63 -59 17 -7 40 -23
50 -34 19 -20 19 -22 1 -41 -18 -19 -18 -21 -1 -33 14 -11 17 -23 13 -58 -2
-24 -8 -55 -12 -69 -7 -24 -6 -24 19 5 14 17 33 38 42 47 13 13 17 32 15 74
-2 60 -17 81 -72 107 -35 16 -89 80 -89 105 0 11 -7 25 -15 32 -8 7 -15 21
-15 31 0 35 -17 20 -24 -20z"/>
<path d="M6980 5416 c0 -16 57 -32 82 -24 15 5 -13 22 -54 32 -21 5 -28 3 -28
-8z"/>
<path d="M4837 5414 c-10 -10 4 -34 20 -34 12 0 13 -13 9 -72 -4 -40 -9 -81
-12 -91 -5 -17 25 -107 37 -107 3 0 16 11 29 25 21 22 22 29 12 45 -14 24 -15
63 -2 109 11 39 -10 90 -41 98 -10 3 -19 12 -19 19 0 14 -21 19 -33 8z"/>
<path d="M4980 5411 c0 -6 5 -13 10 -16 6 -3 10 -24 10 -46 0 -49 25 -54 33
-6 3 23 -1 38 -16 55 -21 23 -37 29 -37 13z"/>
<path d="M8389 5408 c-7 -66 -6 -99 2 -91 13 13 20 103 8 103 -5 0 -10 -6 -10
-12z"/>
<path d="M7500 5380 c-24 -8 -23 -8 8 -9 20 -1 31 3 27 9 -3 6 -7 10 -8 9 -1
-1 -13 -5 -27 -9z"/>
<path d="M6808 5374 c-11 -10 -146 -31 -181 -28 -187 17 -226 16 -278 -2 -97
-35 -174 -79 -177 -102 -2 -12 -2 -22 1 -22 10 0 67 32 72 41 4 5 13 9 22 9 9
0 24 7 34 16 15 13 48 16 219 15 111 0 204 -3 209 -5 11 -7 154 13 164 23 5 5
-5 13 -22 19 -17 6 -30 17 -29 23 3 14 -24 24 -34 13z"/>
<path d="M7341 5337 c-12 -15 -5 -27 16 -27 7 0 13 9 13 20 0 23 -13 26 -29 7z"/>
<path d="M8546 5325 c-6 -17 17 -31 34 -20 8 5 8 11 -1 21 -15 18 -25 18 -33
-1z"/>
<path d="M6980 5322 c0 -14 11 -21 26 -15 21 8 17 23 -6 23 -11 0 -20 -4 -20
-8z"/>
<path d="M7080 5321 c0 -14 56 -24 82 -15 22 7 22 7 3 15 -28 11 -85 11 -85 0z"/>
<path d="M7588 5298 c-3 -20 -11 -24 -58 -30 -30 -3 -92 -6 -138 -7 -58 -1
-81 -4 -76 -12 3 -6 21 -9 38 -6 38 5 56 0 56 -19 0 -21 -93 -19 -111 2 -17
20 -68 13 -108 -15 -16 -12 -38 -21 -49 -21 -32 0 -74 -19 -67 -30 10 -16 56
-12 117 10 44 15 71 18 116 14 39 -4 76 -1 113 9 30 8 80 18 111 22 56 6 58 6
68 -20 7 -20 16 -26 33 -23 18 2 23 10 25 47 2 27 10 50 20 59 15 12 12 13
-25 8 -38 -6 -43 -4 -43 14 0 27 -18 25 -22 -2z"/>
<path d="M5950 5288 c24 -19 85 -24 110 -8 22 14 11 17 -64 22 -67 4 -68 4
-46 -14z"/>
<path d="M5060 5291 c0 -12 27 -17 68 -13 50 6 38 22 -18 22 -27 0 -50 -4 -50
-9z"/>
<path d="M5743 5279 c-6 -6 -39 -21 -73 -33 -53 -20 -59 -24 -39 -29 33 -8 99
-1 112 12 16 16 89 13 111 -4 11 -8 37 -15 58 -15 21 0 49 -7 61 -14 36 -24
101 -31 116 -13 10 13 8 18 -19 32 -18 9 -38 14 -45 11 -7 -2 -42 4 -77 15
-34 10 -79 19 -99 19 -19 0 -44 7 -55 15 -23 17 -36 19 -51 4z"/>
<path d="M8577 5279 c-22 -13 -14 -46 17 -71 28 -23 48 -22 64 2 7 11 9 20 5
20 -5 0 -14 14 -21 30 -14 31 -34 37 -65 19z"/>
<path d="M9080 5265 c-8 -9 -8 -15 -2 -15 18 0 42 12 42 21 0 14 -26 10 -40
-6z"/>
<path d="M8300 5256 c0 -8 5 -18 10 -21 6 -3 10 3 10 14 0 12 -4 21 -10 21 -5
0 -10 -6 -10 -14z"/>
<path d="M6564 5248 c-8 -12 8 -37 26 -43 39 -12 140 19 140 43 0 10 -160 10
-166 0z"/>
<path d="M6442 5238 c-8 -8 -8 -17 -1 -30 5 -10 8 -22 5 -27 -6 -10 50 -21
107 -21 20 0 37 5 37 10 0 6 -5 10 -11 10 -5 0 -31 16 -56 35 -49 38 -63 41
-81 23z"/>
<path d="M6278 5228 c-9 -7 -21 -29 -27 -49 -12 -37 -61 -92 -77 -87 -13 4
-13 -13 -1 -39 13 -29 21 -29 45 2 11 14 29 25 40 25 27 0 34 14 38 64 2 23 6
53 10 69 7 29 -3 34 -28 15z"/>
<path d="M6970 5230 c-12 -8 -9 -10 13 -10 15 0 27 5 27 10 0 13 -20 13 -40 0z"/>
<path d="M4488 5199 c-6 -38 1 -79 13 -79 5 0 9 25 9 55 0 59 -15 75 -22 24z"/>
<path d="M5144 5199 c-4 -7 -21 -9 -42 -6 -39 7 -72 -6 -72 -28 0 -17 4 -18
75 -15 55 2 75 13 75 41 0 21 -25 26 -36 8z"/>
<path d="M5327 5169 c-20 -5 -47 -15 -60 -23 -12 -9 -47 -21 -77 -27 -43 -9
-51 -14 -35 -20 11 -4 47 -8 80 -9 34 0 68 -7 78 -15 11 -7 38 -16 60 -20 23
-3 71 -16 106 -27 67 -21 102 -18 171 19 14 7 50 17 80 23 30 6 68 14 83 17
16 3 38 1 50 -5 12 -5 35 -15 51 -21 21 -9 27 -17 23 -31 -6 -25 -2 -25 24 1
l20 20 -20 32 c-22 36 -19 35 -206 36 -97 0 -116 -3 -159 -24 -28 -14 -59 -25
-70 -25 -18 0 -18 1 -2 19 10 11 31 23 47 26 17 4 29 13 29 22 0 18 -55 14
-106 -7 -39 -17 -76 -7 -89 22 -12 26 -26 30 -78 17z"/>
<path d="M6335 5169 c-11 -17 1 -21 46 -14 29 5 38 10 28 16 -19 12 -66 11
-74 -2z"/>
<path d="M8947 5173 c-14 -13 -6 -22 21 -25 19 -2 28 -9 30 -24 3 -24 48 -71
58 -61 4 4 2 13 -5 20 -17 21 -3 47 25 47 13 0 24 5 24 10 0 16 -33 26 -38 12
-6 -19 -31 -14 -44 8 -12 19 -57 28 -71 13z"/>
<path d="M6745 5158 c-16 -6 -36 -12 -43 -14 -7 -2 -10 -9 -7 -15 4 -6 35 -9
73 -8 62 2 195 -18 267 -41 17 -5 48 -12 70 -16 22 -4 50 -14 62 -22 22 -14
53 -11 53 5 -1 12 -96 53 -124 53 -14 0 -28 5 -31 10 -3 6 -14 10 -23 10 -9 0
-30 7 -46 15 -17 9 -56 15 -97 15 -39 0 -69 4 -69 10 0 12 -45 11 -85 -2z"/>
<path d="M8550 5164 c0 -3 8 -22 17 -41 11 -25 13 -40 6 -51 -15 -24 -31 -25
-38 -3 -6 20 -7 20 -31 -6 -33 -36 -30 -86 5 -91 15 -2 28 3 33 12 10 18 48
22 48 6 0 -6 -11 -15 -25 -20 -14 -5 -25 -14 -25 -20 0 -5 -8 -10 -18 -10 -10
0 -29 -11 -42 -25 l-23 -25 21 0 c13 0 40 11 62 25 23 14 55 25 74 25 19 0 38
5 41 10 3 6 16 10 29 10 12 0 31 6 42 14 19 14 19 15 0 29 -18 13 -18 15 -1
40 17 26 17 27 -4 27 -12 0 -21 6 -21 15 0 8 -6 16 -12 17 -7 0 -18 2 -24 2
-20 2 -44 28 -44 47 0 15 -7 19 -35 19 -19 0 -35 -3 -35 -6z"/>
<path d="M7347 5103 c18 -2 50 -2 70 0 21 2 7 4 -32 4 -38 0 -55 -2 -38 -4z"/>
<path d="M7583 5103 c15 -2 39 -2 55 0 15 2 2 4 -28 4 -30 0 -43 -2 -27 -4z"/>
<path d="M4795 5090 c-19 -30 20 -121 80 -182 45 -48 55 -38 53 47 l-2 75 -35
10 c-19 5 -46 21 -61 35 -19 18 -30 23 -35 15z"/>
<path d="M8415 5081 c-3 -7 -14 -10 -23 -9 -11 2 -18 -5 -20 -19 -3 -18 1 -22
25 -20 17 1 31 10 36 21 9 22 -7 45 -18 27z"/>
<path d="M4993 5064 c-11 -29 45 -44 92 -24 17 7 15 9 -11 9 -17 1 -37 8 -44
16 -16 19 -29 19 -37 -1z"/>
<path d="M7415 5050 c-4 -6 5 -10 20 -10 15 0 24 4 20 10 -3 6 -12 10 -20 10
-8 0 -17 -4 -20 -10z"/>
<path d="M7673 5054 c-7 -3 -13 -12 -13 -20 0 -11 9 -14 33 -12 20 2 32 8 32
18 0 15 -30 23 -52 14z"/>
<path d="M7963 5033 c-19 -7 -16 -48 5 -66 10 -10 22 -14 25 -10 14 13 4 84
-12 82 -3 0 -12 -3 -18 -6z"/>
<path d="M5231 5012 c-14 -10 -47 -17 -80 -19 -90 -3 -88 -2 -66 -15 11 -6 25
-16 30 -23 6 -6 30 -15 55 -19 41 -6 48 -4 79 25 19 17 45 35 58 40 13 5 21
13 18 19 -10 16 -67 11 -94 -8z"/>
<path d="M8803 5014 c-7 -20 11 -38 32 -30 13 4 14 10 5 26 -13 24 -28 26 -37
4z"/>
<path d="M6026 4978 c4 -18 7 -50 6 -70 -3 -42 12 -51 24 -15 15 46 1 117 -22
117 -12 0 -14 -7 -8 -32z"/>
<path d="M6270 4995 c0 -14 130 -163 155 -177 7 -5 23 1 38 12 30 24 30 24 74
3 25 -12 33 -21 30 -35 -3 -10 -2 -18 1 -18 4 -1 62 -3 130 -6 103 -5 126 -3
141 10 13 12 46 16 146 18 96 3 121 6 97 12 -18 5 -37 16 -42 26 -10 18 -59
21 -93 6 -13 -6 -25 -2 -41 13 -29 27 -42 27 -62 -4 -19 -29 -71 -35 -80 -10
-4 8 -14 15 -23 15 -21 0 -41 19 -41 40 0 17 -52 70 -70 70 -7 0 -26 -10 -42
-22 l-30 -21 26 -14 c15 -8 31 -25 36 -39 6 -14 18 -24 29 -24 25 0 37 -18 22
-33 -20 -20 -102 9 -134 48 -15 18 -45 39 -65 46 -20 7 -47 23 -59 35 -13 14
-34 24 -50 24 -16 0 -36 9 -46 20 -20 23 -47 26 -47 5z"/>
<path d="M6513 4995 c-7 -21 -4 -23 45 -31 35 -5 42 -4 42 10 0 30 -76 48 -87
21z"/>
<path d="M6915 5000 c-12 -19 15 -30 72 -30 51 0 77 13 48 24 -37 14 -113 18
-120 6z"/>
<path d="M7336 4992 c-9 -15 74 -25 104 -13 23 9 22 10 -15 11 -22 0 -50 3
-61 6 -12 3 -25 1 -28 -4z"/>
<path d="M8328 4983 c-16 -8 -28 -18 -28 -23 0 -4 -3 -15 -6 -23 -8 -23 19
-27 67 -11 59 21 66 29 44 54 -21 23 -39 24 -77 3z"/>
<path d="M8963 4993 c-37 -7 -47 -28 -28 -57 17 -25 30 -30 67 -27 24 3 31
-17 11 -29 -16 -11 -18 -27 -15 -166 3 -124 0 -160 -11 -178 -11 -16 -16 -66
-20 -192 -5 -162 -12 -204 -43 -267 -8 -16 -14 -35 -14 -42 0 -14 -32 -68 -68
-115 -11 -14 -23 -36 -27 -50 -7 -24 -19 -39 -72 -97 -13 -13 -23 -31 -23 -40
0 -11 -6 -14 -24 -9 -20 5 -24 1 -30 -26 -3 -17 -14 -40 -22 -50 -12 -12 -15
-27 -10 -49 4 -20 1 -35 -8 -45 -8 -8 -18 -34 -21 -57 -5 -34 -18 -55 -60 -99
-44 -46 -58 -55 -79 -51 -14 3 -26 12 -26 19 0 8 -7 31 -16 52 -14 33 -17 35
-24 17 -15 -35 -11 -97 6 -117 13 -13 14 -21 6 -31 -9 -10 -9 -16 0 -25 8 -8
7 -15 -4 -26 -9 -8 -18 -44 -22 -85 -5 -59 -3 -75 12 -101 10 -16 22 -27 25
-23 4 3 19 -4 33 -18 31 -28 144 -156 194 -220 49 -61 189 -196 223 -213 34
-18 60 -35 66 -43 8 -11 78 -63 86 -63 13 0 -51 70 -65 70 -8 0 -28 14 -44 30
-16 16 -37 32 -47 35 -11 4 -19 10 -19 15 0 5 -16 18 -36 30 -19 12 -33 28
-31 34 3 6 -16 32 -40 56 -25 25 -55 67 -68 93 -13 27 -30 56 -40 65 -9 9 -41
55 -71 102 -40 63 -54 94 -54 122 0 33 -3 37 -27 40 -22 2 -29 9 -31 31 -2 19
1 27 13 27 22 0 65 48 65 74 1 29 20 51 53 60 16 4 31 17 37 30 5 13 13 27 18
30 5 3 13 22 17 43 4 20 13 46 21 57 8 11 14 35 14 53 0 18 4 41 9 51 5 9 12
25 15 35 3 9 14 17 24 17 22 0 42 19 42 41 0 9 23 47 52 85 62 83 108 174 108
214 0 16 4 31 9 35 18 10 44 120 47 198 2 43 8 85 13 95 4 9 5 46 1 82 -5 40
-5 72 2 84 6 10 12 85 15 165 3 86 11 164 19 190 13 40 13 49 -3 93 -18 50
-23 52 -80 41z"/>
<path d="M7170 4960 c0 -6 8 -10 18 -10 10 0 26 -6 37 -14 11 -7 43 -16 70
-20 46 -6 49 -5 30 9 -30 24 -155 52 -155 35z"/>
<path d="M7700 4960 c-12 -8 -12 -10 2 -15 20 -8 41 2 33 16 -8 11 -16 11 -35
-1z"/>
<path d="M8096 4944 c-10 -27 -7 -64 7 -64 27 0 35 20 20 51 -17 34 -19 35
-27 13z"/>
<path d="M5930 4925 c0 -14 5 -25 10 -25 6 0 10 11 10 25 0 14 -4 25 -10 25
-5 0 -10 -11 -10 -25z"/>
<path d="M6217 4913 c-7 -6 84 -133 95 -133 4 0 8 9 8 20 0 11 -4 20 -8 20 -4
0 -21 20 -36 44 -27 43 -48 60 -59 49z"/>
<path d="M5633 4903 c-24 -9 -13 -24 15 -21 15 2 26 8 25 13 -2 12 -23 16 -40
8z"/>
<path d="M7075 4900 c-3 -5 3 -10 15 -10 12 0 18 5 15 10 -3 6 -10 10 -15 10
-5 0 -12 -4 -15 -10z"/>
<path d="M8870 4890 c0 -5 -18 -10 -39 -10 -59 0 -145 -75 -186 -162 -20 -43
-15 -68 14 -68 15 0 27 14 43 48 21 42 28 48 66 56 51 11 60 4 87 -68 12 -33
16 -62 11 -92 -5 -41 -4 -44 18 -44 33 0 44 17 54 83 7 41 5 72 -4 109 -8 29
-14 58 -14 65 0 19 -34 93 -42 93 -5 0 -8 -4 -8 -10z"/>
<path d="M5891 4869 c-11 -12 -23 -31 -27 -41 -4 -14 -16 -18 -59 -18 -38 0
-54 4 -59 15 -9 24 -45 18 -116 -18 -59 -31 -65 -37 -66 -66 -1 -37 -47 -91
-77 -91 -16 0 -18 6 -15 30 3 17 1 33 -4 36 -19 12 -5 35 32 54 38 19 51 42
31 55 -13 7 -63 -16 -78 -36 -21 -28 -70 -42 -129 -36 -41 4 -56 2 -60 -8 -3
-7 -16 -16 -29 -19 -29 -7 -67 -56 -91 -114 -14 -37 -15 -45 -3 -53 21 -14 79
-3 94 18 10 13 27 18 63 18 62 0 77 11 27 21 l-37 7 41 24 c44 26 61 24 61 -8
0 -17 8 -19 83 -19 53 0 88 5 95 12 8 8 52 15 110 18 77 4 97 8 97 20 0 11
-16 17 -54 22 -29 3 -60 13 -68 20 -12 13 -10 19 22 46 38 34 72 40 105 20 16
-10 22 -10 33 6 12 16 14 16 26 2 9 -10 22 -14 40 -10 24 5 24 4 9 -9 -10 -8
-18 -26 -18 -40 0 -14 -6 -27 -12 -30 -7 -2 5 -8 27 -12 45 -9 96 -32 107 -49
4 -6 8 -23 8 -39 0 -26 1 -27 43 -21 77 11 74 2 40 111 -18 57 -9 83 28 83 11
0 19 5 19 10 0 6 -15 10 -33 10 -26 0 -41 -8 -66 -35 -35 -38 -55 -43 -89 -19
-21 15 -29 44 -16 57 12 12 9 90 -3 94 -6 2 -21 -6 -32 -18z"/>
<path d="M8381 4865 c-26 -28 -49 -32 -57 -10 -8 21 -30 19 -47 -5 -17 -24
-132 -55 -297 -81 -36 -5 -90 -14 -120 -20 -62 -10 -325 -38 -383 -40 -34 -1
-67 -19 -67 -37 0 -12 50 -62 61 -62 6 0 19 5 30 11 12 6 51 12 88 14 37 3 81
9 97 16 16 6 54 15 84 19 30 4 84 19 120 32 69 27 117 27 156 1 18 -11 25 -11
50 2 16 8 37 15 46 15 9 0 20 5 23 10 4 6 30 22 58 37 29 14 57 33 63 41 15
20 44 8 44 -18 0 -13 7 -20 18 -20 20 0 52 29 52 48 0 6 10 21 22 32 19 18 20
22 8 30 -21 13 -22 13 -49 -15z"/>
<path d="M7390 4854 c0 -42 -134 -53 -169 -13 -22 27 -44 25 -36 -3 12 -38 20
-41 118 -39 73 1 97 -2 107 -14 16 -19 100 -21 100 -2 0 17 -36 50 -77 71 -40
20 -43 20 -43 0z"/>
<path d="M5316 4852 c-2 -4 1 -15 8 -24 10 -13 22 -16 50 -11 34 5 54 18 44
29 -9 8 -97 14 -102 6z"/>
<path d="M6470 4770 c-8 -5 -32 -10 -52 -10 -21 0 -38 -4 -38 -10 0 -17 107
-12 124 6 9 8 16 17 16 20 0 8 -35 4 -50 -6z"/>
<path d="M7336 4752 c-13 -12 -5 -22 19 -22 14 0 25 4 25 9 0 10 -36 21 -44
13z"/>
<path d="M6940 4739 c-14 -6 -85 -13 -158 -16 -87 -4 -138 -11 -150 -19 -16
-13 -15 -14 6 -20 12 -3 22 -13 22 -20 0 -20 33 -17 63 6 27 22 47 26 47 10 0
-5 -7 -10 -15 -10 -9 0 -15 -9 -15 -24 0 -15 -13 -33 -37 -52 -35 -26 -35 -28
-14 -35 12 -5 24 -15 27 -24 10 -26 24 -17 24 16 0 37 46 107 76 115 48 13 68
1 76 -43 7 -43 30 -89 57 -110 38 -32 155 -2 183 47 18 32 45 39 54 16 3 -8
20 -18 37 -21 18 -4 49 -18 69 -31 21 -13 43 -24 50 -24 7 0 28 -9 45 -20 18
-11 39 -17 48 -14 18 7 20 35 4 51 -6 6 -14 26 -18 45 -4 18 -13 32 -19 31
-29 -6 -198 73 -281 133 -27 19 -46 24 -95 23 -34 0 -72 -5 -86 -10z m126 -94
c4 -8 3 -22 0 -31 -5 -14 -10 -12 -31 10 -14 15 -25 29 -25 32 0 12 51 2 56
-11z"/>
<path d="M6307 4723 c-12 -11 -8 -43 9 -68 12 -19 25 -25 53 -25 20 0 53 -3
74 -7 37 -6 39 -8 35 -37 -3 -17 -7 -37 -9 -45 -5 -18 68 -33 91 -19 8 6 23
28 33 49 26 54 11 74 -49 65 -32 -4 -44 -2 -48 9 -4 11 2 15 19 15 13 0 26 4
30 9 7 12 -96 25 -130 17 -21 -5 -27 -2 -35 19 -7 19 -17 25 -38 25 -16 0 -32
-3 -35 -7z"/>
<path d="M5510 4710 c0 -5 7 -10 15 -10 8 0 15 5 15 10 0 6 -7 10 -15 10 -8 0
-15 -4 -15 -10z"/>
<path d="M8290 4690 c-8 -5 -11 -12 -8 -16 10 -9 38 3 38 16 0 12 -10 13 -30
0z"/>
<path d="M5087 4683 c-4 -3 -7 -15 -7 -26 0 -16 3 -17 15 -7 8 7 15 19 15 26
0 15 -12 19 -23 7z"/>
<path d="M5736 4603 c-60 -3 -93 -8 -103 -18 -10 -11 -38 -15 -97 -15 -52 0
-97 -6 -119 -15 -20 -8 -59 -15 -86 -15 -53 0 -72 -13 -44 -29 14 -8 16 -12 6
-22 -7 -7 -13 -25 -13 -39 0 -16 -11 -36 -31 -53 -17 -15 -33 -27 -35 -27 -12
0 -1 55 13 66 32 23 3 29 -35 8 -27 -16 -41 -33 -52 -65 -9 -24 -24 -59 -34
-78 -21 -40 -11 -56 28 -41 15 5 43 10 61 10 25 0 37 6 46 23 6 12 25 36 43
54 17 17 37 38 44 47 9 11 29 16 64 16 41 0 49 3 40 12 -18 18 -14 53 8 73 20
18 21 18 45 -5 14 -13 25 -29 25 -36 0 -23 48 -44 101 -44 50 0 55 3 96 46 29
32 43 56 43 75 0 34 13 43 39 29 25 -13 45 -78 30 -96 -19 -23 1 -34 56 -34
30 0 65 -4 79 -10 16 -6 27 -6 31 1 11 18 25 -2 25 -36 0 -34 -14 -54 -25 -35
-12 19 -20 10 -21 -25 0 -20 -10 -49 -23 -66 -27 -37 -21 -80 14 -103 29 -19
32 -15 41 55 4 32 16 67 30 85 12 17 32 60 44 95 31 90 36 97 78 109 59 16 96
12 138 -16 48 -32 184 -170 184 -187 0 -19 67 -80 79 -73 22 14 10 51 -33 105
-24 31 -46 66 -50 78 -4 13 -25 42 -47 65 -21 23 -39 47 -39 54 0 16 -29 23
-126 30 -69 6 -87 4 -128 -15 -27 -11 -54 -21 -60 -21 -6 0 -24 -7 -39 -15
-16 -8 -59 -16 -95 -17 -62 -3 -67 -1 -70 18 -4 29 23 54 58 54 16 0 32 5 36
12 13 20 -27 38 -80 36 -28 -1 -91 -4 -140 -5z"/>
<path d="M8516 4601 c-9 -13 3 -39 20 -45 17 -6 29 17 20 39 -6 17 -32 20 -40
6z"/>
<path d="M8400 4565 c0 -15 4 -24 10 -20 6 3 10 12 10 20 0 8 -4 17 -10 20 -6
4 -10 -5 -10 -20z"/>
<path d="M7476 4571 c-3 -5 -1 -32 5 -60 l11 -51 58 1 c74 1 130 -16 130 -40
0 -23 44 -71 65 -71 26 0 16 27 -22 59 -33 27 -36 34 -26 50 10 17 9 20 -15
26 -15 4 -52 24 -83 45 -58 39 -113 58 -123 41z"/>
<path d="M4750 4510 c0 -5 -5 -10 -12 -10 -22 0 -77 -44 -82 -66 -3 -12 -9
-30 -13 -40 -4 -11 6 -6 25 14 17 17 34 32 37 32 7 0 45 39 45 46 0 4 8 13 18
20 16 13 16 13 0 14 -10 0 -18 -4 -18 -10z"/>
<path d="M5130 4501 c-12 -23 -13 -51 -2 -51 4 1 21 12 37 25 25 21 28 27 15
35 -23 15 -38 12 -50 -9z"/>
<path d="M8558 4495 c-16 -14 -28 -32 -28 -40 0 -8 -4 -15 -10 -15 -5 0 -10
14 -10 30 0 32 -14 40 -24 15 -9 -24 5 -77 28 -110 30 -41 66 -112 66 -131 0
-11 6 -13 22 -8 17 5 27 -1 48 -26 26 -32 28 -32 63 -21 30 10 42 22 62 65 14
29 25 57 25 61 0 5 10 28 21 52 24 50 20 62 -15 43 -17 -8 -26 -23 -28 -43 -2
-23 -10 -33 -30 -39 -23 -8 -34 -5 -63 17 -39 30 -45 46 -16 38 26 -7 31 7 19
55 -19 75 -82 103 -130 57z"/>
<path d="M7730 4495 c0 -8 9 -15 20 -15 11 0 20 7 20 15 0 8 -9 15 -20 15 -11
0 -20 -7 -20 -15z"/>
<path d="M8307 4470 c-6 -24 19 -48 34 -33 7 7 7 17 -3 32 -16 26 -24 27 -31
1z"/>
<path d="M8223 4433 c-15 -5 -17 -39 -4 -48 13 -7 35 35 24 45 -4 4 -14 5 -20
3z"/>
<path d="M8285 4390 c16 -32 45 -41 45 -14 0 9 -9 18 -20 21 -11 3 -20 9 -20
14 0 5 -5 9 -10 9 -6 0 -4 -13 5 -30z"/>
<path d="M4978 4394 c-3 -3 -32 -7 -64 -9 -33 -1 -100 -8 -150 -15 l-90 -12
19 -39 c19 -39 19 -39 79 -39 59 0 156 26 170 45 4 5 24 14 45 20 28 8 39 17
41 33 3 17 -2 22 -21 22 -13 0 -26 -3 -29 -6z"/>
<path d="M7560 4372 c0 -10 -5 -23 -11 -29 -15 -15 -3 -34 16 -26 17 6 21 73
5 73 -5 0 -10 -8 -10 -18z"/>
<path d="M7112 4359 c-13 -5 -20 -14 -17 -19 4 -6 1 -17 -5 -25 -17 -21 -3
-19 36 6 54 33 43 61 -14 38z"/>
<path d="M8343 4349 c-15 -15 23 -69 49 -69 23 0 23 10 1 49 -19 33 -32 38
-50 20z"/>
<path d="M6656 4303 c-12 -12 -6 -33 9 -33 8 0 15 6 15 14 0 17 -14 28 -24 19z"/>
<path d="M7426 4282 c-3 -5 -25 -7 -49 -5 -38 5 -47 2 -60 -17 -9 -13 -14 -27
-10 -33 7 -12 75 1 88 17 6 7 24 12 40 12 20 -1 30 4 30 14 0 17 -30 26 -39
12z"/>
<path d="M7790 4284 c-44 -15 -44 -17 -15 -25 35 -10 68 -2 62 14 -4 14 -25
18 -47 11z"/>
<path d="M8291 4258 c9 -7 19 -20 23 -28 3 -8 4 -4 3 10 -1 16 -9 26 -22 28
-18 3 -18 3 -4 -10z"/>
<path d="M6700 4251 c-17 -12 -16 -14 51 -57 61 -39 99 -42 248 -23 123 16
131 18 131 34 0 12 -17 15 -86 15 -47 0 -94 -5 -104 -10 -14 -8 -38 -4 -92 14
-97 32 -130 38 -148 27z"/>
<path d="M5614 4236 c-11 -8 -42 -17 -69 -21 -59 -8 -95 -23 -95 -42 0 -19 23
-16 43 7 12 15 29 20 66 20 31 0 53 5 61 15 7 8 28 15 46 15 19 0 34 5 34 10
0 15 -63 12 -86 -4z"/>
<path d="M8060 4200 c0 -5 9 -10 21 -10 11 0 17 5 14 10 -3 6 -13 10 -21 10
-8 0 -14 -4 -14 -10z"/>
<path d="M5793 4155 c-30 -21 -117 -38 -186 -36 -47 2 -58 -1 -64 -16 -8 -23
-42 -47 -68 -50 -11 -1 -30 -5 -42 -9 -19 -5 -23 -3 -23 17 0 19 -2 21 -10 9
-6 -9 -6 -18 0 -24 15 -15 12 -26 -7 -26 -10 0 -34 -14 -53 -30 l-35 -29 31
-1 c16 0 34 4 40 10 5 5 46 13 89 16 44 3 96 13 115 22 20 9 57 15 87 14 46
-2 54 1 70 25 10 14 37 45 61 68 23 23 39 45 35 48 -9 10 -16 9 -40 -8z"/>
<path d="M8642 4148 c-16 -16 -15 -48 2 -48 20 0 39 27 32 45 -7 18 -18 19
-34 3z"/>
<path d="M7012 4123 c-60 -8 -21 -23 59 -23 83 0 106 13 42 24 -39 6 -43 6
-101 -1z"/>
<path d="M8457 4123 c-4 -3 -7 -16 -7 -28 0 -13 -7 -28 -15 -35 -8 -7 -15 -20
-15 -29 0 -9 -7 -28 -14 -43 -19 -37 -10 -95 18 -113 12 -7 38 -16 60 -20 21
-3 56 -18 77 -32 38 -25 68 -26 70 -1 0 7 1 33 2 58 l2 45 -45 2 c-25 2 -64 5
-87 9 -39 5 -43 8 -43 34 0 16 9 53 20 81 12 29 19 58 16 66 -6 14 -28 18 -39
6z"/>
<path d="M5972 4108 c-1 -10 -15 -33 -32 -51 -24 -27 -30 -44 -30 -78 0 -26
-8 -57 -20 -77 -11 -18 -20 -39 -20 -46 0 -7 -6 -19 -14 -25 -8 -7 -17 -23
-20 -37 -4 -14 -22 -42 -41 -61 -27 -28 -35 -44 -35 -73 0 -20 -4 -40 -8 -46
-5 -5 -15 -29 -22 -54 -7 -25 -20 -52 -27 -61 -8 -10 -11 -27 -7 -45 4 -21 1
-34 -10 -43 -9 -8 -16 -22 -16 -32 0 -22 -52 -52 -74 -43 -11 4 -16 0 -16 -14
0 -12 5 -24 10 -27 17 -11 11 -25 -11 -25 -30 0 -18 -24 15 -28 15 -2 34 2 41
8 11 9 15 7 21 -14 9 -36 -2 -46 -51 -46 -33 0 -50 6 -65 22 -14 15 -23 19
-30 12 -8 -8 -6 -15 4 -23 12 -10 13 -18 4 -37 -9 -19 -9 -33 1 -59 6 -18 9
-45 5 -59 -5 -20 -2 -26 11 -26 14 0 15 -7 10 -44 -5 -28 -3 -46 4 -50 16 -10
13 -37 -5 -51 -13 -9 -14 -16 -6 -32 8 -15 8 -25 -2 -39 -7 -10 -16 -51 -20
-91 -3 -40 -11 -84 -18 -98 -9 -21 -9 -31 0 -46 7 -10 12 -27 12 -37 0 -10 5
-23 11 -29 6 -6 16 -21 23 -32 30 -54 129 -191 138 -191 7 0 8 15 4 38 -4 28
-1 45 12 63 40 57 63 115 63 164 1 45 4 53 35 75 36 27 45 64 19 74 -14 5 -13
12 7 48 29 54 47 69 74 63 25 -6 84 13 84 26 0 21 -49 40 -84 33 -28 -5 -36
-3 -36 8 0 24 22 82 34 90 19 13 -2 20 -22 7 -11 -7 -30 -9 -45 -5 -23 5 -26
10 -21 35 8 37 -13 51 -25 17 -6 -13 -19 -27 -29 -30 -25 -8 -34 -42 -16 -57
11 -9 11 -15 3 -25 -16 -19 -1 -38 17 -23 22 18 28 3 10 -23 -9 -12 -16 -32
-16 -44 0 -12 -7 -27 -15 -34 -9 -7 -15 -29 -15 -51 0 -21 -4 -40 -9 -43 -5
-3 -12 -23 -16 -43 -4 -21 -11 -44 -17 -50 -6 -7 -7 -28 -4 -46 5 -28 1 -39
-27 -70 l-33 -38 -22 23 c-11 13 -31 45 -42 72 l-22 48 21 15 c14 9 21 25 21
45 0 34 25 117 48 163 11 19 16 59 16 119 l1 89 -34 9 c-38 10 -31 25 14 30
23 2 30 8 30 25 0 11 3 25 8 29 4 4 7 20 7 36 0 15 5 28 10 28 6 0 10 11 10
24 0 13 17 43 40 69 22 25 40 50 40 56 0 6 10 11 23 11 21 1 21 1 3 15 -17 13
-17 16 -4 37 8 13 18 40 22 60 4 21 18 51 32 68 23 27 25 34 15 62 -20 58 -9
116 34 168 21 27 45 105 45 150 0 25 7 54 15 64 8 10 12 23 9 28 -3 5 1 15 11
21 12 10 15 25 12 67 -2 30 -4 47 -5 38z m-186 -1449 c10 -17 -13 -36 -27 -22
-12 12 -4 33 11 33 5 0 12 -5 16 -11z m-72 -78 c9 -14 -4 -41 -20 -41 -15 0
-17 10 -8 34 7 18 20 21 28 7z"/>
<path d="M6567 4114 c-12 -12 4 -24 31 -24 20 0 23 -3 14 -12 -22 -22 -13 -30
24 -24 30 6 36 4 41 -12 3 -12 21 -25 44 -32 71 -24 67 15 -5 50 -25 12 -46
25 -46 29 0 8 -60 31 -82 31 -8 0 -18 -3 -21 -6z"/>
<path d="M7720 4091 c0 -12 56 -25 70 -16 6 3 8 11 5 16 -8 12 -75 12 -75 0z"/>
<path d="M8762 4061 c-38 -47 -41 -65 -9 -56 29 9 67 51 67 76 0 30 -24 22
-58 -20z"/>
<path d="M7820 4070 c0 -15 7 -20 25 -20 29 0 32 8 8 26 -25 19 -33 17 -33 -6z"/>
<path d="M6141 4066 c-12 -14 -5 -26 16 -26 15 0 18 26 4 34 -5 3 -14 0 -20
-8z"/>
<path d="M6170 4006 c0 -9 7 -16 16 -16 9 0 14 5 12 12 -6 18 -28 21 -28 4z"/>
<path d="M6230 4005 c0 -8 6 -15 14 -15 8 0 16 7 20 15 4 10 -1 15 -14 15 -11
0 -20 -7 -20 -15z"/>
<path d="M7280 4000 c0 -5 39 -28 86 -51 84 -41 184 -125 184 -155 0 -7 12
-19 28 -26 15 -7 36 -30 47 -51 14 -27 26 -37 40 -35 16 2 19 9 17 33 -4 48
-10 55 -41 55 -20 0 -34 8 -46 28 -10 15 -24 31 -32 35 -7 4 -13 15 -13 23 0
8 -15 21 -33 29 -32 13 -97 71 -97 86 0 4 -13 10 -30 14 -16 4 -32 11 -35 16
-8 12 -75 12 -75 -1z"/>
<path d="M7089 3977 c-22 -9 -23 -10 -4 -15 11 -2 38 -17 59 -33 45 -33 68
-36 86 -13 11 12 10 18 -4 32 -23 23 -107 41 -137 29z"/>
<path d="M5060 3933 c0 -35 28 -97 46 -104 30 -12 33 -11 68 26 19 19 41 35
50 35 9 0 16 5 16 10 0 14 -47 12 -60 -2 -6 -7 -17 -22 -24 -32 -16 -23 -40
-12 -33 15 3 12 -6 26 -29 44 -30 23 -34 24 -34 8z"/>
<path d="M5588 3933 c-10 -2 -18 -9 -18 -14 0 -6 -6 -17 -14 -25 -8 -7 -16
-17 -18 -21 -6 -14 -96 -83 -108 -83 -8 0 -10 10 -7 26 4 25 3 26 -32 19 -45
-8 -47 -11 -56 -64 -7 -42 -6 -43 16 -36 13 4 31 14 40 22 14 12 17 12 22 -2
4 -8 17 -15 30 -15 30 0 177 150 177 180 0 20 -2 21 -32 13z"/>
<path d="M7565 3920 c10 -11 24 -20 32 -20 9 0 7 6 -7 20 -11 11 -25 20 -32
20 -6 0 -3 -9 7 -20z"/>
<path d="M6560 3909 c0 -22 21 -48 69 -85 61 -46 93 -107 91 -173 -1 -25 -1
-50 -1 -54 1 -5 16 1 35 12 l34 21 73 -66 c108 -96 169 -157 174 -174 3 -9 18
-24 35 -33 16 -10 33 -30 37 -45 9 -40 33 -72 53 -72 26 0 98 -78 124 -135 54
-115 66 -145 72 -184 6 -39 8 -41 40 -41 32 0 34 2 34 33 0 17 -7 41 -15 51
-8 10 -12 22 -10 27 3 4 1 10 -5 14 -5 3 -10 21 -10 40 0 19 -5 37 -11 40 -7
5 -5 13 5 24 14 15 12 20 -19 54 -19 21 -35 42 -35 47 0 5 -13 16 -30 25 -16
8 -35 25 -41 37 -11 20 -10 21 35 16 35 -4 46 -2 46 9 0 23 -42 33 -71 16 -25
-15 -28 -14 -72 18 -47 35 -71 73 -65 105 2 15 -3 19 -22 17 -18 -1 -31 7 -43
25 -39 61 -67 93 -140 158 -42 38 -114 109 -159 158 -81 87 -137 125 -185 126
-13 0 -23 -5 -23 -11z"/>
<path d="M7277 3893 c-13 -12 -7 -23 24 -39 38 -19 57 -7 40 25 -11 20 -50 29
-64 14z"/>
<path d="M7622 3881 c4 -13 18 -16 19 -4 0 4 -5 9 -11 12 -7 2 -11 -2 -8 -8z"/>
<path d="M5275 3861 c-3 -10 -14 -26 -25 -36 -44 -39 -11 -47 50 -12 45 25 47
29 24 51 -21 21 -41 20 -49 -3z"/>
<path d="M7380 3870 c0 -5 7 -10 15 -10 8 0 15 5 15 10 0 6 -7 10 -15 10 -8 0
-15 -4 -15 -10z"/>
<path d="M7667 3873 c-13 -12 -7 -33 8 -33 8 0 15 9 15 20 0 20 -11 26 -23 13z"/>
<path d="M8030 3870 c0 -5 6 -10 14 -10 8 0 18 5 21 10 3 6 -3 10 -14 10 -12
0 -21 -4 -21 -10z"/>
<path d="M6412 3789 c2 -6 8 -10 13 -10 5 0 11 4 13 10 2 6 -4 11 -13 11 -9 0
-15 -5 -13 -11z"/>
<path d="M7437 3751 c-6 -26 0 -51 14 -51 11 0 11 27 0 54 -7 19 -8 19 -14 -3z"/>
<path d="M7497 3753 c-20 -20 24 -83 59 -83 21 0 17 17 -12 56 -27 34 -35 39
-47 27z"/>
<path d="M5154 3735 c-8 -19 2 -45 16 -45 5 0 10 14 10 30 0 31 -16 41 -26 15z"/>
<path d="M5226 3714 c-10 -27 -7 -34 19 -34 20 0 25 5 25 25 0 29 -34 36 -44
9z"/>
<path d="M7337 3713 c-12 -11 -8 -23 8 -23 8 0 27 -16 42 -35 15 -19 33 -35
40 -35 7 0 28 -16 47 -35 31 -31 38 -34 61 -25 31 12 28 33 -6 41 -50 12 -69
22 -69 34 0 7 -12 21 -27 31 -16 9 -34 26 -41 36 -13 18 -43 24 -55 11z"/>
<path d="M5300 3695 c0 -8 -11 -25 -25 -39 -16 -16 -25 -36 -25 -56 0 -17 -5
-40 -10 -51 -8 -15 -7 -19 4 -19 8 0 18 9 21 21 11 35 49 21 55 -21 3 -19 11
-35 18 -36 27 -2 32 -4 32 -14 0 -5 -7 -10 -15 -10 -10 0 -15 -10 -15 -29 0
-17 -8 -34 -20 -42 -13 -9 -24 -32 -28 -59 -5 -26 -13 -44 -20 -42 -15 3 -15
-12 -2 -58 9 -35 94 -129 105 -118 3 3 -6 16 -20 29 -23 22 -25 30 -25 122 0
97 0 98 28 109 41 19 70 54 82 101 6 23 16 57 23 74 12 35 4 54 -15 35 -20
-20 -47 -14 -54 13 -7 27 -23 32 -42 13 -17 -17 -24 -6 -29 47 -3 25 -10 45
-14 45 -5 0 -9 -7 -9 -15z"/>
<path d="M7460 3675 c0 -8 5 -15 10 -15 6 0 10 7 10 15 0 8 -4 15 -10 15 -5 0
-10 -7 -10 -15z"/>
<path d="M8466 3625 c-9 -9 -16 -23 -16 -31 0 -17 -22 -18 -38 -2 -9 9 -12 9
-12 -3 0 -8 4 -19 9 -24 5 -6 11 -25 13 -44 2 -19 8 -36 15 -38 13 -5 36 64
26 80 -3 5 1 13 8 18 21 13 67 11 72 -3 8 -19 28 12 25 37 -4 27 -78 34 -102
10z"/>
<path d="M7590 3605 c0 -9 5 -15 11 -13 6 2 11 8 11 13 0 5 -5 11 -11 13 -6 2
-11 -4 -11 -13z"/>
<path d="M6470 3591 c-65 -21 -180 -110 -180 -140 0 -6 16 -11 35 -11 28 0 38
5 47 25 7 16 21 26 42 29 86 13 116 13 142 -1 25 -12 33 -12 66 3 33 15 96 80
87 88 -9 8 -217 14 -239 7z"/>
<path d="M5940 3550 c0 -12 18 -38 40 -60 22 -22 40 -44 40 -50 0 -15 106 -59
128 -53 16 4 19 11 14 49 -3 34 -1 45 12 50 9 3 16 12 16 20 0 19 -16 18 -24
-1 -8 -22 -44 -2 -56 31 -12 29 -32 22 -28 -9 5 -34 -25 -31 -71 8 -48 40 -71
44 -71 15z"/>
<path d="M7632 3548 c3 -7 13 -15 22 -16 12 -3 17 1 14 10 -3 7 -13 15 -22 16
-12 3 -17 -1 -14 -10z"/>
<path d="M8234 3545 c-9 -22 1 -29 15 -11 8 10 9 16 1 21 -5 3 -13 -1 -16 -10z"/>
<path d="M7527 3524 c-7 -12 33 -51 57 -56 31 -5 30 21 -1 28 -15 4 -33 14
-39 22 -6 8 -14 11 -17 6z"/>
<path d="M7310 3486 c0 -9 7 -16 16 -16 9 0 14 5 12 12 -6 18 -28 21 -28 4z"/>
<path d="M8185 3491 c-6 -11 9 -23 19 -14 9 9 7 23 -3 23 -6 0 -12 -4 -16 -9z"/>
<path d="M6622 3438 c4 -28 42 -37 52 -13 9 24 -1 35 -30 35 -21 0 -25 -4 -22
-22z"/>
<path d="M5910 3431 c-23 -7 -22 -8 13 -15 42 -8 81 0 72 15 -7 10 -48 10 -85
0z"/>
<path d="M6520 3415 c-12 -22 -12 -28 3 -42 15 -15 17 -15 23 3 4 10 12 22 17
25 13 9 1 39 -16 39 -7 0 -20 -11 -27 -25z"/>
<path d="M7550 3404 c0 -12 45 -54 58 -54 21 0 13 27 -13 44 -25 16 -45 21
-45 10z"/>
<path d="M6370 3390 c-48 -28 -91 -41 -141 -41 -32 -1 -63 2 -69 6 -6 4 -27 4
-46 1 -24 -5 -34 -12 -34 -26 0 -10 -11 -32 -25 -48 -14 -17 -25 -34 -25 -38
0 -5 4 -4 8 2 23 35 127 57 162 34 12 -8 13 -12 2 -19 -19 -12 -24 -118 -7
-158 8 -18 16 -33 19 -33 3 0 5 32 4 70 0 55 5 82 23 120 34 72 70 78 100 18
18 -38 39 -48 39 -19 0 11 4 23 10 26 5 3 7 25 3 50 -4 32 -2 45 6 45 7 0 9 5
6 10 -7 12 -15 12 -35 0z"/>
<path d="M6022 3368 c-7 -7 -12 -17 -12 -23 0 -5 -9 -16 -20 -23 -12 -7 -18
-17 -15 -22 10 -16 33 -11 39 8 3 9 19 23 36 30 16 8 30 20 30 28 0 17 -41 19
-58 2z"/>
<path d="M6410 3350 c0 -12 7 -20 16 -20 9 0 18 -10 21 -21 6 -21 6 -21 18 2
11 20 10 25 -10 41 -30 23 -45 23 -45 -2z"/>
<path d="M6605 3339 c-4 -6 -4 -13 -1 -16 8 -8 36 5 36 17 0 13 -27 13 -35 -1z"/>
<path d="M6800 3332 c0 -17 37 -48 47 -38 3 3 -2 12 -11 21 -9 9 -16 21 -16
26 0 5 -4 9 -10 9 -5 0 -10 -8 -10 -18z"/>
<path d="M5366 3332 c-8 -13 -11 -91 -4 -98 15 -15 28 11 28 57 0 44 -11 62
-24 41z"/>
<path d="M6500 3312 c0 -10 -5 -23 -12 -30 -9 -9 -8 -12 4 -12 21 0 42 26 34
45 -8 21 -26 19 -26 -3z"/>
<path d="M6717 3312 c-3 -4 -3 -29 0 -55 5 -39 10 -50 30 -58 13 -5 34 -20 46
-33 16 -17 27 -22 38 -16 11 8 12 13 1 27 -6 10 -16 27 -21 39 -5 12 -23 36
-40 55 -17 18 -31 37 -31 41 0 10 -17 10 -23 0z"/>
<path d="M6895 3295 c-4 -11 -11 -28 -16 -37 -6 -12 -6 -18 1 -18 5 0 10 5 10
10 0 6 7 10 15 10 17 0 19 18 5 40 -7 12 -10 11 -15 -5z"/>
<path d="M5931 3276 c-16 -19 -10 -51 9 -51 17 0 26 43 12 57 -5 5 -14 3 -21
-6z"/>
<path d="M6598 3272 c-35 -21 -36 -47 -2 -64 15 -7 35 -29 46 -48 10 -19 24
-35 30 -35 17 0 22 33 10 59 -6 11 -13 29 -16 39 -3 9 -15 17 -26 17 -17 0
-19 4 -14 25 7 29 7 29 -28 7z"/>
<path d="M6888 3178 c-15 -17 -25 -35 -22 -40 9 -14 91 -9 103 6 8 10 9 16 1
21 -5 3 -10 15 -10 26 0 30 -41 23 -72 -13z"/>
<path d="M6270 3183 c0 -34 12 -63 26 -63 17 0 18 18 2 53 -15 31 -28 35 -28
10z"/>
<path d="M6337 3194 c-17 -18 12 -54 44 -54 16 0 20 6 17 28 -2 20 -9 28 -28
30 -14 2 -29 0 -33 -4z"/>
<path d="M6027 3183 c-4 -3 -7 -15 -7 -25 0 -28 34 -19 38 10 3 21 -16 31 -31
15z"/>
<path d="M6524 3152 c-5 -4 -18 -18 -27 -31 -15 -23 -15 -26 0 -43 22 -25 43
-23 36 2 -4 14 1 26 13 35 17 12 17 15 4 29 -8 8 -20 12 -26 8z"/>
<path d="M5967 3144 c-10 -10 -9 -62 2 -68 11 -7 21 45 12 62 -4 7 -10 9 -14
6z"/>
<path d="M7020 3144 c0 -3 23 -32 51 -65 48 -54 79 -74 79 -49 0 6 -4 10 -10
10 -5 0 -10 6 -10 13 0 7 -13 24 -28 37 -15 14 -31 33 -35 43 -6 15 -47 25
-47 11z"/>
<path d="M5845 3129 c-4 -6 -5 -13 -2 -16 7 -7 27 6 27 18 0 12 -17 12 -25 -2z"/>
<path d="M6961 3054 c-1 -30 -26 -47 -58 -41 -20 4 -33 -1 -50 -19 -24 -26
-19 -29 23 -14 37 14 96 2 92 -19 -2 -11 -19 -18 -53 -23 -58 -9 -116 -1 -113
16 8 42 -38 77 -49 36 -6 -24 -26 -26 -43 -5 -9 11 -16 13 -24 5 -20 -20 -62
-11 -86 20 -31 41 -54 24 -45 -32 5 -29 3 -39 -9 -44 -12 -5 -15 -15 -10 -45
11 -68 -30 -89 -89 -47 -24 17 -29 18 -24 6 9 -24 -18 -42 -50 -34 -16 4 -42
8 -59 9 -18 2 -39 9 -49 17 -15 12 -19 12 -30 -3 -24 -34 -75 -15 -75 29 0 13
-8 24 -20 27 -14 3 -20 14 -20 31 0 34 -28 34 -69 0 -33 -27 -43 -74 -16 -74
8 0 19 -9 25 -19 5 -11 20 -23 32 -27 13 -3 31 -14 41 -23 11 -9 40 -17 70
-18 29 -1 72 -4 97 -7 25 -2 79 0 120 5 41 5 100 12 130 16 30 3 58 10 61 15
8 13 279 50 320 44 23 -4 59 1 95 13 l58 18 51 -23 c27 -13 71 -42 97 -65 37
-33 45 -45 37 -58 -16 -25 15 -91 44 -91 12 -1 33 -14 47 -30 25 -31 44 -36
70 -20 12 7 9 12 -16 22 -16 7 -47 32 -68 55 -32 36 -37 47 -31 72 5 24 2 32
-14 41 -13 7 -23 25 -27 50 -5 29 -11 40 -22 38 -9 -2 -22 9 -30 24 -7 16 -24
31 -38 34 -16 4 -27 16 -32 38 -10 38 -41 45 -88 20 -33 -18 -34 -18 -58 5
-13 13 -29 39 -34 60 -6 22 -10 28 -11 15z m-313 -155 c4 -30 -34 -55 -67 -44
-23 7 -27 26 -10 56 8 15 19 19 42 17 26 -2 33 -8 35 -29z m77 -10 c4 -6 5
-12 2 -15 -7 -7 -37 7 -37 17 0 13 27 11 35 -2z m-612 -14 c1 -5 -6 -11 -15
-13 -11 -2 -18 3 -18 13 0 17 30 18 33 0z"/>
<path d="M8172 3050 c-6 -11 -12 -27 -12 -35 0 -9 -11 -20 -25 -25 -14 -5 -25
-17 -25 -27 0 -10 -15 -25 -33 -34 -17 -8 -38 -28 -45 -42 -7 -15 -20 -27 -29
-27 -24 0 -43 -31 -31 -53 9 -17 11 -17 35 7 14 14 33 26 42 26 21 0 131 97
131 114 0 7 9 21 20 31 21 19 27 45 10 45 -5 0 -10 9 -10 20 0 26 -12 26 -28
0z"/>
<path d="M5953 3053 c-43 -15 24 -80 87 -85 31 -3 35 0 38 22 2 14 8 29 13 35
5 5 9 16 9 25 -1 10 -8 7 -25 -12 -13 -16 -31 -28 -39 -28 -25 0 -46 12 -46
25 0 15 -19 24 -37 18z"/>
<path d="M6417 3053 c-13 -12 -7 -43 8 -43 8 0 15 6 15 13 0 18 -15 38 -23 30z"/>
<path d="M7222 3036 c1 -10 8 -17 13 -17 15 1 12 24 -3 29 -9 3 -13 -2 -10
-12z"/>
<path d="M6136 3011 c-17 -19 -17 -21 -2 -27 22 -8 28 -1 24 26 l-3 22 -19
-21z"/>
<path d="M6450 2980 c13 -24 55 -28 46 -4 -3 9 -6 18 -6 20 0 2 -11 4 -25 4
-23 0 -24 -2 -15 -20z"/>
<path d="M8007 2984 c-11 -11 -8 -52 4 -59 14 -9 17 -5 21 29 3 28 -11 44 -25
30z"/>
<path d="M8423 2974 c-6 -15 7 -67 39 -159 5 -16 13 -43 18 -60 4 -16 12 -41
17 -55 29 -71 42 -135 49 -230 10 -154 9 -197 -4 -390 -38 -535 -51 -660 -72
-685 -7 -8 -7 -21 -1 -37 6 -15 6 -52 1 -94 -12 -93 -12 -164 0 -164 6 0 10
12 10 28 0 15 5 34 10 42 13 20 13 -145 0 -202 -8 -39 -26 -193 -36 -328 -3
-30 -9 -64 -14 -75 -13 -30 -21 -153 -10 -160 6 -4 10 -5 10 -3 0 2 3 39 6 83
4 44 8 82 10 84 21 22 25 -140 10 -411 l-9 -158 45 0 46 0 7 52 c4 28 8 121
10 207 1 86 5 169 10 184 5 19 3 37 -6 53 -10 19 -10 30 -2 43 8 12 10 58 8
127 -1 60 1 134 5 164 5 30 11 206 15 390 10 475 11 491 53 510 25 11 26 12 8
25 -22 17 -33 93 -17 123 8 15 8 27 -1 47 -9 19 -9 30 1 48 7 13 12 80 14 167
1 80 5 150 8 155 4 6 1 46 -6 91 -6 44 -10 105 -8 134 1 29 -1 58 -6 64 -5 6
-14 29 -21 51 -6 22 -23 64 -36 93 -13 29 -24 54 -24 56 0 3 -25 45 -55 94
-30 50 -55 95 -55 101 0 17 -20 13 -27 -5z"/>
<path d="M6343 2944 c-7 -19 4 -29 37 -37 43 -10 54 6 20 31 -35 26 -48 28
-57 6z"/>
<path d="M8297 2925 c-8 -20 3 -47 17 -42 6 2 11 14 11 27 0 27 -20 38 -28 15z"/>
<path d="M7455 2880 c-3 -5 3 -10 14 -10 11 0 23 5 26 10 3 6 -3 10 -14 10
-11 0 -23 -4 -26 -10z"/>
<path d="M8241 2843 c-10 -22 -10 -28 4 -35 8 -5 12 -14 8 -21 -4 -6 -6 -46
-4 -89 2 -73 1 -78 -21 -89 -15 -6 -37 -37 -58 -81 -34 -70 -79 -128 -98 -128
-5 0 -13 11 -16 25 -8 32 -22 32 -30 -1 -5 -19 -2 -30 10 -39 19 -13 11 -35
-12 -35 -8 0 -14 -4 -14 -9 0 -5 -16 -19 -35 -31 -19 -12 -35 -27 -35 -33 0
-6 -15 -25 -32 -42 -18 -17 -64 -66 -102 -108 -38 -42 -74 -77 -81 -77 -7 0
-15 -9 -18 -20 -3 -11 -17 -22 -33 -26 -40 -9 -92 -50 -116 -90 -13 -22 -28
-34 -42 -34 -12 0 -29 -9 -39 -20 -22 -26 -47 -26 -47 1 0 13 8 23 21 26 11 3
18 11 15 19 -5 14 31 57 58 67 11 4 16 13 12 22 -3 10 1 18 12 22 9 4 37 29
62 55 24 26 50 48 57 48 6 0 29 21 50 47 21 25 45 54 53 62 46 50 92 114 105
145 8 19 18 36 23 38 10 4 72 130 72 146 0 25 -19 10 -46 -35 -15 -27 -31 -50
-35 -53 -4 -3 -13 -20 -20 -37 -12 -27 -162 -199 -207 -237 -7 -6 -26 -22 -41
-36 -16 -14 -37 -30 -47 -36 -10 -6 -25 -22 -31 -36 -7 -14 -41 -52 -75 -86
-35 -34 -70 -69 -78 -79 -9 -10 -33 -33 -53 -50 -33 -29 -87 -112 -87 -134 0
-9 -62 -102 -70 -107 -3 -1 -30 -20 -60 -43 -29 -22 -60 -39 -68 -37 -8 2 -24
27 -35 56 -11 29 -25 51 -31 49 -18 -6 -18 -43 -1 -77 21 -41 15 -56 -31 -75
-49 -20 -60 -19 -97 9 -18 13 -63 39 -100 57 -38 19 -73 41 -78 50 -9 17 -128
79 -152 79 -7 0 -19 11 -25 25 -10 22 -9 25 13 31 41 10 29 24 -20 24 -45 0
-175 46 -175 62 0 4 11 10 25 14 15 4 25 13 25 24 0 26 21 30 49 9 13 -11 28
-19 33 -19 10 0 5 106 -5 116 -12 12 -55 -6 -60 -26 -8 -32 -68 -27 -110 9
-31 28 -36 29 -77 20 -58 -13 -120 11 -120 48 0 17 -6 23 -21 23 -33 0 -81 39
-74 60 6 20 -10 36 -20 20 -3 -5 -10 -10 -15 -10 -15 0 -39 66 -33 89 5 21
-11 29 -22 11 -7 -11 -53 -3 -73 13 -18 14 -62 -11 -73 -41 -8 -20 -12 -22
-24 -12 -20 17 -22 14 -51 -70 -29 -85 -29 -98 -7 -122 15 -16 15 -24 4 -68
-9 -37 -10 -54 -1 -70 13 -25 10 -30 -66 -106 -29 -28 -55 -61 -58 -72 -4 -12
-11 -22 -16 -22 -5 0 -24 -26 -44 -57 -19 -32 -69 -94 -111 -138 -71 -75 -83
-101 -36 -75 12 6 21 17 21 25 0 8 6 15 13 15 22 0 75 59 124 139 68 110 102
153 145 183 27 20 39 24 45 15 4 -7 8 -122 9 -257 0 -135 4 -260 8 -277 4 -18
4 -37 1 -43 -4 -7 -7 -59 -7 -118 0 -178 1 -583 1 -652 1 -36 1 -117 1 -180 0
-165 0 -163 3 -190 2 -14 5 -31 5 -37 1 -9 19 -13 52 -13 l50 0 0 358 c1 369
9 488 36 530 12 18 13 30 6 50 -6 15 -13 81 -16 147 -3 66 -10 147 -16 180 -5
33 -10 128 -10 210 0 83 -7 197 -15 255 -8 58 -15 134 -15 170 -1 36 -7 83
-15 105 -8 22 -18 61 -21 87 -9 67 11 71 70 14 26 -26 53 -46 60 -46 8 0 40
-25 72 -56 33 -31 79 -66 104 -77 52 -25 103 -60 141 -95 25 -22 28 -22 37 -7
13 24 43 12 72 -28 13 -17 33 -38 44 -46 12 -8 56 -49 100 -90 47 -45 81 -71
83 -63 8 22 28 13 84 -36 47 -42 152 -102 178 -102 5 0 20 -10 35 -21 25 -20
31 -20 72 -9 26 8 66 10 97 7 49 -6 57 -4 105 28 54 35 191 147 249 203 18 17
38 32 42 32 5 0 11 6 14 13 3 8 18 20 34 28 17 8 66 47 109 86 95 86 178 150
219 168 31 13 202 184 295 295 30 36 83 93 116 128 34 35 66 73 72 85 26 52
52 117 52 129 0 7 7 22 16 33 11 15 14 35 9 85 -9 98 -16 125 -26 109 -6 -11
-11 -11 -21 -1 -17 17 -23 15 -37 -15z m-2348 -679 c-4 -10 -9 -12 -15 -6 -12
12 -1 35 12 27 5 -3 6 -13 3 -21z"/>
<path d="M5990 2785 c-10 -12 -10 -18 0 -30 16 -19 39 -19 46 0 6 15 -11 45
-26 45 -4 0 -13 -7 -20 -15z"/>
<path d="M7626 2778 c-11 -15 -16 -45 -16 -90 0 -37 -6 -85 -14 -105 -22 -62
-46 -148 -46 -169 -1 -22 -31 -112 -45 -134 -17 -27 -35 -63 -33 -66 2 -1 19
-4 38 -6 32 -3 36 0 54 37 11 22 32 66 48 97 17 36 28 73 28 99 0 44 30 118
56 139 19 16 18 41 -1 34 -12 -5 -15 5 -15 59 0 46 -4 68 -15 77 -9 7 -13 21
-10 31 9 26 -11 24 -29 -3z"/>
<path d="M7840 2760 c-15 -28 -4 -39 17 -17 13 12 14 20 6 28 -8 8 -14 5 -23
-11z"/>
<path d="M8033 2699 c-3 -17 -12 -33 -19 -36 -12 -5 -40 -70 -32 -78 15 -15
78 82 78 121 0 34 -19 30 -27 -7z"/>
<path d="M7800 2690 c0 -11 5 -20 10 -20 6 0 10 9 10 20 0 11 -4 20 -10 20 -5
0 -10 -9 -10 -20z"/>
<path d="M6930 2575 c0 -8 2 -15 4 -15 2 0 12 -3 21 -6 15 -6 15 -4 4 15 -16
25 -29 27 -29 6z"/>
<path d="M6529 2565 c-6 -6 -215 -17 -295 -16 -58 1 -62 -1 -68 -24 -5 -18
-13 -25 -30 -25 -38 0 -56 -10 -56 -32 0 -12 8 -27 18 -34 16 -13 15 -16 -13
-39 -33 -27 -30 -40 6 -27 14 6 54 5 97 0 83 -11 102 -3 102 43 0 25 4 28 53
38 118 23 132 23 186 2 28 -12 61 -21 72 -21 34 0 15 -24 -24 -31 -20 -3 -42
-10 -49 -16 -7 -6 -28 -14 -45 -18 -18 -3 -33 -12 -33 -19 0 -12 43 -12 80 1
8 2 80 6 160 7 154 4 190 10 190 32 0 10 -7 13 -25 8 -20 -5 -25 -2 -31 19 -3
14 -18 34 -32 44 -59 39 -77 45 -125 38 -47 -6 -48 -6 -41 20 9 35 -11 55 -56
55 -20 0 -39 -2 -41 -5z m71 -69 c0 -2 -7 -9 -15 -16 -12 -10 -15 -10 -15 4 0
9 7 16 15 16 8 0 15 -2 15 -4z m155 -56 c3 -5 -3 -10 -14 -10 -12 0 -21 5 -21
10 0 6 6 10 14 10 8 0 18 -4 21 -10z"/>
<path d="M7353 2542 c-8 -5 10 -25 55 -59 57 -44 67 -49 70 -33 5 30 -15 58
-58 80 -43 22 -49 23 -67 12z"/>
<path d="M5990 2521 c0 -24 13 -33 34 -25 21 8 21 30 0 38 -26 10 -34 7 -34
-13z"/>
<path d="M6865 2529 c-4 -6 -4 -13 -1 -16 8 -8 36 5 36 17 0 13 -27 13 -35 -1z"/>
<path d="M6335 2400 c-17 -19 -17 -21 0 -40 22 -25 63 -26 81 -2 20 25 17 37
-11 50 -36 17 -49 15 -70 -8z"/>
<path d="M5923 2383 c-14 -5 -18 -53 -5 -53 14 0 32 23 32 42 0 18 -5 20 -27
11z"/>
<path d="M9240 2291 c0 -14 60 -71 74 -71 13 0 35 22 51 49 6 11 4 13 -9 8
-10 -4 -25 -3 -34 2 -27 13 -82 21 -82 12z"/>
<path d="M7196 2262 c-3 -6 -1 -14 5 -17 15 -10 25 3 12 16 -7 7 -13 7 -17 1z"/>
<path d="M8157 2240 c-3 -11 -2 -20 3 -20 12 0 21 28 11 35 -5 2 -11 -4 -14
-15z"/>
<path d="M9060 2252 c0 -14 39 -46 47 -38 4 4 2 15 -3 24 -12 19 -44 29 -44
14z"/>
<path d="M8215 2229 c-4 -6 -5 -13 -2 -16 7 -7 27 6 27 18 0 12 -17 12 -25 -2z"/>
<path d="M8111 2185 c-13 -14 -21 -28 -18 -32 7 -6 57 37 57 50 0 14 -15 7
-39 -18z"/>
<path d="M6640 2188 c24 -6 49 -16 55 -24 6 -9 15 -10 24 -5 21 13 -39 41 -86
40 l-38 -1 45 -10z"/>
<path d="M9340 2174 c0 -7 31 -48 77 -101 18 -21 33 -42 33 -46 0 -4 17 -25
38 -46 35 -36 82 -96 82 -104 0 -13 221 -229 227 -223 4 5 2 11 -4 13 -7 3
-13 9 -13 14 0 5 -10 30 -22 55 -14 31 -30 49 -49 56 -16 5 -31 17 -34 26 -3
10 -32 45 -65 79 -33 34 -60 69 -60 77 0 8 -12 28 -26 45 -21 25 -24 34 -15
45 10 11 8 16 -5 24 -13 7 -14 13 -4 31 9 19 17 21 43 15 18 -3 37 -10 42 -14
6 -5 34 -8 64 -7 47 2 55 5 63 26 8 23 8 24 -38 17 -26 -3 -52 -2 -58 3 -12
10 -276 25 -276 15z"/>
<path d="M7402 2116 c-29 -29 -52 -57 -52 -61 0 -5 -13 -20 -29 -34 -28 -26
-68 -97 -59 -106 11 -12 66 27 72 51 4 13 17 30 31 36 14 6 27 23 30 40 4 16
14 32 23 35 25 9 52 45 52 71 0 12 -4 22 -8 22 -4 0 -31 -24 -60 -54z"/>
<path d="M9740 2161 c0 -12 39 -25 48 -16 7 7 -17 25 -35 25 -7 0 -13 -4 -13
-9z"/>
<path d="M8155 2149 c-10 -15 3 -25 16 -12 7 7 7 13 1 17 -6 3 -14 1 -17 -5z"/>
<path d="M6986 2141 c-3 -5 1 -14 9 -21 13 -10 15 -9 15 9 0 21 -14 28 -24 12z"/>
<path d="M6202 2128 c3 -7 12 -14 21 -16 12 -2 15 1 11 12 -7 19 -38 22 -32 4z"/>
<path d="M8070 2131 c0 -4 -29 -39 -65 -76 -36 -37 -65 -69 -65 -71 0 -2 -15
-18 -32 -37 -18 -18 -44 -47 -58 -64 -14 -17 -71 -80 -127 -139 -124 -133
-137 -148 -188 -209 -38 -47 -58 -70 -109 -125 -35 -38 -59 -80 -52 -87 4 -4
18 6 32 22 14 17 44 52 67 79 23 27 49 56 57 64 8 8 24 27 35 42 26 34 117
138 175 199 25 26 65 72 90 101 25 30 66 76 93 103 26 26 47 51 47 55 1 4 14
18 30 32 17 13 30 28 30 33 0 4 13 22 30 40 31 33 37 47 20 47 -5 0 -10 -4
-10 -9z"/>
<path d="M8120 2110 c0 -5 -8 -18 -17 -28 -10 -10 -36 -40 -58 -67 -22 -27
-48 -57 -57 -67 -10 -10 -18 -20 -18 -23 0 -3 -8 -13 -17 -23 -10 -10 -36 -40
-58 -68 -22 -27 -72 -83 -112 -124 -85 -88 -104 -110 -158 -175 -22 -27 -49
-59 -60 -71 -78 -86 -137 -165 -129 -173 3 -3 22 13 42 35 69 77 102 116 102
120 0 2 15 18 33 37 17 18 51 55 74 83 23 27 55 64 72 82 17 18 31 35 31 37 0
3 15 19 33 38 17 18 50 55 72 82 22 27 48 57 58 67 9 10 17 21 17 24 0 3 13
17 28 32 15 15 46 51 67 80 22 28 43 52 47 52 4 0 8 6 8 14 0 8 7 16 15 20 8
3 15 10 15 16 0 5 -7 10 -15 10 -8 0 -15 -4 -15 -10z"/>
<path d="M8190 2100 c0 -19 3 -21 12 -12 9 9 9 15 0 24 -9 9 -12 7 -12 -12z"/>
<path d="M10042 2108 c3 -7 17 -14 32 -16 20 -3 27 0 24 10 -3 7 -17 14 -32
16 -20 3 -27 0 -24 -10z"/>
<path d="M10525 2110 c3 -5 15 -10 25 -10 10 0 22 5 25 10 4 6 -7 10 -25 10
-18 0 -29 -4 -25 -10z"/>
<path d="M10169 2086 c16 -19 65 -22 59 -3 -3 6 -20 13 -38 15 -30 3 -32 2
-21 -12z"/>
<path d="M10624 2089 c-3 -5 -4 -9 -2 -10 2 0 23 -2 47 -5 25 -2 52 -11 61
-19 18 -16 90 -21 90 -6 0 11 -25 21 -54 21 -12 0 -27 5 -34 12 -14 14 -100
19 -108 7z"/>
<path d="M10280 2070 c0 -5 19 -10 43 -9 32 0 37 2 22 9 -28 12 -65 12 -65 0z"/>
<path d="M5483 2055 c-22 -15 -32 -45 -15 -45 17 1 43 30 40 45 -3 14 -5 14
-25 0z"/>
<path d="M6980 2025 c0 -8 5 -15 10 -15 6 0 10 7 10 15 0 8 -4 15 -10 15 -5 0
-10 -7 -10 -15z"/>
<path d="M10842 2028 c3 -7 22 -14 44 -16 21 -1 53 -10 69 -18 23 -12 39 -14
65 -7 l35 10 -51 6 c-29 4 -57 14 -64 22 -16 19 -104 21 -98 3z"/>
<path d="M7883 2016 c-4 -8 -72 -81 -149 -163 -78 -81 -157 -165 -175 -186
-19 -22 -43 -49 -54 -61 -11 -13 -38 -45 -60 -71 -22 -27 -48 -57 -57 -67 -10
-10 -18 -20 -18 -22 0 -3 -11 -17 -25 -32 -14 -15 -25 -34 -25 -43 0 -16 44
27 126 125 91 109 149 176 194 223 19 20 65 71 101 112 73 81 108 120 145 161
13 14 24 29 24 32 0 12 -19 6 -27 -8z"/>
<path d="M8125 2019 c-4 -6 -5 -13 -2 -16 7 -7 27 6 27 18 0 12 -17 12 -25 -2z"/>
<path d="M5220 1985 c-30 -7 -69 -14 -86 -14 -35 -1 -63 -24 -44 -36 8 -5 6
-13 -5 -25 -16 -17 -15 -19 3 -29 14 -8 24 -7 38 4 11 8 31 15 46 15 17 0 31
8 38 20 6 11 17 20 25 20 16 0 84 42 85 53 0 10 -33 7 -100 -8z"/>
<path d="M6687 1993 c-4 -3 -7 -16 -7 -29 0 -15 -8 -24 -27 -29 -25 -6 -26 -8
-10 -17 10 -5 26 -6 35 -2 28 12 76 11 99 -4 26 -16 39 -1 24 27 -24 44 -92
76 -114 54z"/>
<path d="M8095 1989 c-10 -15 3 -25 16 -12 7 7 7 13 1 17 -6 3 -14 1 -17 -5z"/>
<path d="M6526 1965 c17 -27 54 -34 54 -11 0 8 -14 19 -31 25 -42 15 -42 15
-23 -14z"/>
<path d="M8065 1940 c-3 -11 -11 -20 -16 -20 -5 0 -12 -7 -16 -16 -3 -9 -19
-30 -35 -46 -16 -17 -27 -33 -23 -36 8 -9 115 111 115 130 0 16 -19 7 -25 -12z"/>
<path d="M7077 1920 c-14 -11 -30 -20 -37 -20 -6 0 -18 -6 -25 -12 -37 -33
-48 -41 -73 -48 -21 -6 -24 -9 -11 -14 10 -4 48 7 93 28 43 20 81 36 86 36 11
0 21 30 14 41 -8 14 -19 11 -47 -11z"/>
<path d="M8125 1929 c-10 -15 3 -25 16 -12 7 7 7 13 1 17 -6 3 -14 1 -17 -5z"/>
<path d="M11307 1929 c8 -8 16 -8 30 0 16 9 14 10 -11 11 -22 0 -27 -3 -19
-11z"/>
<path d="M4920 1920 c0 -5 7 -10 15 -10 8 0 15 5 15 10 0 6 -7 10 -15 10 -8 0
-15 -4 -15 -10z"/>
<path d="M4970 1926 c0 -9 40 -13 46 -5 3 5 -6 9 -20 9 -14 0 -26 -2 -26 -4z"/>
<path d="M11467 1913 c-28 -7 -9 -23 28 -23 40 0 54 15 22 24 -12 3 -24 5 -27
5 -3 -1 -13 -3 -23 -6z"/>
<path d="M8450 1884 c0 -15 -7 -32 -15 -38 -10 -7 -17 -35 -20 -81 -3 -38 -8
-85 -11 -102 -5 -26 -3 -33 9 -33 25 0 44 74 29 112 -6 17 -7 37 -3 46 27 53
38 122 21 122 -5 0 -10 -12 -10 -26z"/>
<path d="M4830 1890 c-8 -5 -12 -12 -8 -15 8 -8 58 5 58 16 0 12 -31 11 -50
-1z"/>
<path d="M8100 1890 c0 -5 -10 -18 -22 -30 -12 -11 -18 -23 -14 -27 4 -4 18 6
31 22 26 33 31 45 15 45 -5 0 -10 -4 -10 -10z"/>
<path d="M11636 1891 c-15 -23 63 -41 94 -21 11 7 4 10 -25 10 -23 0 -46 5
-52 11 -7 7 -13 7 -17 0z"/>
<path d="M8150 1864 c0 -17 22 -14 28 4 2 7 -3 12 -12 12 -9 0 -16 -7 -16 -16z"/>
<path d="M11770 1870 c0 -5 9 -10 21 -10 11 0 17 5 14 10 -3 6 -13 10 -21 10
-8 0 -14 -4 -14 -10z"/>
<path d="M4751 1861 c-9 -6 -10 -11 -2 -15 14 -9 51 2 51 15 0 11 -30 12 -49
0z"/>
<path d="M6000 1852 c0 -16 38 -58 45 -50 3 3 -5 19 -19 34 -14 16 -26 23 -26
16z"/>
<path d="M5008 1829 c-21 -11 -38 -24 -38 -29 0 -11 46 -13 102 -4 36 6 37 7
21 30 -18 28 -35 29 -85 3z"/>
<path d="M5936 1825 c4 -8 10 -15 14 -15 5 0 12 -9 15 -20 6 -20 25 -28 25
-12 0 11 -43 62 -53 62 -3 0 -4 -7 -1 -15z"/>
<path d="M8185 1820 c-8 -13 4 -32 16 -25 12 8 12 35 0 35 -6 0 -13 -4 -16
-10z"/>
<path d="M11952 1821 c-11 -7 -11 -9 2 -14 20 -8 48 2 40 14 -7 11 -25 11 -42
0z"/>
<path d="M8024 1794 c-10 -14 -47 -54 -81 -89 -58 -58 -75 -85 -55 -85 12 0
112 104 112 117 0 6 7 13 15 17 8 3 15 12 15 20 0 7 7 16 15 20 8 3 15 10 15
16 0 18 -17 11 -36 -16z"/>
<path d="M7893 1733 c-40 -41 -73 -79 -73 -83 0 -5 -3 -10 -8 -12 -4 -1 -41
-41 -82 -88 -41 -47 -79 -90 -84 -96 -6 -6 -29 -32 -51 -59 -22 -26 -44 -53
-50 -59 -5 -6 -26 -34 -45 -61 -53 -78 8 -26 95 80 22 27 49 59 60 71 12 13
39 44 60 69 22 26 48 56 58 68 9 11 17 24 17 29 0 8 37 48 45 48 8 0 75 70 75
79 0 5 7 11 15 15 8 3 15 12 15 21 0 8 4 15 9 15 5 0 11 9 14 20 3 11 4 20 4
19 -1 0 -35 -34 -74 -76z"/>
<path d="M8068 1759 c-21 -23 -38 -45 -38 -50 0 -5 -7 -9 -15 -9 -8 0 -15 -5
-15 -11 0 -7 -8 -18 -17 -25 -10 -7 -14 -16 -10 -21 5 -4 14 0 21 10 7 9 18
17 25 17 6 0 11 7 11 15 0 8 7 15 15 15 8 0 15 7 15 15 0 8 7 15 15 15 8 0 15
6 15 14 0 7 7 19 15 26 16 13 20 30 8 29 -5 0 -25 -18 -45 -40z"/>
<path d="M6050 1783 c0 -11 50 -57 55 -51 3 3 -5 17 -18 31 -22 27 -37 34 -37
20z"/>
<path d="M8143 1766 c-27 -28 -29 -36 -8 -36 8 0 15 6 15 14 0 8 7 16 15 20
15 5 21 26 8 26 -5 0 -18 -11 -30 -24z"/>
<path d="M8215 1779 c-10 -15 3 -25 16 -12 7 7 7 13 1 17 -6 3 -14 1 -17 -5z"/>
<path d="M6950 1754 c0 -27 135 -71 176 -57 16 5 28 13 27 16 -2 4 -3 13 -3
21 0 11 -19 15 -82 18 -46 2 -91 7 -100 12 -14 6 -18 4 -18 -10z"/>
<path d="M5990 1750 c0 -5 6 -13 13 -17 6 -4 25 -28 42 -52 16 -24 71 -86 122
-139 51 -52 93 -96 93 -98 0 -9 107 -117 125 -126 19 -10 19 -10 4 8 -9 10
-27 32 -40 48 -13 17 -37 44 -54 61 -16 17 -61 67 -100 111 -38 43 -74 84 -80
90 -5 6 -32 36 -60 67 -48 55 -65 67 -65 47z"/>
<path d="M6200 1725 c0 -15 88 -120 178 -212 17 -19 32 -36 32 -39 0 -3 17
-21 38 -39 35 -33 52 -42 52 -29 0 13 -80 105 -206 236 -75 78 -94 95 -94 83z"/>
<path d="M8095 1719 c-10 -15 3 -25 16 -12 7 7 7 13 1 17 -6 3 -14 1 -17 -5z"/>
<path d="M6119 1703 c6 -10 27 -37 48 -60 21 -23 55 -61 75 -85 58 -69 178
-188 188 -188 21 0 7 20 -82 115 -194 207 -256 266 -229 218z"/>
<path d="M7465 1657 c-22 -24 -51 -58 -65 -76 -38 -50 -83 -102 -102 -120 -10
-8 -18 -21 -18 -28 0 -7 -4 -13 -10 -13 -5 0 -10 -6 -10 -12 0 -16 105 93 150
155 18 26 37 47 42 47 4 0 8 6 8 13 1 6 14 23 30 37 29 23 38 40 23 40 -5 0
-26 -20 -48 -43z"/>
<path d="M8215 1689 c-4 -6 -5 -13 -2 -16 7 -7 27 6 27 18 0 12 -17 12 -25 -2z"/>
<path d="M5966 1675 c4 -8 10 -15 14 -15 5 0 11 -9 15 -19 3 -11 26 -42 51
-68 72 -77 114 -122 203 -220 46 -51 88 -93 93 -93 11 0 -37 63 -93 125 -20
22 -49 54 -64 70 -15 17 -59 65 -98 108 -39 44 -81 90 -92 103 -23 27 -37 32
-29 9z"/>
<path d="M8066 1674 c-4 -10 -1 -14 6 -12 15 5 23 28 10 28 -5 0 -13 -7 -16
-16z"/>
<path d="M8185 1649 c-4 -6 -5 -13 -2 -16 7 -7 27 6 27 18 0 12 -17 12 -25 -2z"/>
<path d="M8815 1640 c10 -11 24 -20 32 -20 7 0 21 -9 30 -20 16 -19 43 -27 43
-14 0 11 -45 43 -61 44 -9 0 -22 7 -29 15 -7 8 -17 15 -23 15 -5 0 -2 -9 8
-20z"/>
<path d="M8095 1629 c-4 -6 -5 -13 -2 -16 7 -7 27 6 27 18 0 12 -17 12 -25 -2z"/>
<path d="M7934 1603 c-10 -14 -27 -34 -36 -45 -10 -10 -18 -22 -18 -27 0 -5
-7 -11 -15 -15 -8 -3 -15 -10 -15 -16 0 -5 7 -10 15 -10 8 0 15 7 15 15 0 8 5
15 10 15 6 0 13 7 17 16 3 9 19 30 34 47 16 17 29 35 29 39 0 16 -18 7 -36
-19z"/>
<path d="M8370 1610 c0 -11 5 -20 10 -20 13 0 13 -37 0 -53 -28 -33 -80 -107
-80 -113 0 -4 -8 -13 -17 -20 -10 -7 -15 -16 -11 -20 8 -7 58 35 58 50 0 4 11
17 24 27 14 11 35 40 48 65 21 43 21 47 5 59 -9 7 -17 20 -17 29 0 9 -4 16
-10 16 -5 0 -10 -9 -10 -20z"/>
<path d="M8157 1613 c-10 -9 -9 -23 2 -23 5 0 11 7 15 15 5 15 -5 20 -17 8z"/>
<path d="M7855 1599 c-4 -6 -5 -13 -2 -16 7 -7 27 6 27 18 0 12 -17 12 -25 -2z"/>
<path d="M8005 1599 c-4 -6 -5 -13 -2 -16 7 -7 27 6 27 18 0 12 -17 12 -25 -2z"/>
<path d="M8215 1599 c-4 -6 -5 -13 -2 -16 7 -7 27 6 27 18 0 12 -17 12 -25 -2z"/>
<path d="M6410 1593 c0 -7 31 -44 115 -140 22 -26 35 -29 35 -10 0 11 -135
157 -145 157 -3 0 -5 -3 -5 -7z"/>
<path d="M8066 1584 c-4 -10 -1 -14 6 -12 15 5 23 28 10 28 -5 0 -13 -7 -16
-16z"/>
<path d="M12230 1536 c0 -36 4 -67 9 -70 5 -3 12 -23 16 -43 4 -25 19 -49 42
-70 20 -18 37 -33 39 -33 10 0 2 47 -11 70 -8 14 -14 43 -15 65 0 52 -46 145
-71 145 -5 0 -9 -29 -9 -64z"/>
<path d="M8113 1556 c-27 -28 -29 -36 -8 -36 8 0 15 6 15 14 0 8 7 16 15 20
15 5 21 26 8 26 -5 0 -18 -11 -30 -24z"/>
<path d="M9710 1562 c-243 -115 -340 -164 -340 -172 0 -27 101 -62 185 -64 47
-1 50 1 55 27 7 37 56 97 80 97 10 0 26 3 35 6 20 8 75 87 75 108 0 21 -44 20
-90 -2z"/>
<path d="M8185 1561 c-6 -11 9 -23 19 -14 9 9 7 23 -3 23 -6 0 -12 -4 -16 -9z"/>
<path d="M5990 1547 c0 -7 8 -20 18 -28 9 -9 37 -40 62 -69 130 -154 208 -235
217 -227 3 4 0 15 -8 24 -71 86 -151 175 -186 210 -24 24 -43 45 -43 48 0 9
-43 55 -52 55 -4 0 -8 -6 -8 -13z"/>
<path d="M8033 1543 c-4 -10 -14 -23 -22 -30 -9 -6 -12 -15 -8 -19 10 -10 59
45 51 57 -8 13 -14 11 -21 -8z"/>
<path d="M7800 1533 c0 -5 -17 -26 -38 -49 -20 -22 -55 -62 -77 -89 -22 -26
-61 -73 -87 -104 -51 -60 -56 -71 -33 -71 8 0 15 3 15 8 0 4 15 23 33 43 17
20 57 67 87 104 30 38 63 75 73 84 9 8 17 19 17 24 0 5 7 15 15 23 17 18 20
34 5 34 -5 0 -10 -3 -10 -7z"/>
<path d="M7942 1515 c-6 -14 -16 -25 -22 -25 -5 0 -10 -7 -10 -15 0 -8 -4 -15
-10 -15 -5 0 -10 -10 -10 -22 1 -22 1 -22 12 -3 6 11 17 24 25 28 7 4 13 13
13 18 0 6 7 17 15 25 16 17 20 34 7 34 -5 0 -14 -11 -20 -25z"/>
<path d="M11744 1519 c-13 -15 -21 -43 -25 -93 -4 -39 -12 -89 -17 -111 -33
-126 -36 -159 -36 -462 -1 -315 1 -353 19 -356 6 -1 10 46 11 118 4 299 15
535 28 586 8 30 17 92 21 139 4 47 13 95 21 107 15 24 19 93 6 93 -5 0 -17 -9
-28 -21z"/>
<path d="M6570 1522 c0 -18 38 -57 47 -48 4 3 -5 19 -20 34 -15 14 -27 21 -27
14z"/>
<path d="M8215 1511 c-6 -11 9 -23 19 -14 9 9 7 23 -3 23 -6 0 -12 -4 -16 -9z"/>
<path d="M8067 1495 c-4 -8 -2 -17 3 -20 6 -4 10 -4 10 -1 0 2 3 11 6 20 3 9
2 16 -4 16 -5 0 -12 -7 -15 -15z"/>
<path d="M8276 1494 c-8 -21 -8 -24 3 -24 5 0 11 9 14 20 6 24 -8 27 -17 4z"/>
<path d="M8120 1474 c0 -17 22 -14 28 4 2 7 -3 12 -12 12 -9 0 -16 -7 -16 -16z"/>
<path d="M7980 1472 c0 -5 -9 -19 -20 -32 -11 -13 -20 -27 -20 -32 0 -15 21
-8 27 10 4 9 13 23 20 30 15 16 17 32 3 32 -5 0 -10 -4 -10 -8z"/>
<path d="M7813 1444 c-13 -14 -23 -27 -23 -29 0 -2 -16 -21 -36 -42 -20 -21
-50 -57 -67 -80 -17 -24 -34 -43 -39 -43 -4 0 -8 -4 -8 -9 0 -6 -11 -22 -25
-37 -14 -15 -25 -34 -25 -43 0 -10 15 -1 40 27 22 24 40 45 40 47 0 2 11 17
25 32 63 69 95 109 95 119 0 7 7 14 15 18 8 3 15 12 15 20 0 8 5 16 12 18 6 2
9 9 7 16 -2 6 -13 1 -26 -14z"/>
<path d="M8035 1449 c-4 -6 -5 -13 -2 -16 7 -7 27 6 27 18 0 12 -17 12 -25 -2z"/>
<path d="M8097 1446 c-3 -8 -2 -18 3 -21 13 -8 24 15 12 27 -6 6 -11 4 -15 -6z"/>
<path d="M8240 1449 c0 -7 -8 -18 -17 -25 -10 -7 -15 -16 -11 -20 8 -7 58 35
58 49 0 4 -7 7 -15 7 -8 0 -15 -5 -15 -11z"/>
<path d="M12145 1450 c-4 -6 -3 -16 3 -22 6 -6 12 -6 17 2 4 6 3 16 -3 22 -6
6 -12 6 -17 -2z"/>
<path d="M6020 1420 c0 -6 7 -13 15 -16 8 -4 15 -11 15 -16 0 -13 55 -85 92
-120 15 -15 28 -30 28 -33 0 -9 74 -75 79 -70 4 4 -39 65 -69 95 -61 65 -100
110 -100 117 0 9 -45 53 -54 53 -3 0 -6 -5 -6 -10z"/>
<path d="M7862 1408 c-6 -6 -12 -17 -12 -22 -1 -6 -14 -22 -30 -36 -17 -13
-30 -30 -30 -36 0 -7 -3 -14 -8 -16 -4 -1 -25 -25 -47 -53 -22 -27 -42 -52
-45 -55 -3 -3 -13 -17 -23 -32 -29 -47 -19 -54 15 -10 18 23 36 42 40 42 4 0
8 5 8 11 0 7 6 17 14 23 25 21 137 177 134 187 -2 6 -8 5 -16 -3z"/>
<path d="M8065 1399 c-4 -6 -5 -13 -2 -16 7 -7 27 6 27 18 0 12 -17 12 -25 -2z"/>
<path d="M4820 1379 c0 -29 47 -87 90 -109 20 -10 55 -37 78 -59 23 -23 48
-41 56 -41 23 0 58 34 51 50 -5 14 -17 23 -101 75 -18 12 -46 32 -61 46 -70
62 -113 77 -113 38z"/>
<path d="M7916 1385 c-3 -8 -1 -17 3 -20 5 -3 11 2 15 10 3 8 1 17 -3 20 -5 3
-11 -2 -15 -10z"/>
<path d="M8330 1389 c0 -6 -13 -31 -30 -56 -16 -24 -30 -46 -30 -49 0 -3 -7
-12 -15 -20 -17 -18 -20 -34 -5 -34 6 0 10 4 10 8 0 11 55 72 65 72 15 0 34
35 35 63 0 17 -5 27 -15 27 -8 0 -15 -5 -15 -11z"/>
<path d="M8186 1374 c-9 -22 3 -32 14 -14 12 19 12 30 1 30 -5 0 -12 -7 -15
-16z"/>
<path d="M12137 1373 c8 -22 23 -33 46 -33 13 0 18 6 15 23 -2 17 -11 23 -35
25 -28 3 -32 1 -26 -15z"/>
<path d="M7973 1363 c-4 -10 -12 -22 -20 -26 -7 -4 -13 -14 -13 -21 0 -8 -7
-16 -15 -20 -17 -6 -21 -36 -5 -36 6 0 14 8 17 18 4 9 12 21 20 25 7 4 13 14
13 21 0 8 7 16 15 20 17 6 21 36 5 36 -6 0 -14 -8 -17 -17z"/>
<path d="M3278 1344 c-25 -12 -49 -28 -53 -33 -3 -6 -15 -11 -25 -11 -10 0
-32 -11 -48 -25 -17 -14 -37 -25 -45 -25 -9 0 -19 -5 -23 -11 -12 -20 -88 -49
-128 -49 -21 0 -61 -11 -89 -25 -50 -26 -168 -135 -180 -167 -4 -10 -11 -18
-16 -18 -5 0 -12 -11 -15 -24 -3 -13 -9 -31 -12 -40 -12 -32 26 -16 39 17 16
38 134 177 150 177 6 0 18 7 28 16 11 10 40 16 86 17 59 2 75 6 106 30 19 15
39 27 42 27 4 0 24 14 45 30 21 17 45 30 53 30 9 0 18 4 22 9 3 5 18 12 34 16
16 3 32 13 35 21 3 8 16 14 28 14 13 0 34 12 47 25 l23 25 -28 -1 c-16 -1 -50
-12 -76 -25z"/>
<path d="M6706 1355 c-15 -8 -36 -15 -46 -15 -10 0 -23 -7 -30 -15 -7 -8 -20
-15 -30 -15 -10 0 -23 -7 -30 -15 -7 -8 -20 -15 -30 -15 -10 0 -23 -6 -29 -14
-7 -8 -23 -17 -36 -20 -14 -4 -25 -11 -25 -17 0 -5 -13 -15 -30 -20 -16 -6
-32 -18 -35 -27 -3 -10 -21 -28 -40 -42 -18 -14 -38 -35 -44 -48 -6 -12 -18
-25 -26 -28 -8 -4 -15 -14 -15 -24 0 -10 -7 -24 -16 -31 -9 -7 -20 -22 -25
-34 -5 -11 -13 -27 -19 -35 -19 -31 -50 -104 -50 -121 0 -10 -5 -21 -10 -24
-6 -4 -10 -14 -9 -23 1 -10 -1 -26 -5 -37 -5 -11 -13 -33 -19 -50 -6 -16 -12
-34 -12 -40 -2 -31 -19 -102 -27 -112 -5 -6 -10 -37 -11 -67 -1 -39 -5 -56
-14 -56 -14 0 -15 -4 -18 -128 -1 -45 2 -85 7 -88 4 -3 8 19 8 49 0 54 17 86
39 72 14 -8 67 20 85 47 9 12 17 38 17 58 1 34 2 34 11 -10 5 -25 12 -76 17
-115 l8 -70 2 76 c0 42 4 97 7 121 5 37 3 49 -13 65 -31 31 -34 51 -17 106 20
62 30 76 37 51 17 -66 28 -116 36 -164 7 -45 9 -49 10 -19 2 60 13 129 21 129
4 0 11 -25 15 -55 3 -30 10 -57 15 -60 28 -17 32 93 5 125 -7 8 -16 26 -20 40
-4 14 -11 30 -15 35 -4 6 -13 36 -19 67 -10 47 -9 66 3 109 23 76 82 175 133
222 24 23 51 54 59 70 11 20 22 27 43 27 19 0 30 6 33 18 4 12 22 23 53 32 26
7 61 23 79 35 45 31 95 46 114 36 10 -4 37 -11 62 -15 24 -4 49 -11 56 -17 7
-5 45 -11 85 -13 47 -3 94 -12 129 -27 65 -27 185 -109 254 -173 47 -44 48
-47 30 -60 -28 -21 -11 -30 54 -31 50 0 57 -2 57 -20 0 -15 -7 -20 -27 -20
-55 0 -39 -15 18 -17 32 -1 70 -2 84 -3 19 -1 27 -8 35 -37 12 -45 23 -56 31
-34 11 28 22 18 29 -26 4 -23 20 -69 35 -102 18 -38 26 -71 23 -87 -2 -14 1
-45 8 -70 l12 -44 13 30 c7 17 13 47 14 68 0 69 17 29 18 -42 0 -94 15 -120
31 -56 13 51 19 51 38 2 11 -31 11 -31 12 -6 1 15 7 32 15 38 21 18 56 -32 56
-80 0 -43 16 -52 26 -15 3 14 12 27 20 30 19 7 18 62 -1 70 -8 3 -15 11 -15
18 0 7 -16 29 -35 48 -19 19 -35 40 -35 47 0 7 -8 17 -19 22 -10 6 -21 21 -25
34 -3 13 -19 36 -35 53 -17 16 -31 34 -31 40 0 6 -15 27 -34 46 -18 19 -39 44
-45 56 -6 12 -18 22 -26 22 -8 0 -15 6 -15 14 0 7 -15 25 -32 39 -18 14 -58
48 -88 76 -30 28 -59 51 -64 51 -5 0 -16 7 -25 15 -9 9 -34 29 -56 45 -22 16
-47 35 -55 42 -17 15 -47 33 -77 47 -12 5 -25 16 -30 23 -4 7 -19 19 -33 26
-14 7 -44 23 -68 36 -75 43 -142 45 -142 6 0 -29 -27 -37 -118 -35 -89 2 -102
6 -83 29 7 8 10 20 6 26 -9 15 -96 12 -129 -5z"/>
<path d="M8245 1359 c-4 -6 -5 -13 -2 -16 7 -7 27 6 27 18 0 12 -17 12 -25 -2z"/>
<path d="M7883 1333 c-4 -10 -12 -22 -18 -28 -7 -5 -34 -39 -60 -75 -27 -36
-53 -68 -57 -71 -15 -10 -48 -79 -39 -79 5 0 12 9 16 19 3 11 12 22 20 25 8 3
15 10 15 16 0 6 12 22 27 36 24 22 40 44 59 83 4 7 20 27 36 43 16 16 26 33
23 39 -9 13 -15 11 -22 -8z"/>
<path d="M6020 1325 c0 -9 5 -15 11 -13 6 2 11 8 11 13 0 5 -5 11 -11 13 -6 2
-11 -4 -11 -13z"/>
<path d="M8150 1324 c0 -17 22 -14 28 4 2 7 -3 12 -12 12 -9 0 -16 -7 -16 -16z"/>
<path d="M8215 1319 c-4 -6 -5 -13 -2 -16 7 -7 27 6 27 18 0 12 -17 12 -25 -2z"/>
<path d="M5182 1284 c-12 -15 -21 -29 -18 -31 6 -6 66 38 66 49 0 17 -26 7
-48 -18z"/>
<path d="M6052 1288 c2 -6 10 -14 16 -16 7 -2 10 2 6 12 -7 18 -28 22 -22 4z"/>
<path d="M8123 1285 c-8 -22 6 -33 17 -15 13 20 12 30 0 30 -6 0 -13 -7 -17
-15z"/>
<path d="M8186 1274 c-8 -22 1 -31 16 -16 9 9 9 15 1 23 -7 7 -12 5 -17 -7z"/>
<path d="M7975 1269 c-4 -6 -5 -13 -2 -16 7 -7 27 6 27 18 0 12 -17 12 -25 -2z"/>
<path d="M6080 1250 c0 -6 14 -24 30 -40 17 -16 30 -32 30 -35 0 -3 9 -14 21
-26 26 -26 46 -20 22 8 -10 11 -33 39 -52 62 -34 41 -51 51 -51 31z"/>
<path d="M8291 1224 c-12 -19 -21 -39 -21 -43 0 -5 -7 -14 -15 -21 -19 -16
-19 -30 1 -30 28 0 74 65 74 105 0 35 -14 31 -39 -11z"/>
<path d="M7872 1221 c-14 -19 -18 -32 -11 -36 6 -4 13 2 16 13 3 11 11 23 19
26 8 3 14 10 14 16 0 18 -16 10 -38 -19z"/>
<path d="M8095 1241 c-6 -11 9 -23 19 -14 9 9 7 23 -3 23 -6 0 -12 -4 -16 -9z"/>
<path d="M8154 1236 c-8 -22 3 -33 18 -18 9 9 9 15 0 24 -9 9 -13 7 -18 -6z"/>
<path d="M7945 1221 c-3 -11 -12 -22 -20 -25 -8 -3 -15 -12 -15 -21 0 -8 -5
-15 -10 -15 -6 0 -15 -10 -20 -22 -15 -34 -33 -62 -47 -71 -18 -11 -16 -27 2
-27 8 0 15 6 15 14 0 8 7 16 15 20 8 3 15 12 15 21 0 8 4 15 10 15 5 0 12 11
16 24 3 14 12 27 20 30 8 3 14 10 14 16 0 6 7 18 15 26 17 17 20 34 6 34 -5 0
-12 -9 -16 -19z"/>
<path d="M8005 1209 c-4 -6 -5 -13 -2 -16 7 -7 27 6 27 18 0 12 -17 12 -25 -2z"/>
<path d="M8215 1209 c-4 -6 -5 -13 -2 -16 7 -7 27 6 27 18 0 12 -17 12 -25 -2z"/>
<path d="M8066 1194 c-8 -21 -8 -24 3 -24 12 0 22 28 12 35 -5 3 -12 -2 -15
-11z"/>
<path d="M8127 1186 c-3 -8 -2 -18 3 -21 13 -8 24 15 12 27 -6 6 -11 4 -15 -6z"/>
<path d="M7812 1140 c-26 -35 -27 -40 -7 -40 8 0 15 6 15 14 0 8 7 16 15 20
16 6 21 36 7 36 -5 0 -18 -13 -30 -30z"/>
<path d="M8030 1145 c0 -8 -4 -15 -10 -15 -5 0 -12 -11 -16 -25 -3 -14 -10
-25 -15 -25 -5 0 -13 -8 -16 -17 -4 -10 -14 -23 -22 -30 -12 -9 -13 -15 -4
-23 8 -9 13 -7 17 8 4 11 13 23 21 26 8 3 15 12 15 21 0 8 4 15 10 15 5 0 12
11 16 24 3 14 12 27 20 30 19 7 18 26 -1 26 -8 0 -15 -7 -15 -15z"/>
<path d="M8097 1136 c-4 -10 -5 -21 -2 -24 9 -9 17 6 13 25 -3 17 -4 17 -11
-1z"/>
<path d="M8156 1125 c-3 -8 -1 -17 3 -20 5 -3 11 2 15 10 3 8 1 17 -3 20 -5 3
-11 -2 -15 -10z"/>
<path d="M6112 1121 c4 -13 18 -16 19 -4 0 4 -5 9 -11 12 -7 2 -11 -2 -8 -8z"/>
<path d="M7945 1121 c-6 -11 9 -23 19 -14 9 9 7 23 -3 23 -6 0 -12 -4 -16 -9z"/>
<path d="M8277 1113 c-4 -3 -7 -15 -7 -25 0 -10 -4 -18 -8 -18 -5 0 -14 -10
-21 -22 -6 -13 -20 -36 -31 -53 -11 -16 -24 -40 -29 -52 -5 -11 -15 -24 -21
-28 -5 -3 -8 -11 -5 -16 7 -10 65 43 65 60 0 9 21 14 90 25 12 1 14 14 12 56
-4 64 -23 96 -45 73z"/>
<path d="M8065 1089 c-4 -6 -5 -13 -2 -16 7 -7 27 6 27 18 0 12 -17 12 -25 -2z"/>
<path d="M7766 1074 c-9 -22 3 -32 14 -14 12 19 12 30 1 30 -5 0 -12 -7 -15
-16z"/>
<path d="M2960 1066 c0 -7 -10 -26 -22 -41 -20 -26 -22 -37 -20 -174 2 -163
18 -359 31 -375 5 -6 11 -47 15 -90 5 -73 27 -169 46 -206 4 -9 11 -45 15 -80
8 -73 19 -100 40 -100 19 0 20 39 1 65 -7 11 -13 34 -14 50 0 37 -16 136 -37
230 -9 39 -18 99 -21 135 -3 35 -9 69 -14 75 -10 12 -6 370 5 463 6 54 5 62
-9 62 -9 0 -16 -6 -16 -14z"/>
<path d="M12433 1054 c-15 -39 20 -144 48 -144 13 0 18 31 9 53 -5 12 -14 41
-20 65 -11 43 -26 54 -37 26z"/>
<path d="M8035 1040 c-3 -11 -11 -20 -16 -20 -5 0 -13 -8 -16 -17 -4 -10 -13
-24 -20 -31 -7 -7 -13 -18 -13 -23 0 -16 20 -10 27 9 4 9 12 21 20 25 7 4 13
13 13 18 0 6 7 17 15 25 17 17 20 34 6 34 -5 0 -13 -9 -16 -20z"/>
<path d="M7885 1039 c-4 -6 -5 -13 -2 -16 7 -7 27 6 27 18 0 12 -17 12 -25 -2z"/>
<path d="M8460 1025 c0 -8 5 -15 10 -15 6 0 10 7 10 15 0 8 -4 15 -10 15 -5 0
-10 -7 -10 -15z"/>
<path d="M9827 943 c-29 -153 -31 -173 -14 -173 20 0 27 22 27 79 0 27 8 63
20 86 11 22 20 46 20 55 0 16 -18 40 -30 40 -3 0 -14 -39 -23 -87z"/>
<path d="M8065 989 c-4 -6 -5 -13 -2 -16 7 -7 27 6 27 18 0 12 -17 12 -25 -2z"/>
<path d="M7915 980 c-3 -5 -3 -15 1 -21 6 -11 23 6 24 24 0 10 -18 9 -25 -3z"/>
<path d="M8126 975 c-3 -8 -1 -17 3 -20 5 -3 11 2 15 10 3 8 1 17 -3 20 -5 3
-11 -2 -15 -10z"/>
<path d="M8033 943 c-4 -10 -12 -22 -20 -26 -15 -9 -18 -37 -3 -37 6 0 14 8
17 18 4 9 12 21 20 25 15 9 18 37 3 37 -6 0 -14 -8 -17 -17z"/>
<path d="M7943 910 c-3 -11 -9 -20 -14 -20 -5 0 -9 -7 -9 -16 0 -13 5 -11 25
7 26 25 33 49 14 49 -6 0 -13 -9 -16 -20z"/>
<path d="M8220 895 c0 -8 -7 -15 -15 -15 -9 0 -20 -11 -25 -25 -5 -14 -14 -25
-20 -25 -5 0 -10 -6 -10 -13 0 -8 -14 -33 -31 -57 -17 -23 -27 -46 -22 -51 10
-10 82 56 104 96 17 31 34 105 24 105 -3 0 -5 -7 -5 -15z"/>
<path d="M8065 889 c-4 -6 -3 -15 3 -21 6 -6 11 -4 15 6 7 18 -9 31 -18 15z"/>
<path d="M7297 883 c-4 -3 -7 -12 -7 -18 0 -9 12 -10 50 -2 28 5 50 14 50 18
0 10 -83 12 -93 2z"/>
<path d="M7977 863 c-10 -9 -9 -23 2 -23 5 0 11 7 15 15 5 15 -5 20 -17 8z"/>
<path d="M8036 845 c-3 -8 -1 -17 3 -20 5 -3 11 2 15 10 3 8 1 17 -3 20 -5 3
-11 -2 -15 -10z"/>
<path d="M7497 791 c-8 -72 0 -139 18 -161 7 -8 15 -26 18 -40 3 -19 5 -17 6
11 0 19 -4 40 -10 46 -7 7 -9 23 -4 40 6 27 7 27 21 8 13 -17 16 -18 24 -5 5
8 10 18 10 23 0 14 31 7 37 -9 5 -13 7 -13 14 -2 12 18 11 56 -1 63 -6 4 -17
2 -25 -5 -11 -9 -16 -7 -26 11 -11 22 -12 22 -26 -12 -13 -32 -15 -33 -26 -14
-6 11 -14 40 -17 65 l-6 45 -7 -64z"/>
<path d="M8095 829 c-4 -6 -3 -15 3 -21 6 -6 11 -4 15 6 7 18 -9 31 -18 15z"/>
<path d="M7132 785 c-16 -25 -33 -61 -36 -80 -4 -19 -16 -39 -26 -45 -16 -9
-20 -21 -20 -63 0 -44 -5 -58 -30 -86 -27 -29 -33 -60 -9 -46 14 9 11 -13 -7
-40 -15 -22 -14 -29 1 -76 13 -40 15 -56 6 -75 -10 -22 -15 -24 -53 -18 -24 3
-65 12 -92 20 -31 10 -109 17 -210 20 -88 3 -164 8 -168 10 -4 3 -10 27 -14
55 -11 83 -24 51 -27 -71 -2 -66 -9 -125 -16 -139 -12 -22 -13 -22 -26 -4 -14
17 -14 17 -15 -3 0 -12 -6 -27 -14 -33 -8 -7 -18 -27 -21 -44 -4 -18 -9 -40
-11 -49 -4 -14 1 -18 25 -18 28 0 29 2 24 35 -5 33 4 45 21 27 4 -4 18 -7 29
-7 17 0 23 -7 25 -28 3 -23 8 -27 34 -27 29 0 30 2 24 30 -3 19 1 43 11 65 16
33 15 36 -2 55 -10 11 -26 20 -37 20 -22 0 -23 16 -2 37 20 20 122 42 196 43
111 0 262 -44 310 -92 13 -13 18 -33 18 -70 1 -69 16 -88 69 -88 39 0 42 2 36
23 -4 12 -18 37 -32 55 -23 30 -24 37 -14 80 10 45 16 101 26 227 3 33 9 76
15 95 5 19 10 48 10 63 0 34 28 126 45 147 7 8 15 43 17 78 4 54 2 62 -13 62
-9 0 -31 -20 -47 -45z"/>
<path d="M9185 823 c-53 -8 -48 -20 15 -32 33 -7 79 -18 100 -26 30 -11 47
-11 70 -4 35 13 31 29 -8 29 -15 1 -45 9 -67 20 -40 19 -53 21 -110 13z"/>
<path d="M12408 814 c-15 -8 -32 -24 -39 -35 -9 -17 -16 -19 -50 -14 -35 6
-43 4 -64 -19 -13 -14 -30 -26 -38 -26 -8 0 -29 -14 -48 -31 -19 -17 -44 -40
-56 -51 -13 -11 -23 -29 -23 -40 0 -19 4 -20 63 -14 34 4 66 12 72 17 5 5 19
9 32 9 13 0 31 4 41 9 45 22 90 34 126 33 22 -1 47 4 55 12 9 8 35 17 58 21
24 4 59 18 78 31 20 13 45 24 55 24 23 0 26 18 7 44 -14 19 -41 22 -99 11 -29
-6 -43 -3 -66 14 -35 24 -66 26 -104 5z m-112 -133 c-10 -15 -46 -14 -46 2 0
7 5 18 12 25 10 10 15 9 26 -2 8 -8 11 -19 8 -25z"/>
<path d="M8007 803 c-10 -9 -9 -23 2 -23 5 0 11 7 15 15 5 15 -5 20 -17 8z"/>
<path d="M7437 793 c-10 -10 3 -175 16 -190 5 -7 13 -13 18 -13 13 0 11 28 -2
32 -7 2 -11 30 -11 72 1 71 -8 112 -21 99z"/>
<path d="M5876 754 c-13 -33 13 -109 30 -91 8 7 -8 107 -16 107 -4 0 -11 -7
-14 -16z"/>
<path d="M9780 681 c0 -38 -6 -86 -14 -108 -17 -47 -25 -192 -11 -195 12 -4
26 60 20 90 -3 12 1 37 9 55 28 62 44 191 26 212 -23 28 -30 15 -30 -54z"/>
<path d="M7376 683 c-4 -34 -3 -60 4 -67 7 -7 10 11 10 57 0 37 -2 67 -4 67
-2 0 -6 -26 -10 -57z"/>
<path d="M7687 714 c-10 -10 -9 -82 2 -88 5 -3 12 -22 15 -41 9 -47 26 -35 26
19 0 44 -31 122 -43 110z"/>
<path d="M7315 689 c-3 -9 -2 -32 3 -50 l9 -34 7 32 c8 37 -8 81 -19 52z"/>
<path d="M8067 679 c-3 -13 -1 -19 6 -16 15 5 22 37 9 37 -5 0 -12 -9 -15 -21z"/>
<path d="M8240 662 c0 -12 34 -42 48 -42 19 0 14 18 -10 34 -25 18 -38 20 -38
8z"/>
<path d="M8090 596 c-5 -15 -8 -32 -5 -36 3 -4 -2 -22 -11 -39 -21 -42 -12
-51 44 -45 52 5 59 2 85 -38 19 -30 54 -37 63 -13 4 9 19 15 35 15 29 0 29 0
29 64 0 44 5 67 15 76 17 15 20 36 4 45 -20 13 -47 -26 -54 -78 -4 -29 -12
-58 -17 -64 -14 -18 -38 -16 -38 2 0 20 -46 37 -81 30 -21 -5 -30 -2 -38 13
-18 33 8 54 73 60 45 4 56 8 56 22 0 15 -10 17 -75 16 -73 -1 -75 -2 -85 -30z"/>
<path d="M12510 605 c0 -11 7 -15 23 -13 12 2 22 8 22 13 0 6 -10 11 -22 13
-16 2 -23 -2 -23 -13z"/>
<path d="M7350 568 c0 -8 9 -23 20 -33 11 -10 20 -15 20 -11 0 4 -9 19 -20 33
-13 17 -20 20 -20 11z"/>
<path d="M7587 560 c-7 -28 1 -46 14 -33 6 6 6 19 1 33 l-9 24 -6 -24z"/>
<path d="M5915 517 c-4 -29 -5 -79 -3 -112 4 -58 4 -58 6 16 1 54 6 80 17 89
19 16 19 46 1 53 -11 5 -16 -7 -21 -46z"/>
<path d="M7443 510 c0 -25 2 -35 4 -22 2 12 2 32 0 45 -2 12 -4 2 -4 -23z"/>
<path d="M7497 499 c-11 -40 -8 -71 6 -67 15 6 21 52 9 74 -8 14 -10 13 -15
-7z"/>
<path d="M7260 496 c0 -3 4 -14 9 -24 5 -9 14 -28 19 -42 11 -25 11 -25 11 6
1 19 -7 38 -19 49 -11 10 -20 15 -20 11z"/>
<path d="M7557 479 c-10 -35 -8 -69 2 -69 14 0 24 57 13 76 -8 14 -10 13 -15
-7z"/>
<path d="M7617 494 c-10 -10 -9 -82 2 -88 11 -7 22 63 13 81 -5 7 -11 10 -15
7z"/>
<path d="M7676 462 c-9 -54 -7 -130 3 -136 11 -7 21 43 21 110 0 63 -15 79
-24 26z"/>
<path d="M6390 430 c0 -42 14 -54 25 -20 5 17 -9 60 -20 60 -3 0 -5 -18 -5
-40z"/>
<path d="M7350 415 c0 -32 2 -56 5 -53 8 8 9 98 1 105 -3 4 -6 -20 -6 -52z"/>
<path d="M12770 460 c0 -6 7 -27 15 -46 10 -25 20 -35 32 -32 28 5 26 34 -4
62 -30 28 -43 32 -43 16z"/>
<path d="M7737 405 c-10 -57 -9 -113 2 -120 14 -8 25 99 14 132 l-10 28 -6
-40z"/>
<path d="M7405 396 c-8 -42 -3 -82 10 -79 13 4 19 113 6 113 -6 0 -13 -15 -16
-34z"/>
<path d="M11687 411 c3 -12 9 -21 14 -21 14 0 11 16 -5 29 -12 10 -13 8 -9 -8z"/>
<path d="M7466 404 c-9 -24 -7 -102 3 -108 11 -7 21 28 21 82 0 42 -12 56 -24
26z"/>
<path d="M5967 345 c-4 -38 -3 -73 2 -78 12 -12 23 96 13 124 -7 17 -10 7 -15
-46z"/>
<path d="M7795 366 c-4 -24 -4 -59 0 -78 7 -29 9 -30 16 -13 11 28 11 123 0
130 -6 3 -13 -15 -16 -39z"/>
<path d="M6273 335 c0 -38 2 -53 4 -32 2 20 2 52 0 70 -2 17 -4 1 -4 -38z"/>
<path d="M7526 384 c-8 -22 -6 -115 3 -139 6 -14 9 -5 14 35 9 76 9 120 -2
120 -5 0 -12 -7 -15 -16z"/>
<path d="M7857 364 c-3 -19 -2 -45 3 -57 7 -17 9 -8 9 36 1 65 -4 73 -12 21z"/>
<path d="M7926 371 c-4 -5 -13 -65 -21 -133 -30 -248 -30 -238 -11 -238 9 0
19 8 22 18 3 9 10 26 14 37 9 20 21 160 24 264 1 51 -13 77 -28 52z"/>
<path d="M7257 341 c-10 -47 -8 -143 2 -160 11 -17 19 106 11 159 l-6 35 -7
-34z"/>
<path d="M7586 329 c-8 -42 -7 -154 3 -204 6 -37 8 -34 14 39 10 107 9 184 -2
190 -5 3 -11 -8 -15 -25z"/>
<path d="M7202 260 c0 -65 1 -69 8 -31 4 24 3 58 -1 75 -5 22 -7 9 -7 -44z"/>
<path d="M8396 228 c-3 -51 -2 -111 3 -133 7 -30 9 -8 10 93 0 72 -1 132 -3
132 -2 0 -6 -42 -10 -92z"/>
<path d="M9737 313 c-12 -20 -18 -101 -8 -107 7 -5 11 5 11 29 0 20 5 45 10
55 10 18 -3 40 -13 23z"/>
<path d="M7315 176 c-4 -69 -3 -121 3 -132 7 -13 11 -5 16 37 6 58 2 196 -6
205 -3 3 -9 -47 -13 -110z"/>
<path d="M7646 268 c-9 -36 -7 -256 3 -262 16 -10 21 24 21 155 0 120 -9 161
-24 107z"/>
<path d="M6152 250 c0 -19 2 -27 5 -17 2 9 2 25 0 35 -3 9 -5 1 -5 -18z"/>
<path d="M6093 220 c0 -30 2 -43 4 -27 2 15 2 39 0 55 -2 15 -4 2 -4 -28z"/>
<path d="M7381 220 c0 -30 -4 -92 -8 -137 -5 -73 -4 -83 11 -83 13 0 16 11 15
73 -1 39 -5 101 -9 137 l-7 65 -2 -55z"/>
<path d="M7707 194 c-14 -83 -7 -194 12 -194 11 0 13 182 3 210 -8 22 -9 21
-15 -16z"/>
<path d="M5941 153 c0 -47 3 -62 9 -48 12 28 12 103 0 110 -6 4 -10 -19 -9
-62z"/>
<path d="M7824 196 c-3 -14 -1 -64 4 -113 l9 -88 2 113 c1 111 -3 135 -15 88z"/>
<path d="M7765 147 c-4 -33 -3 -77 2 -100 l10 -42 7 56 c4 30 4 75 -1 100
l-10 44 -8 -58z"/>
<path d="M6002 100 c0 -52 2 -58 8 -32 4 17 4 47 0 65 -6 25 -8 19 -8 -33z"/>
<path d="M6176 90 c-4 -36 -3 -67 3 -78 8 -12 10 3 11 61 0 42 -2 77 -4 77 -2
0 -6 -27 -10 -60z"/>
<path d="M6243 70 c0 -41 2 -58 4 -38 2 21 2 55 0 76 -2 20 -4 3 -4 -38z"/>
<path d="M6063 60 c0 -36 2 -50 4 -32 2 17 2 47 0 65 -2 17 -4 3 -4 -33z"/>
<path d="M6123 55 c0 -33 2 -45 4 -27 2 18 2 45 0 60 -2 15 -4 0 -4 -33z"/>
<path d="M9696 100 c-3 -8 -8 -29 -10 -46 -1 -17 -6 -36 -10 -43 -4 -7 0 -11
12 -11 15 0 21 8 24 33 5 42 -6 89 -16 67z"/>
<path d="M6301 48 c-1 -37 2 -48 15 -48 9 0 12 5 8 12 -4 7 -11 28 -15 48 -6
34 -7 33 -8 -12z"/>
<path d="M7441 43 c-1 -24 4 -43 9 -43 12 0 12 24 0 60 -7 21 -8 19 -9 -17z"/>
<path d="M2520 33 c0 -23 5 -33 15 -33 19 0 19 21 0 46 -14 18 -14 17 -15 -13z"/>
<path d="M7232 30 c0 -19 2 -27 5 -17 2 9 2 25 0 35 -3 9 -5 1 -5 -18z"/>
<path d="M7992 48 c6 -18 28 -21 28 -4 0 9 -7 16 -16 16 -9 0 -14 -5 -12 -12z"/>
<path d="M7498 27 c-4 -19 -1 -27 8 -27 15 0 16 6 5 35 -7 17 -8 17 -13 -8z"/>
<path d="M8067 33 c-16 -15 -6 -33 18 -33 27 0 32 9 13 28 -14 14 -22 15 -31
5z"/>
<path d="M13120 15 c-11 -13 -8 -15 20 -15 28 0 31 2 20 15 -7 8 -16 15 -20
15 -4 0 -13 -7 -20 -15z"/>
</g>
</svg>
