<?xml version="1.0" encoding="utf-8"?>
<!-- Generator: Adobe Illustrator 21.0.1, SVG Export Plug-In . SVG Version: 6.00 Build 0)  -->
<svg version="1.1" id="Layer_1" xmlns="http://www.w3.org/2000/svg" xmlns:xlink="http://www.w3.org/1999/xlink" x="0px" y="0px"
	 viewBox="0 0 125 125" style="enable-background:new 0 0 125 125;" xml:space="preserve">
<style type="text/css">
	.st0{fill:#FFFFFF;}
	.st1{fill:#CCCCCC;}
</style>
<path class="st0" d="M27.3,40.9l14.1-14.3c0,0,17.2-1.5,17.8-1.1c0.6,0.3,18.4,13.6,18.4,13.6l11,12.3l6.6,5.2l-1.3,15.2l-5,11.9
	l-10,10.2l-24.5,11.5L44,100.8l-8.2-12.4L28.5,74L27.3,40.9z"/>
<path class="st1" d="M65.7,98.8c-7.6,3-7,1.9-11.9,2.7c-2,0.4-4,0.4-6,0.2c-3.7-1.5-4.5-3.7-5-5.2s-0.9-5-1.7-5.8s-2.8-6.5,0.1-5.4
	c2.9,1.1,1.9-0.5,1-1.1s-2.1-3-3.4-3.5c-2.5-0.9-4-6.9-5.7-9.5s-3.2-6.1-1.7-7.8c1.5-1.7,3.3-2.6,2.2-2.8s-2.9-0.1-3.7-4.7
	s6.8-4.7,4.1-4.6c-1.9,0-3-2.4-3.5-3.9c11.4-12.9,29.4-18.3,29.4-18.3l-4.1-1.4c0,0-14.5,2.8-16,3C38.3,30.9,20.3,60,26.5,52.6
	c-0.1,0.3-0.2,0.6-0.3,0.9c-1.5,4.8,2,18.7,2.6,21.3c1.5,5.9,3.8,11.5,6.9,16.7c1.8,3.4,4.5,6.4,7.7,8.5h0.1
	c1.2,1.2,4.9,4.9,6.5,5.8c1.9,1.1,2.7,1.2,3.5,2.3s1.6,0.8,3.3-0.4s0.8-1,2.3-2.5c1.4-1.3,8.2-4,14-10.3C71.8,96,70,97.1,65.7,98.8z
	"/>
<path d="M54.4,51.9c0,0,6.3-2.4,9.9-1.7c1.4,0.3,5.7,1.3,6.2,3.4c0.5,0.7,1.3-1.1,0.3-2c-1.4-1.4-2.9-2.5-4.7-3.4
	c-1.1-0.5-9.7-0.4-10.6,0.9C54.4,49.5,53.9,50.7,54.4,51.9C54.3,51.7,54.3,51.8,54.4,51.9z"/>
<path d="M43.8,59.1c-1.7-1.6-3.9-2.5-6.2-2.5c-0.2,0-0.3,0-0.5,0c1.4-0.6,3-0.7,4.5-0.3c0.6,0.2,1.2,0.4,1.7,0.7
	c-1-0.7-2.2-1.2-3.4-1.3c-1.3-0.1-2.6,0.3-3.7,1.1c-0.8,0.3-1.5,1-1.8,1.8h-0.2c-0.1,0-0.2,0-0.4,0c0,0.1,0.2,0.2,0.3,0.3l0,0
	c0,0.1-0.1,0.2-0.1,0.3h-0.1c-0.2,0-0.4-0.1-0.7-0.1c0.2,0.3,0.4,0.4,0.7,0.4c0,0.2,0,0.3,0,0.2s0-0.1,0,0l-0.3-0.1
	c-0.3-0.1-0.5-0.2-0.8-0.2c0.2,0.2,0.4,0.4,0.7,0.5c0.1,0,0.3,0.1,0.4,0.1c0,0.2,0,0.5,0.3,0.6h0.2c0.5,0.4,1.9,1,5.1,0.9
	c-2-0.2-4.1-0.5-4.7-1.1c0.1-0.2,0.2-0.3,0.2-0.4c0.5-0.5,0.6-1.5,2-2c-0.2,0.2-0.3,0.4-0.3,0.6c0,1,0,1.6,0.8,1.9s3.2,0.8,2.8-2.5
	C41.6,58.2,42.7,58.6,43.8,59.1z"/>
<path d="M43.2,57.1c0.3,0.2,0.5,0.4,0.8,0.6C43.8,57.5,43.5,57.3,43.2,57.1z"/>
<path d="M52.8,73.1c-1.4-0.1-1.5,1-1.5,1v0.5c0.2-0.3,0.8-0.8,1.8-0.2c1,0.8,1.6,0.3,1.6,0.3c-0.5,0.2-0.6,0.1-0.7-0.2
	C54,73.7,53.5,73.1,52.8,73.1z"/>
<path d="M47.8,75.5c0.5,0.4,1.1,0.6,1.7,0.3c0-0.5-0.1-0.3-1.1-0.5c-0.7-0.2-1.4-0.6-2-1.1c0,0-0.3-0.6-0.8-0.5
	c-1.1,0.3-0.1,1.1,0.4,1.1S46.8,74.8,47.8,75.5z"/>
<path d="M66.5,81.5c-0.5-0.3-1-0.4-1.5-0.7s-1-0.5-1.5-0.7c0.4,0.4,0.9,0.7,1.4,0.9c0.5,0.3,1,0.5,1.5,0.7c0.9,0.6,1.6,1.5,2.1,2.4
	c-0.2-0.5-0.5-1-0.8-1.5C67.3,82.2,66.9,81.8,66.5,81.5z"/>
<path d="M71.6,58.1c-0.5,0.1-1.1,0.1-1.7,0c-0.4-0.1-0.7-0.3-1.1-0.5c-0.6-1.1-3.7-2.5-7.6-2.6l0,0h-0.4l0,0c-1.5-0.2-3,0.3-4.1,1.3
	c0.8-0.4,1.6-0.6,2.5-0.7c-0.3,0.2-0.5,0.4-0.9,0.7c-0.5,0.5-0.9,0.9-1.4,1.3c-0.5,0.3,1.8,0.2,2.5-0.8c0,0-0.1,2.4,1.8,2.4
	s2.5-0.8,2.4-2.4v-0.1c1.1,0.2,2.1,0.6,3.1,1.1c-0.4,0.6-1.8,2.2-6,2.2c2.5,0.4,5.1-0.2,7.2-1.5c0.3,0,0.5-0.1,0.8-0.1
	c0,0,0,0.1,0.1,0.1c0.2,0.2,0.3,0.3,0.5,0.4c0.4,0.2,0.8,0.3,1.2,0.3c0.8,0.1,1.6,0.1,2.5,0.1c-0.8,0-1.6-0.1-2.4-0.2
	c-0.4-0.1-0.8-0.2-1.2-0.4c-0.2-0.1-0.4-0.2-0.5-0.4c0.1,0,0.1-0.1,0.1-0.1l0,0C69.9,58.4,70.8,58.4,71.6,58.1z"/>
<path d="M89.6,59.8C89,58.9,86.5,60,86.5,60c1.7-0.3,2.1,0.1,2.5,0.9s0,2.4,0,3.8C89.4,63.7,90.2,60.7,89.6,59.8z"/>
<path d="M83,66.8c0,0.2,0.4-2,0.9-1.7s0.6,0.2,1,1s0.6-2.8-1.5-2.8c0,0-1.3,1.2-0.8,2.1C83,65.8,83.1,66.3,83,66.8z"/>
<path d="M35.5,46c0.3-0.1,0.6-0.2,0.9-0.1c0.3,0,0.7,0,1,0c0.7-0.1,1.3-0.3,1.9-0.4c-0.7,0-1.3,0.1-1.9,0.2c-0.3,0-0.6,0-0.9,0
	c-0.3-0.1-0.7,0-1,0.1c-1.2,0.5-2.3,1.2-3.3,2l1.7-1C34.4,46.5,34.9,46.3,35.5,46z"/>
<path d="M62,42.3c1.2,0.1,2.3,0.4,3.5,0.6c1.1,0.3,2.2,0.7,3.2,1.4c-0.9-0.7-2-1.3-3.2-1.6c-1.1-0.3-2.3-0.6-3.5-0.7
	c-2.4-0.3-4.7-0.3-7.1-0.2c1.2,0,2.4,0.1,3.5,0.1S60.9,42.1,62,42.3z"/>
<path d="M31.4,56.8c0.3-0.6,1.5-3.9,3-4.3c1.3-0.4,2.7-0.5,4-0.2c1.4,0.2,2.8,0.3,4.2,0.2c0.8-0.2-0.9-2.2-3.2-2.2s-4.9-0.4-6,0.3
	c-1.3,1.3-2.3,2.8-3,4.5C30.3,56,31.1,57.4,31.4,56.8z"/>
<path d="M57.8,72.2c-0.3-0.4-0.6-0.8-0.9-1.3c-0.3-0.5-0.5-0.9-0.8-1.4c0.3,1,0.8,2,1.5,2.8c0.3,0.4,0.7,0.8,1.2,1.1
	c0.4,0.3,0.9,0.5,1.5,0.6C59.3,73.7,58.4,73.1,57.8,72.2z"/>
<path d="M95.8,107.2h-0.6C95.4,107.3,95.6,107.3,95.8,107.2z"/>
<path d="M106.1,102.3c-1.3,1.5-2.9-2.4-1.5-4.5s3.6-2.4,3.5-5.3s-3.3-4.4-7.5-3.8c0.2-4,3.1-8.4,1.5-13.9s-4.7-23.5-6.8-26.1
	s-6-30.9-29.5-32.3S35,23.2,30,28.1s-12.3,12.4-9.8,31c2.7,12.4,8.1,20.6,5.8,25s-0.9,7.5-3.8,6.8s-6.9-1.6-5.8,1.6
	s-0.5,5.8,5.5,6.9s13.2-0.1,16-4.6c-2.3-5.1-3.9-4.3-4.8-10.3c-0.7-4.9-2-7.6-2.9-11.9c0.2,0.4-0.2-0.8-0.3-1.4
	C28.5,62.1,28,55,29.3,49c0.3-1.3-0.5-0.2,0.7-1.8c4.2-5.5,10.1-13.1,14.6-15.1c2,0.7,5.7-0.1,6.4-1.1s3.7-1.1,5.7-1.2
	c0.4,0,0.8-0.1,1.1-0.3l0.3,0.2c0,0,8.1,1.8,9.4,3.8s1.3,4.1,2.6,5.5c0.9,0.8,1.9,1.5,2.9,2.1c1.2,2.2,2.3,4.3,3.5,6.2
	c0.9,1.3,1.5,2.8,1.9,4.3c0,0.3,0.1,0.7,0.2,1c0,0.4,0.2,0.8,0.3,1.2c0.8,3.3,2.5,9,3.4,9.5c1.2,0.6,2.3-1.1,2.7-1.5
	c0.8-1.3,1.4-2.8,1.8-4.3c1.3-0.4,7.3-1.8,1.9,11c-2.6,6.8-3.7,8-4.4,8.8l-0.2,0.3c-2.1,2-3,0.5-3,0.5c0.2,1.1,0.2,2.3,0,3.5
	c-0.1,0.6-0.2,4.2-0.2,5.7c-0.9,3.2-2.8,11.3,0.8,15.1c3.8,4,10.6,4.9,12.5,5c-0.9-0.2-2.8-1-4-4.9c3.4,4.7,14.5,8.2,18,1.8
	C110.1,102,107.3,100.9,106.1,102.3z"/>
<path d="M76,92.5c-0.6,0.9-1.3,1.7-2,2.5C74.7,94.2,75.4,93.4,76,92.5z"/>
<path d="M46.3,86.1c0.7,0.2,4.1,1.5,7.1,1.1c0,0,3.7-0.5,4.8-1.1c-5.5,1-7.8,0.8-8.3,0.5c-1-0.6,0.7-1.5,1.8-1.5c0.2,0,0.2,0,0.2,0
	c1.3-0.2,2.6-0.4,3.8-0.7c0.7-0.2,1.5-0.3,2.2-0.4c0.5,0,2,0.1,2.4,0s1.2-0.1,2.4-0.2c0.6,0,1.1-0.3,1.5-0.8c-0.3,0.1-0.7,0.2-1,0.3
	c-1,0-2-0.1-3-0.2c-1.4,0-2.7-0.1-4.1-0.3c-1-0.2-2-0.2-3,0.1c-1.3,0.8-3.4,0.1-4.1-0.2c-0.7-0.3-5.2,1.9-5.6,2.8h0.2l0,0L46.3,86.1
	z"/>
</svg>
