<?xml version="1.0" encoding="utf-8"?>
<!-- Generator: Adobe Illustrator 21.0.1, SVG Export Plug-In . SVG Version: 6.00 Build 0)  -->
<svg version="1.1" id="Layer_1" xmlns="http://www.w3.org/2000/svg" xmlns:xlink="http://www.w3.org/1999/xlink" x="0px" y="0px"
	 viewBox="0 0 125 125" style="enable-background:new 0 0 125 125;" xml:space="preserve">
<style type="text/css">
	.st0{fill:#FFFFFF;}
	.st1{fill:#CCCCCC;}
</style>
<g>
	<path class="st0" d="M37.3,26.1l-7.7,14.5l3.8,20.9l4.7,17l0.7,10.2l4,8l8.8,7.7l17.8-1.9l8.6-7.6c0,0,7.9-6.1,7.9-13.1
		c0-6.9,0-5.8,0-5.8s0.9,2.9,5.1-0.2c1.7-1.8,1.1-6.4,3-8.5s1.8-10,0.9-11.3s-3.1-2-4.3-0.8c-1.2,1.2-0.2-21-0.2-21
		s-10.6-8.6-11-8.7C79.2,25.4,37.3,26.1,37.3,26.1z"/>
	<g>
		<path class="st1" d="M52.4,78.2c0.6,0.3,1.4,1.1,2,1.2c0.8,0.1,1.9-0.5,2.4-0.4c1.1,0.1,2.7-0.5,3-2.3c-0.7,0.4-2.2,0.7-3.4,0.5
			c-0.9-0.2-1.5-1.3-2.6-1.9c-1.1-0.6-1.1,1.3-1.5,0.1c-0.4-1.2,0.3-2.7,1-3.5c0.8-0.9,1.8-1.5,1.6-5c-0.3-3.5,0.3-7.6,0.3-7.6
			s-1.1,4.8-2.1,6c0.4,0.4,0,1.7,0,2.9c0,1.2-0.6,2.9-1.7,6C50.3,77.2,51.1,77.5,52.4,78.2z"/>
		<path class="st1" d="M77.8,88.4c-0.8,1.7,0,1.4-5.6,8.3s-11.4,5-11.4,5c-2.5,0.4-9.4,1.4-9.2-2.1c0.8-9.6-3.8-7.8-4.5-8.6
			c-0.7-0.8-3.6-1.6-2.2-5.4c5.3-13.1-4.5-12.5-5.5-14.1s-3.9-8.1,0-13.4c1.8-2.5,3.6-2.3,6.1-2.2c6.4,0,3-4.3,1.4-7.9
			c-1.4-3.3,1.7-18,1.7-18s1.3-1.4-2.5-4.3s-9.8,6.2-12.4,10.5c-2.5,4.3,1.1,22.4,1.1,22.4c-2-2.2-3.6,0.1-3,2.7
			c0.6,2.5,0.3,5.3,0.3,5.3h0.2c-0.6,2.1,0.7,5.7,1,7.9c0.6,5.2,4.5,4.5,4.5,4.5c0,10.4,4.5,11.8,4.6,13.7c0.1,1.9-0.5,4.1,1,6.5
			c2.7,5.7,14.2,14.7,14.8,12.4c0.6-2.3,3.5-3.1,6.2-5.2c2.7-2.1,8.3-2.9,11.1-4.2c2.7-1.3,4.7-6.5,5.7-8.3
			C76.9,96.1,78.2,91.6,77.8,88.4z"/>
		<path class="st1" d="M65.4,72.9c0,0,3.4,3.7,4.1,5s2,1,1.7,0.2C71,77.3,70.1,72.9,65.4,72.9z"/>
		<path class="st1" d="M72.7,63.9c-1.1,0.8-4,0.7-4.4,0.5c-0.7-0.3-0.8-0.6-1.2-1.2c-0.3-0.6-2.3-0.6-2.3-0.6
			C65.4,65.3,72.3,64.9,72.7,63.9z"/>
		<path class="st1" d="M88.2,80.4c-0.1,0.8-0.2,1.4-0.2,1.4C88.1,81.4,88.2,80.9,88.2,80.4z"/>
		<path class="st1" d="M88.5,76.3c-0.3-0.9-0.8-0.1-0.8,0.7c0.2,0.4,0.5,2.1,0.5,3.4c0.1-1.1,0.3-2.6,0-3.4c0.6,0.6,3.5,1.7,5.2-1.8
			C91.7,77.6,88.8,77.1,88.5,76.3z"/>
	</g>
	<g>
		<path d="M73.4,60.6h1.2c0,0-2.5-2.3-5.4-2.3c-2.8,0-2.5,0.1-4.9,1.5c1.8-0.8,1.6-1.1,2.2-0.9c-0.3,0.7-0.2,2,0.2,2.4
			c0.2,0.2,2.8,1.4,3.7-0.8c0.3-0.7,0.4-1,0.3-1.3C71.3,59.5,72.9,60,73.4,60.6z"/>
		<path d="M72.2,57.2c0,0,3.6,0.8,4,1.4c0.7-0.4,1.9-0.5,1.9-1.1c-0.8-0.2-3.7-1.7-4.7-2.9c-1-1.1-5.1-0.8-7.1,0.6
			c-2,1.4-3.4,1.6-4.5,1.6c-1-0.1-3.4-1.1-3.8-5.3c0-0.2-1.7,5.8,3.4,6.5c1.7,0.3,2.1,0.8,1.8,1.5c0.3-0.2,1.2-0.8,2.4-1.4
			c-0.4,0.2-0.9,0.5-1.3,0.8c0.9-0.6,1.9-0.9,2.9-1.1c1-0.2,2.1-0.1,3.1,0c1,0.2,2,0.5,2.9,0.9c0.5,0.2,0.9,0.4,1.4,0.7
			c0.5,0.2,0.9,0.5,1.4,0.7c-0.3-0.4-0.8-0.7-1.2-1c-0.5-0.3-0.9-0.5-1.4-0.7c-1-0.4-2-0.7-3.1-0.9c-1.1-0.1-2.1-0.1-3.2,0.1
			c-0.5,0.1-1,0.3-1.5,0.5C67.4,57.3,69.7,56.6,72.2,57.2z"/>
		<path d="M41.4,61.2c0,0,0.7,0.1,1-0.2s1.2-1,1.4-0.9c0.2,0.1-0.4,2.6,2.3,2.5c2.6-0.1,2.2-2.2,2.2-2.8c0.5,0,1.7,0.1,2.4,0.4
			C50,59.4,44.7,56.9,41.4,61.2z"/>
		<path d="M63.2,76.6c1.2-2.3-3.6-0.2-3.4,0C59.8,76.6,60.9,77.4,63.2,76.6z"/>
		<path d="M52.9,76.3c-1-0.6-0.8,0-0.6,0.2c0.2,0.2,1.9,1,1.9,1C54.5,77.3,53.9,76.8,52.9,76.3z"/>
		<path d="M67.1,86.4c0.4-0.1,1.8-0.3,2.3,0.3c0.5,0.6,1.1,0.2,1.1-0.2c0.1-0.4-1.2-0.6-2.3-0.8c-1-0.1-6.6-2-8.4-1.4
			c-2.2,1.2-3.8,0-4.3-0.1s-3.4,0.9-3.7,1s-1.1,0.5-1.4,0.3s-1.7,0.4-1.6,0.9c0.3,0.6,2.5,0.3,3.3,0.2c0.8-0.1,3-0.6,3.9-0.1
			c1.7,0.6,4.6,0.2,6.2-0.1C63.6,86.6,66.7,86.4,67.1,86.4z"/>
		<path d="M53.9,89.6c2.6,1.1,4.8,0.9,6.3,0.9c0.9,0,1.4-1,1.4-1.1C58.1,90.5,53.9,89.6,53.9,89.6z"/>
		<path d="M75.4,98.3c-1.3,1.3-6.2,2.7-6.2,2.7s-7.5,4.8-15.7,1c-2.7-2.3-4.9-4.3-7.9-6.5s-5.8-4.9-7.3-7.8c0,0,1.6,5.7,9.2,10.8
			c3.9,2.8,4.8,4.1,6.3,5.4c0,0,4.4,2.8,10.5,0.6c6.1-2.2,9.6-3.4,10.5-4.3s1.4-2.2,1.8-3s6.7-6.5,7.9-8.5
			C82.2,91.7,77.8,95.1,75.4,98.3z"/>
		<path d="M43.9,91.4c1.2,1.7,1.5-0.3,0.9-1.3c-0.5-0.8-2.5-4.1-3.5-7.4C41.9,85.6,43.1,90.3,43.9,91.4z"/>
		<path d="M41.3,82.7c-0.3-1.4-0.5-2.4-0.5-2.4C40.8,81,41,81.9,41.3,82.7z"/>
		<path d="M90.1,58.3c3.7-3.2,1.7-2.1,3.6-3.4c0.6-0.4,1.2-2,1.6-5.2c0.1-1.1,0.6-3,0.7-4.2c0.1-1-0.3-2.5-0.3-3.6
			C95.6,35.3,93.9,28,89,23.6c-7.2-6.5-11.7-12-30.8-10.1c-3.8-0.4-5.2-0.2-6.7,0.9c-1.7,1.7-3.9,1-6,1.7c-0.8,0.3-1.1,0.9-1.9,1.3
			C37,21,31.5,30.6,30,35.9c-3.1,11.1,2.5,21,3.1,21c1,0,2.5,16.3,3.1,18.6c0,0-1.8-12.5-0.4-16.1c1.4-3.7-3.5-13.4-1.9-17.9
			c1.6-4.5,4.4-11.5,7.5-11.9c3.2-0.4,10,5.5,14.6,5.3c2.5-0.1,6.1,0.9,9.2,0.6c1.7-0.2,4.2-0.1,7.1,0.3c-0.1-2.3,2-2.9,3.6-4.1
			c1.7-1.6,3.5-0.5,5.4,1.4c0.9,0.9,2.4,1.6,3.2,2.8c1.3,2.1,2.3,4.3,2.3,5.5c0.2,3.1,1,4.6-1.6,17.7c-0.6,3.5,0.4,12,0.2,14.1
			c-0.2,2.1,1.5-2.3,1.6-4.3C87,68.9,86.4,61.5,90.1,58.3z"/>
		<path d="M31.7,62.1c0.2,1.5,0.3,4.1,0.3,4.1c0.2-3.3,2.4-4.1,1.7-4.7C31.6,57.8,31.5,60.6,31.7,62.1z"/>
		<path d="M95.2,64c0.1,0.5,0.2-0.5,0.2-1.7C95.3,63.4,95.1,63.2,95.2,64z"/>
		<path d="M92.4,58.4c0.5,0.7,0.6,0.9,2,0.7c0.8-0.1,1,1.7,1,3.2c0.1-0.6,0.2-1.4,0.3-2.9C95.9,54.9,92.4,58.4,92.4,58.4z"/>
		<path d="M91.4,64.7c-0.6-0.4,0.3-1.2,0-1.7c-1.1-1.2-1.7,0.8-1.7,0.8c-0.1,0.3,0.2,1.2,0.8,2c1.1,1.2,1.6,2.1,1.9,1.3
			C92.8,66.1,92,65.1,91.4,64.7z"/>
		<path d="M39.8,58.6c0.5-0.8,3.2-1.4,4.2-1.1c0.4,0.1,0.8,0.3,1.3,0.4h-0.1c-0.6,0.1-1.2,0.3-1.7,0.5c-0.5,0.3-1.1,0.6-1.5,1
			c-0.5,0.4-0.9,0.8-1.2,1.3c0.5-0.4,0.9-0.7,1.4-1.1c0.5-0.3,1-0.6,1.5-0.9c0.5-0.3,1.1-0.5,1.6-0.6c0.3-0.1,0.5-0.1,0.8-0.1
			c0.8,0.2,1.6,0.4,2.3,0.4c1,0,3.8,1.2,5,2.5c0.3,1-0.9,3.9-2.8,5.6c2.2-1.2,3-3.1,3.3-4.3c0,0,0.3-0.8,0.4-1.9
			c0.4-1.9,0.3-4.3,0-5.3c-0.2,2.3-0.9,3.1-1.4,3.3c-0.2-0.2-0.4-0.3-0.7-0.5c-2.7-1.5-4.5-3.1-5.1-3.3c-0.7-0.1-3,0.1-5.1,0
			c-2.2-0.1-4.6,3-4.7,3.9C37.1,59.6,39.3,59.4,39.8,58.6z"/>
		<path d="M46.6,65.1c0.8-0.1,1.5-0.3,2.2-0.6c-0.7,0.2-1.5,0.3-2.2,0.3s-1.5-0.1-2.1-0.4c-0.7-0.3-1.3-0.7-1.8-1.2s-1-1.1-1.4-1.7
			c0.2,0.7,0.7,1.4,1.2,2c0.5,0.6,1.2,1,1.9,1.3C45,65,45.8,65.1,46.6,65.1z"/>
		<path d="M64.6,45.7c-0.9,0-1.7,0-2.6,0.1c-0.4,0.1-0.9,0.1-1.3,0.2c-0.1,0-0.2,0.1-0.3,0.1s-0.2,0.1-0.3,0.1
			c-0.2,0.1-0.4,0.1-0.6,0.1c-0.8,0.2-1.7,0.2-2.5,0.2s-1.7-0.2-2.5-0.4s-1.7-0.4-2.6-0.5c-0.9-0.1-1.7-0.2-2.6-0.2
			c-0.9,0-1.7-0.1-2.6,0c0.9,0.1,1.7,0.1,2.6,0.2c0.9,0.1,1.7,0.2,2.6,0.3c0.8,0.1,1.7,0.3,2.5,0.5c0.8,0.3,1.7,0.4,2.6,0.4
			s1.8,0,2.6-0.2c0.2,0,0.4-0.1,0.6-0.2c0.1,0,0.2-0.1,0.3-0.1s0.2-0.1,0.3-0.1c0.4-0.1,0.8-0.2,1.2-0.3
			C62.8,45.8,63.7,45.7,64.6,45.7c0.9,0,1.7,0,2.6,0.2c-0.4-0.2-0.8-0.2-1.3-0.3C65.4,45.8,65,45.7,64.6,45.7z"/>
		<path d="M49.6,49.3c-0.4-0.1-0.9-0.1-1.3-0.1c-0.4,0-0.9,0-1.3,0.1c0.4,0.1,0.9,0.1,1.3,0.2l1.3,0.2c0.4,0.1,0.8,0.1,1.3,0.2
			c0.4,0.1,0.8,0.1,1.3,0.3c-0.4-0.3-0.8-0.4-1.2-0.5C50.5,49.4,50.1,49.3,49.6,49.3z"/>
	</g>
	<path class="st0" d="M62.4,59.1c0,0-0.4,0.2,0,0.6C62.9,60.1,63.2,59.1,62.4,59.1z"/>
	<path class="st0" d="M50.1,59.8c0,0-0.2,0.4,0.3,0.3C51,60,51.5,59.5,50.1,59.8z"/>
</g>
</svg>
