<?xml version="1.0" encoding="utf-8"?>
<!-- Generator: Adobe Illustrator 21.0.0, SVG Export Plug-In . SVG Version: 6.00 Build 0)  -->
<svg version="1.1" id="Calque_1" xmlns="http://www.w3.org/2000/svg" xmlns:xlink="http://www.w3.org/1999/xlink" x="0px" y="0px"
	 viewBox="0 0 500 500" style="enable-background:new 0 0 500 500;" xml:space="preserve">
<style type="text/css">
	.st0{fill:#FFFFFF;}
</style>
<path d="M180.4,327.8c0,0-0.2,12.6,19.3,15.8s26.9,8.5,31.6,12.7c4.6,4.2,14.9,2.3,16.7,5.4s-1,10,0,13.8c0.7,2.6,5,6.1,5,10.7
	c0.1,4.9-4.1,10.7-4.1,10.7l34.3-9.3l20.7-36.7c0,0,16-23.1,19.9-35.9c0.9-2.9,2.9-9.6,1.1-7.6c-2.1,2.5-9.1,16.2-12.2,19.3
	c-5.2,5.2-11,8.2-11.4,7.6c-1.9-3.1-12.2,10.3-17.1,10.9s-20.8,8.5-34.5,6.8c-13.7-1.7-14.9-2.2-20-3.8c-5.1-1.6-15-9.7-23.6-10.5
	S183.1,333.4,180.4,327.8z"/>
<path class="st0" d="M175.7,393.5c0,0-0.8-28.4,3.1-31.5c2.1,9.7,5.5,33.8,20.2,41.5c0,0,7.1,2,8.9,5.2c1.9-0.8,4.5-3.1,12-3.7
	c7.4-0.6,21-5,27.6-7.4c6.6-2.5,35.7-21.7,44.8-31.6c9.1-9.9,28.7-38.8,32-53.6c0-4.5,0.8,0.2,3.1,3.1c2.3,2.9,3.3,3.5,3.3,3.5
	l5.6,27.9L226.5,500h-80.5l11.3-28.4L175.7,393.5z"/>
<g>
	<path d="M207.9,408.7c1.5-0.7,2.9-1.6,4.5-2.2c1.6-0.6,3.2-1,4.8-1.3c1.6-0.3,3.3-0.4,4.9-0.6c1.6-0.2,3.3-0.6,4.9-1
		c6.5-1.5,12.8-3.5,19-5.7c3.1-1.1,6-2.8,8.8-4.5c2.8-1.7,5.6-3.5,8.4-5.3c5.5-3.7,11-7.5,16.2-11.5c5.2-4,10.5-8.1,14.7-13.2
		c4.2-5.1,8.1-10.5,11.8-16c3.7-5.5,7.2-11.1,10.4-16.9c3.2-5.8,6.2-11.8,7.8-18.2c-1.6,6.5-4.5,12.5-7.6,18.3
		c-3.2,5.8-6.6,11.5-10.3,17c-3.7,5.5-7.6,10.9-11.8,16c-2.1,2.6-4.5,4.9-7,7.1c-2.5,2.2-5.1,4.2-7.7,6.3c-5.3,4-10.8,7.8-16.3,11.4
		c-2.8,1.8-5.6,3.6-8.4,5.3c-2.9,1.7-5.7,3.4-8.9,4.5c-6.3,2.2-12.6,4.2-19.1,5.6c-1.6,0.4-3.3,0.7-4.9,0.9
		c-1.6,0.3-3.3,0.3-4.9,0.6c-1.6,0.3-3.3,0.6-4.8,1.2C210.8,407.1,209.4,407.9,207.9,408.7z"/>
</g>
<g>
	<path d="M178.8,362c0.9,3.9,1.7,7.8,2.6,11.6c1,3.8,2.1,7.7,3.5,11.3c1.5,3.7,3.2,7.3,5.5,10.5c2.3,3.2,5.2,6,8.7,7.9l0,0
		c1.7,0.5,3.3,1.2,4.9,2c0.8,0.4,1.5,0.9,2.2,1.4c0.7,0.5,1.3,1.2,1.8,1.9c-0.4-0.8-1.1-1.3-1.8-1.9c-0.7-0.5-1.5-0.9-2.2-1.3
		c-1.6-0.8-3.2-1.4-4.9-1.8l0,0l0,0c-3.6-1.8-6.6-4.7-8.9-7.9c-2.3-3.2-4.1-6.9-5.6-10.6c-1.4-3.7-2.5-7.6-3.4-11.4
		C180.2,369.9,179.5,365.9,178.8,362z"/>
</g>
<path d="M21.7,500c4.3-6.1,8.3-10.5,11.4-12.3c0-12.8,6.2-36.3,40.4-52s87.5-39.2,99.5-37.1c0.5-4.4,1.4-2.9,2.6-5
	c-0.7,6.5-9,43.6,1.6,55.4c-2,16.4-7.6,30.1-7.6,30.1l-8.6,21L21.7,500z"/>
<path d="M500,500l0-77.6c-3.7-3.4-7.2-5.7-9.7-5.7c-4.5-5.4-21-15.3-30.5-19c-9.5-3.7-17.3-8.3-28.9-8.7c-8.7-7.4-14-10.7-22.7-14.4
	c-8.7-3.7-26.4-10.3-32.6-13.2c-6.2-2.9-7.8-7-13.2-11.1c-5.4-4.1-24.8-26-25.6-29.3s-6.2-2.1-6.2-2.1s0.4,5.8,0,8.3
	s-10.7,26-24.8,41.7s-27.2,38.4-30.9,43.3c-3.2,4.3-50.9,65.5-67.1,87.9L500,500z"/>
<path d="M169.4,500c1.7-4.7,3.1-9.7,3.8-14.9c2.2-15.2,3.4-21,8.4-23.9c5-3,16.4-2.3,21,0c4.6,2.3,11.8,10,12.7,12.5
	s-1.1,17.7-1.1,17.7l-2.4,8.7L169.4,500z"/>
<path d="M179.3,463v-14.1h-2c0,0-8.1-31.6,23.8-40.2c-1.9,5.3-5,8,2.2,6.8s5.9-6.5,10.5-4.3c4.6,2.2,27.4,25,32.6,38
	c-3.2,4.1-21.7,13.6-23.9,16.7s-7.1,7.7-7.1,7.7L179.3,463z"/>
<g>
	<path d="M153.4,288.6c0.9,3.2,2.2,6.3,3.7,9.3c1.5,3,3.3,5.9,5.4,8.4c1,1.3,2.2,2.5,3.4,3.6l1.9,1.7c0.6,0.6,1.2,1.2,1.8,1.8
		c2.3,2.5,4.3,5.2,6.4,7.8c2.1,2.6,4.1,5.3,6.5,7.6c0.6,0.6,1.2,1.1,1.8,1.6c0.7,0.5,1.3,1,2,1.3c0.7,0.4,1.4,0.6,2.2,0.9
		c0.8,0.2,1.6,0.4,2.4,0.6c6.5,1.5,13.2,2.6,19.7,4.5c3.3,1,6.5,2.1,9.6,3.7c0.8,0.4,1.5,0.9,2.2,1.4l2.1,1.4
		c1.4,0.9,2.8,1.6,4.3,2.3c3,1.4,6.1,2.4,9.4,3c3.2,0.7,6.5,1,9.8,1.2c6.6,0.2,13.3-0.6,19.8-2c6.5-1.4,12.9-3.5,19.1-5.8l0,0l0,0
		c1.6-0.5,2.9-1.8,4.2-3.1c1.3-1.4,2.7-2.8,4.2-4.1c1.5-1.3,3.3-2.3,5.2-3.1l1.4-0.5l1.5-0.3c0.5-0.1,0.8-0.2,1.3-0.3
		c0.4-0.1,0.8-0.3,1.2-0.5c1.6-0.8,3.1-2,4.5-3.3c1.4-1.3,2.6-2.7,3.9-4.1c2.4-2.9,4.5-6.1,6.5-9.4c3.8-6.6,6.8-13.7,8.9-21.1
		c2.1-7.4,3.4-15,3.6-22.7c0.1,7.7-1,15.4-2.9,22.9c-1.9,7.5-4.8,14.7-8.6,21.5c-1.9,3.4-4,6.6-6.4,9.7c-1.2,1.5-2.5,3-3.9,4.4
		c-1.4,1.4-2.9,2.6-4.8,3.6c-0.9,0.5-2,0.9-2.9,1.1l-1.3,0.3l-1.3,0.4c-1.7,0.6-3.3,1.6-4.7,2.8c-1.4,1.2-2.7,2.6-4,4
		c-1.3,1.4-2.8,2.9-5,3.6l0.1,0c-6.3,2.4-12.8,4.5-19.4,6c-6.6,1.4-13.4,2.3-20.2,2.1c-3.4-0.2-6.8-0.5-10.2-1.3
		c-3.3-0.7-6.6-1.7-9.7-3.2c-1.6-0.7-3.1-1.6-4.5-2.5l-2.1-1.4c-0.7-0.4-1.3-0.9-2.1-1.3c-2.9-1.5-6-2.6-9.2-3.6
		c-6.4-1.9-13-3.1-19.5-4.8c-0.8-0.2-1.6-0.4-2.5-0.7c-0.8-0.3-1.7-0.6-2.4-1.1c-0.8-0.4-1.5-1-2.2-1.5c-0.6-0.6-1.3-1.1-1.9-1.7
		c-2.4-2.4-4.4-5.2-6.5-7.8c-2-2.7-4-5.4-6.2-7.9c-0.5-0.6-1.1-1.2-1.7-1.8l-1.8-1.8c-1.2-1.2-2.4-2.4-3.4-3.8
		C157.9,301.4,155.1,295.1,153.4,288.6z"/>
</g>
<g>
	<path d="M129.9,225.1c-2.2-1.9-4.5-3.7-6.9-5.2c-2.5-1.5-5.1-2.8-7.9-3.3c-2.8-0.6-5.7,0.3-7.7,2.3c-1,1-1.8,2.2-2.4,3.4
		c-0.7,1.3-1.1,2.6-1.5,4c-0.7,2.8-1.1,5.6-1.2,8.5c-0.1,1.4-0.1,2.9,0,4.3c0.2,1.4,0.5,2.7,1.1,4c1.2,2.6,2.9,4.8,4.7,7.1
		c1.7,2.3,3.5,4.6,4.8,7.3c2.4,5.3,4.6,10.6,7.1,15.8c1.3,2.6,2.6,5.2,4,7.6c0.7,1.2,1.5,2.4,2.4,3.5c0.4,0.6,0.9,1.1,1.4,1.5
		c0.6,0.5,1.1,1,1.6,1.5c2,2.1,3.9,4.3,5.9,6.4c1,1,2,2,3.1,2.9c1.1,0.9,2.3,1.7,3.6,2.1c2.7,0.2,5.9-0.5,7.6-2.8
		c0.9-1.1,1.6-2.4,2.2-3.7c0.6-1.3,1.1-2.7,1.6-4c-0.9,2.7-1.8,5.5-3.6,7.9c-0.9,1.2-2.1,2.1-3.5,2.5c-0.7,0.2-1.4,0.4-2.1,0.5
		c-0.7,0.1-1.5,0.3-2.2,0.1c-1.5-0.3-2.7-1.2-3.9-2.1c-1.2-0.9-2.2-1.9-3.2-2.9c-2-2.1-3.9-4.3-6-6.3c-0.5-0.5-1-1-1.6-1.5
		c-0.5-0.5-1.1-1-1.5-1.6c-0.9-1.1-1.7-2.4-2.5-3.6c-1.5-2.5-2.8-5.1-4.1-7.7c-2.5-5.2-4.8-10.6-7.2-15.8c-1.2-2.6-2.9-4.9-4.7-7.2
		c-1.7-2.3-3.6-4.6-4.8-7.4c-0.6-1.4-1-2.8-1.1-4.3c-0.1-1.5-0.1-2.9,0-4.4c0.2-2.9,0.6-5.8,1.4-8.6c0.4-1.4,0.9-2.8,1.6-4.1
		c0.7-1.3,1.5-2.6,2.6-3.6c2.1-2.1,5.3-3,8.2-2.4c2.9,0.5,5.5,2,7.9,3.5C125.6,221.3,127.8,223.1,129.9,225.1z"/>
</g>
<g>
	<path d="M333.2,270.6c0.3,1.3,0.6,2.5,1.1,3.7c0.5,1.2,1,2.4,1.9,3.3c0.4,0.5,0.9,0.9,1.5,1.1c0.6,0.2,1.2,0.2,1.8,0
		c1.2-0.4,2.1-1.3,2.9-2.3c1.5-2,2.3-4.6,2.9-7c0.6-2.5,0.9-5.1,1.4-7.6c0.1-0.6,0.2-1.3,0.4-1.9c0.2-0.7,0.4-1.3,0.7-1.9
		c0.5-1.2,1-2.4,1.5-3.6c0.9-2.4,1.7-4.8,2.4-7.3c1.4-5,2.3-10.1,2.3-15.2l0-0.1l0-0.1c1-2.5,1.7-5.2,2.4-7.8
		c0.7-2.7,1.3-5.4,1.7-8.1c0.9-5.4,1.5-10.9,1-16.4c-0.3-2.7-0.9-5.4-2.3-7.7c-0.7-1.1-1.6-2.2-2.7-2.9c-1.1-0.7-2.5-1.1-3.8-0.8
		c-1.3,0.2-2.5,0.8-3.6,1.6c-1.1,0.8-2.1,1.8-3,2.8c-0.9,1-1.7,2.1-2.5,3.3c-0.8,1.2-1.5,2.3-2,3.6c1-2.6,2.5-4.9,4.3-7.1
		c0.9-1.1,1.9-2.1,3-2.9c1.1-0.8,2.4-1.6,3.8-1.8c1.4-0.3,2.9,0.1,4.2,0.8c1.2,0.8,2.2,1.8,3,3c1.5,2.4,2.2,5.2,2.5,8
		c0.3,2.8,0.3,5.6,0.2,8.3c-0.2,2.8-0.5,5.5-1,8.3c-0.5,2.7-1,5.5-1.7,8.1c-0.7,2.7-1.4,5.4-2.4,8l0-0.2c0,5.2-1,10.4-2.4,15.4
		c-0.7,2.5-1.6,5-2.5,7.4c-0.5,1.2-1,2.4-1.5,3.6c-0.3,0.6-0.5,1.1-0.7,1.8c-0.2,0.6-0.3,1.2-0.4,1.9c-0.5,2.5-0.9,5.1-1.5,7.6
		c-0.7,2.5-1.5,5.1-3.1,7.2c-0.8,1-1.9,2-3.2,2.4c-0.6,0.2-1.4,0.2-2,0c-0.6-0.2-1.2-0.7-1.6-1.2c-0.9-1-1.4-2.2-1.8-3.4
		C333.7,273.2,333.4,271.9,333.2,270.6z"/>
</g>
<g>
	<path d="M110.1,246.3c-1.7-2.2-2.7-5-3.1-7.8c-0.3-2.8-0.1-5.7,0.7-8.4c0.4-1.4,1-2.7,1.8-3.9c0.8-1.2,1.9-2.3,3.4-2.8
		c1.6-0.4,3.2,0.2,4.3,1c1.2,0.8,2.2,1.9,3.2,2.9c0.9,1.1,1.7,2.3,2.5,3.5c0.4,0.6,0.7,1.2,1.1,1.8c0.2,0.3,0.4,0.6,0.5,0.9
		c0.2,0.3,0.4,0.5,0.6,0.8c1.8,2.1,3.7,4.1,5.7,6.1c1,1,2,2,3,2.9c0.5,0.5,1,0.9,1.6,1.3l0.4,0.3c0.2,0.1,0.3,0.3,0.4,0.5
		c0.2,0.3,0.3,0.7,0.4,1.1c0.2,1.4,0,2.9-0.2,4.2c-0.2,1.4-0.5,2.8-0.9,4.1c0.3-1.4,0.5-2.8,0.6-4.1c0.1-1.4,0.2-2.8-0.1-4.1
		c-0.1-0.3-0.2-0.6-0.3-0.9c-0.1-0.1-0.2-0.2-0.3-0.3l-0.5-0.3c-0.6-0.4-1.2-0.8-1.7-1.3c-1.1-0.9-2.1-1.9-3.1-2.8
		c-2-1.9-4-4-5.8-6.1c-0.2-0.3-0.4-0.6-0.7-0.8c-0.2-0.3-0.4-0.6-0.6-0.9c-0.4-0.6-0.7-1.2-1.1-1.8c-0.8-1.2-1.6-2.3-2.4-3.3
		c-0.9-1.1-1.8-2-2.9-2.8c-1.1-0.8-2.4-1.2-3.6-0.9c-1.2,0.3-2.2,1.3-3,2.4c-0.7,1.1-1.4,2.3-1.8,3.6
		C106.8,235.5,107.1,241.5,110.1,246.3z"/>
</g>
<path d="M122.7,231.3c0,0-5.2-2.8-6.4,0c-1.2,2.8,0.2,8.6-2.5,8.8c0,0-5.5,0.8-5,3.9c-2.4-4.9-2.6-16.1,3.4-19.8
	C118.1,220.5,122.7,231.3,122.7,231.3z"/>
<path d="M130.4,240.4c0,0,0.5,4,0,5.7c-0.5,1.6-5.8,6.3-2.8,7.7c3,1.4,6.3-3.1,7.4-1.8c1,1.3,1,1.7,1,1.7s1.4-7.4,0.2-8.3
	C134.9,244.6,130.4,240.4,130.4,240.4z"/>
<path d="M135.9,281.5c0,0,1.9-6.6,0-7.1c-1.9-0.5-14-1.2-15.7-17.4c-1.2,3.1,3.8,15.7,8.3,19C132.9,279.2,135.9,281.5,135.9,281.5z"
	/>
<g>
	<path d="M152.6,284.1c-0.6-1.7-1.1-3.3-1.7-5c-0.6-1.6-1.2-3.3-2-4.8c-0.4-0.8-0.8-1.5-1.2-2.3c-0.2-0.3-0.5-0.7-0.7-1
		c-0.2-0.3-0.6-0.7-0.9-1c-1.1-1.5-1.9-3-2.7-4.6c-1.5-3.2-2.8-6.5-3.6-9.9c-0.4-1.7-0.7-3.5-0.9-5.2c-0.1-1.8,0-3.6,0.4-5.3
		c-0.5,3.5,0.2,7,1.2,10.3c1,3.3,2.2,6.6,3.7,9.7c0.8,1.6,1.6,3.1,2.5,4.5c0.2,0.4,0.5,0.6,0.8,1c0.3,0.4,0.6,0.7,0.8,1.1
		c0.5,0.8,0.8,1.6,1.2,2.4C150.9,277.3,151.9,280.7,152.6,284.1z"/>
</g>
<path d="M341.4,212.1c0,0,5.3-12.7,8.7-14.4c3.4-1.7,7.4,0.8,7.4,6c0,5.3-3.1,20.4-4.5,22.7c-1.4,2.3-3.6,6.5-3.6,6.5
	s2.9-27.2-0.8-26.8C345,206.7,341.4,212.1,341.4,212.1z"/>
<path d="M334.5,225.4c0,0,3.6-7.6,7-7.9c3.4-0.3,5.2,2.8,5,7.9s1.6,13.9-1.3,15.6s-10.4,0.6-10.7,2.2
	C334.5,239.7,336,228.2,334.5,225.4z"/>
<g>
	<path d="M333.2,254.8c2.8-2.3,5.7-4.3,8.9-6.1c0.8-0.4,1.6-0.8,2.5-1.2c0.8-0.3,1.5-0.7,2.2-1.2c1.3-1.1,2.3-2.6,2.7-4.4
		c-0.1,1.8-0.9,3.6-2.2,4.9c-0.7,0.7-1.6,1.2-2.4,1.5c-0.8,0.3-1.6,0.8-2.3,1.2C339.5,251.3,336.4,253.2,333.2,254.8z"/>
</g>
<g>
	<path d="M157.7,299.4c2.2,5.3,4.3,10.6,6.3,15.9c2,5.3,3.9,10.7,5.7,16.1c1.8,5.4,3.6,10.8,5.2,16.3c1.6,5.5,3.3,10.9,4.3,16.6
		c-0.9-2.7-1.9-5.4-2.9-8l-2.9-8c-1.9-5.4-3.8-10.7-5.6-16.1C164.2,321.3,160.7,310.5,157.7,299.4z"/>
</g>
<g>
	<path d="M193.4,365.3c2,0.6,4,1.3,6,1.8c2,0.6,4,1.1,6.1,1.6c4.1,0.9,8.2,1.7,12.3,1.7c2.1,0.1,4.1-0.1,6.1-0.6
		c1-0.3,1.9-0.7,2.7-1.2c0.8-0.6,1.7-1.2,2.5-1.8l5.1-3.7c1.7-1.2,3.4-2.5,5-3.7c-3.1,2.8-6.3,5.5-9.6,8.1c-0.8,0.7-1.6,1.3-2.5,1.9
		c-0.9,0.7-1.9,1.1-3,1.4c-2.1,0.6-4.2,0.8-6.4,0.8c-4.2-0.1-8.4-0.9-12.5-2C201.2,368.4,197.2,367,193.4,365.3z"/>
</g>
<g>
	<path d="M215.8,291.7c2.6,1.3,5.3,2.6,8,3.8c1.4,0.6,2.7,1.2,4.1,1.6c1.4,0.5,2.8,0.9,4.2,1c0.7,0,1.4-0.2,2-0.4
		c0.7-0.2,1.4-0.5,2-0.8c1.3-0.6,2.7-1.2,4-1.8c2.7-1.3,5.3-2.6,8.2-3.6c0.7-0.2,1.5-0.4,2.2-0.5c0.8-0.1,1.5-0.1,2.3-0.1
		c1.5,0,3,0.2,4.5,0.3c3,0.3,5.9,0.8,8.8,1.4c0.7,0.2,1.4,0.3,2.2,0.5c0.7,0.2,1.4,0.4,2.1,0.5c1.4,0.2,2.8-0.3,4.1-1
		c1.3-0.7,2.5-1.6,3.6-2.5l1.7-1.4c0.6-0.5,1.1-1,1.8-1.2c-0.7,0.3-1.2,0.9-1.7,1.4l-1.6,1.5c-1.1,1-2.2,2-3.5,2.8
		c-1.3,0.8-2.8,1.3-4.4,1.2c-0.8-0.1-1.5-0.3-2.2-0.5c-0.7-0.2-1.4-0.3-2.2-0.4c-2.9-0.5-5.8-1-8.7-1.3c-1.5-0.1-2.9-0.3-4.4-0.3
		c-0.7,0-1.4,0-2.1,0.1c-0.7,0.1-1.4,0.3-2.1,0.5c-2.8,0.9-5.4,2.2-8.1,3.4c-1.3,0.6-2.7,1.3-4.1,1.8c-1.4,0.5-2.8,1.1-4.4,1.1
		c-1.6-0.1-3-0.6-4.4-1.2c-1.4-0.5-2.7-1.1-4.1-1.8C220.9,294.6,218.3,293.2,215.8,291.7z"/>
</g>
<g>
	<path d="M204.5,295.4c1.9-3.3,5.7-5.4,9.5-5.8c1.9-0.1,3.7-0.4,5.5-1.1c1.8-0.6,3.5-1.4,5.2-2.2c1.7-0.8,3.4-1.7,5.3-2.2
		c0.9-0.3,1.9-0.5,2.9-0.5c1,0,1.9,0,2.9,0c3.8,0.1,7.6,0.5,11.4,0.7c1.9,0.1,3.8,0.2,5.6-0.2c1.9-0.4,3.7-0.8,5.6-1.1
		c1.9-0.3,3.8-0.6,5.7-0.7c1.9-0.2,3.8-0.2,5.8,0c1,0.1,2,0.3,2.9,0.6c0.9,0.3,1.8,0.5,2.7,0.7c1.8,0.4,3.7,0.5,5.6,0.7
		c0.9,0.1,1.9,0.2,2.8,0.4c0.5,0.1,0.9,0.2,1.4,0.4c0.5,0.2,0.8,0.5,1.2,0.8c1.5,1.2,2.9,2.5,4.1,4c-1.3-1.4-2.7-2.7-4.3-3.8
		c-1.5-1.2-3.5-1.2-5.4-1.4c-1.9-0.1-3.8-0.3-5.7-0.6c-0.9-0.2-1.9-0.4-2.8-0.7c-0.9-0.3-1.8-0.5-2.7-0.5c-3.7-0.2-7.5,0.3-11.3,0.9
		c-1.9,0.3-3.7,0.7-5.6,1.1c-0.9,0.2-2,0.3-2.9,0.3c-1,0-1.9,0-2.9-0.1c-7.6-0.2-15.4-2.5-22.2,1.7c-1.7,0.8-3.5,1.6-5.3,2.1
		c-1.8,0.6-3.8,0.9-5.7,0.9C210.3,290.3,206.6,292.2,204.5,295.4z"/>
</g>
<path d="M244.3,270.6c0.9,0,2.4,2.7,7.8,1.2s3.9-1.8,4.7-1.8s10.1,0.8,14.9,3.6c4.7,2.8,13,9.1,13.9,11.8
	c-3.2-0.8-10.2-1.8-13.2-2.4c-3-0.6-10-1.1-13.7,0.3s-15.5,2-20.6,0.8c-5.1-1.3-13.1,2.5-15,3.3c-1.9,0.8-4,2.5-9.2,2.4
	c2.5-2.8,10.9-10.3,13.7-12C230.5,276.1,243.4,270.6,244.3,270.6z"/>
<g>
	<path d="M225.2,246.6c-2.5-0.8-4.9-2.2-7-4c-2-1.8-3.7-4.1-4.4-6.9c-0.7-2.7-0.4-5.6,0.6-8.1c0.5-1.3,1.1-2.5,1.8-3.6l1.2-1.7
		c0.4-0.5,0.8-1,1.3-1.6c-1.4,2.2-2.8,4.6-3.5,7.1c-0.4,1.2-0.7,2.5-0.7,3.8c-0.1,1.3,0,2.6,0.4,3.8c0.6,2.5,2.1,4.7,4,6.5
		c0.9,0.9,1.9,1.8,3,2.5C222.9,245.4,224,246,225.2,246.6z"/>
</g>
<g>
	<path d="M270.2,240.4c0.6-1,1.1-2.1,1.5-3.2c0.4-1.1,0.7-2.2,0.9-3.4c0.3-2.3,0.3-4.6-0.3-6.9c-0.3-1.1-0.6-2.2-1.2-3.3
		c-0.3-0.5-0.4-1.1-0.8-1.6c-0.3-0.5-0.6-1-0.9-1.5c-0.3-0.5-0.7-1-1-1.4l-1.1-1.4c-0.8-0.9-1.6-1.7-2.4-2.6
		c0.9,0.7,1.8,1.5,2.7,2.3l1.2,1.3c0.4,0.5,0.8,0.9,1.2,1.4c1.5,1.9,2.5,4.2,3.2,6.5c0.6,2.4,0.6,4.9,0.1,7.3
		C272.8,236.3,271.8,238.6,270.2,240.4z"/>
</g>
<g>
	<path d="M222.1,242c-0.2-1.3-0.2-2.7-0.1-4c0.1-0.7,0.2-1.3,0.5-2c0.3-0.6,0.7-1.2,1.4-1.6c0.6-0.4,1.4-0.4,2.1-0.4
		c0.4,0,0.7,0.1,1,0.2c0.3,0.1,0.7,0.2,1,0.4c1.3,0.6,2.4,1.4,3.4,2.3c2.1,1.7,3.8,3.9,5.9,5.3c0.3,0.2,0.5,0.3,0.8,0.4l0.4,0.1
		l0.5,0.1c0.7,0.1,1.3,0.3,2,0.5c1.3,0.3,2.6,0.6,3.9,0.7c1.3,0.1,2.6,0.2,3.9,0c1.3-0.2,2.5-0.5,3.7-1.1c1.1-0.6,2.3-1.3,3.2-2.2
		c0.5-0.4,1-0.9,1.4-1.4l1.4-1.4c0.9-0.9,1.9-1.9,2.9-2.8c0.5-0.5,1-0.9,1.5-1.3c0.6-0.4,1.1-0.8,1.9-1c0.4-0.1,0.8,0,1.1,0.2
		c0.3,0.2,0.6,0.4,0.8,0.7c0.4,0.5,0.8,1.1,1.2,1.6c0.4,0.6,0.8,1.1,0.9,1.8c0.2,0.7,0.1,1.3,0.2,2c-0.1-0.7-0.1-1.3-0.3-2
		c-0.2-0.6-0.6-1.2-1-1.7c-0.4-0.5-0.8-1.1-1.3-1.5c-0.2-0.2-0.5-0.4-0.7-0.6c-0.3-0.1-0.6-0.2-0.8-0.1c-0.6,0.1-1.1,0.5-1.6,0.9
		c-0.5,0.4-1,0.9-1.5,1.3c-0.9,0.9-1.9,1.9-2.8,2.9c-0.9,1-1.8,2-2.8,2.9c-1,1-2.2,1.7-3.4,2.4c-1.3,0.6-2.6,1-4,1.2
		c-1.4,0.2-2.8,0.2-4.1,0c-1.4-0.2-2.7-0.5-4-0.8c-0.7-0.2-1.3-0.3-1.9-0.5l-0.5-0.1l-0.6-0.2c-0.3-0.1-0.7-0.3-1-0.5
		c-1.2-0.8-2.1-1.8-3.1-2.7c-0.9-1-1.9-1.9-2.8-2.8c-1-0.9-2-1.7-3.2-2.3c-1.1-0.5-2.5-0.9-3.6-0.4c-0.5,0.3-1,0.7-1.3,1.3
		c-0.3,0.6-0.5,1.2-0.6,1.9C222.1,239.3,222,240.7,222.1,242z"/>
</g>
<g>
	<path d="M215.8,222.2c-1.1,4.7-2.3,9.4-3.7,14c-1.3,4.6-2.8,9.2-4.5,13.8c-0.9,2.3-1.8,4.5-2.9,6.7c-1.1,2.1-2.1,4.3-3,6.5
		c-0.9,2.2-1.7,4.5-2.4,6.8c-0.4,1.1-0.7,2.3-1,3.5c-0.3,1.2-0.7,2.3-0.7,3.5c0-1.2,0.2-2.4,0.5-3.6c0.2-1.2,0.5-2.4,0.8-3.5
		c0.6-2.3,1.4-4.6,2.2-6.9c0.8-2.3,1.8-4.5,2.9-6.7c1.1-2.1,2-4.3,2.8-6.6c1.7-4.5,3.2-9.1,4.7-13.7L215.8,222.2z"/>
</g>
<g>
	<path d="M266.2,212.8c4,4.4,6.6,9.8,8.9,15.2c1.1,2.7,2,5.5,2.9,8.4c0.4,1.4,0.8,2.8,1.2,4.2c0.4,1.4,0.9,2.7,1.5,4.1
		c2.2,5.4,5,10.6,7.4,16c1.2,2.7,2.4,5.3,3.5,8.1c1.1,2.7,2.1,5.5,2.9,8.3c-2-5.5-4.5-10.8-7.1-16.1c-1.3-2.6-2.6-5.2-3.9-7.9
		c-1.3-2.6-2.6-5.3-3.7-8c-0.6-1.4-1.1-2.7-1.5-4.2c-0.4-1.4-0.8-2.8-1.2-4.3c-0.8-2.8-1.7-5.6-2.7-8.3c-1-2.7-2.1-5.4-3.5-8
		C269.5,217.6,268.1,215,266.2,212.8z"/>
</g>
<path d="M225.2,244.7c0,0,3.2-5.3,8-1.5s10.3,10.8,13.6,9.5c0.8-0.3,2.8-0.2,3.6-1.1c2.4-2.8,4.4-8,9.3-8.4c6.3-0.6,8.8-0.6,9.4-2.8
	c0.6-2.2-2.3-8.5-4.2-7.4s-9.5,9.5-12.3,10.4c-2.9,1-8.3,2-13,0c-4.8-2-9.9-8.6-11.6-8.5c-1.7,0.1-4.3-3.2-6,3.2
	C222.1,242,224.2,244.8,225.2,244.7z"/>
<g>
	<path d="M234.1,234.5c-1-0.8-1.7-2-2.1-3.2c-0.4-1.2-0.6-2.5-0.7-3.8c-0.1-1.3,0.1-2.6,0.2-3.8c0.1-0.6,0.2-1.3,0.4-1.9
		c0.2-0.6,0.3-1.2,0.5-1.8c-0.2,1.3-0.4,2.5-0.6,3.8c0,0.6-0.1,1.3-0.1,1.9c0,0.6,0,1.3,0,1.9c0,1.3,0.2,2.5,0.6,3.7
		c0.2,0.6,0.4,1.2,0.7,1.7C233.3,233.5,233.6,234.1,234.1,234.5z"/>
</g>
<g>
	<path d="M231.3,316.6c3.4-3.3,7.2-6.3,11.4-8.6c2.1-1.2,4.3-2.1,6.6-2.9c2.3-0.7,4.7-1.1,7.1-1.1c4.8,0.1,9.5,1.4,14,3
		c4.5,1.6,8.8,3.6,13,6c-2.1-1.1-4.3-2.1-6.5-3.1c-2.2-0.9-4.4-1.8-6.7-2.6c-4.5-1.5-9.2-2.7-13.9-2.9c-2.4,0-4.7,0.3-7,1
		c-2.3,0.7-4.4,1.7-6.5,2.8c-2.1,1.1-4.1,2.4-6,3.8C234.9,313.5,233,315,231.3,316.6z"/>
</g>
<g>
	<path d="M229.4,139.3c0.3,4,0.3,7.9,0.4,11.9c0,2,0,4,0,6c-0.1,2-0.1,4-0.3,6c0-2,0-4-0.1-6l-0.1-6
		C229.3,147.2,229.2,143.2,229.4,139.3z"/>
</g>
<g>
	<path d="M247.3,138c0.2,2.1,0.4,4.3,0.6,6.5c0.1,2.2,0.2,4.3,0.3,6.5c0,2.2,0.1,4.3,0,6.5c-0.1,2.2-0.2,4.4-0.9,6.4
		c0.3-1,0.4-2.1,0.4-3.2c0.1-1.1,0.1-2.2,0.1-3.2c0-2.2,0-4.3-0.1-6.5c0-2.2-0.1-4.3-0.2-6.5L247.3,138z"/>
</g>
<g>
	<path d="M226.9,211.8c1.2-1.4,2.2-2.9,3-4.5c0.4-0.8,0.7-1.6,1-2.5c0.2-0.9,0.3-1.7,0.3-2.6c-0.3-3.6-0.5-7.2-0.9-10.8
		c-0.2-1.8-0.4-3.6-0.6-5.3c-0.3-1.8-0.6-3.5-1.1-5.2c-0.1-0.4-0.3-0.8-0.5-1.1l-0.7-1.1l-1.5-2.3c-1-1.5-2-3-2.9-4.6
		c1.1,1.4,2.2,2.9,3.3,4.3l1.6,2.2l0.8,1.1c0.3,0.4,0.5,0.8,0.7,1.3c0.7,1.7,1,3.5,1.4,5.3c0.3,1.8,0.5,3.6,0.7,5.4
		c0.3,3.6,0.6,7.2,0.6,10.8c0,0.9-0.1,1.9-0.4,2.8c-0.3,0.9-0.7,1.7-1.1,2.5C229.4,209.2,228.2,210.6,226.9,211.8z"/>
</g>
<path d="M223.6,173.2c0,0-14.7-4.6-22.9-5.2c-8.2-0.6-19.3-2.6-22.6-1.4s-9.4,1.2-11.1,5.3c-1.7,4-4.3,15.1-6.8,16.3
	s-6.2-3.9-2.5-15.1c3.7-11.1,9.1-14.9,12.8-15.8s10.1-1.2,18.1-1.2c8,0,14.5-0.1,18.6,2C211.3,160.2,219.6,161.2,223.6,173.2z"/>
<path d="M257.1,169c0,0,13.6-11.5,23.3-12.2c9.7-0.8,16.9-3.9,21.7,2.6c4.8,6.5,8.8,16.2,9.7,18.6c0.9,2.3,6.7,4.2,5.1-7.3
	s-9.6-27.2-14.7-27.7c-5.1-0.5-17.2-0.8-22.6,1.9s-18.1,8.2-21,11.3C255.7,159.2,253.7,165.4,257.1,169z"/>
<path d="M257.1,191.9c0,0-9.1-13.5,0-22.9C255.3,175.3,254,182.6,257.1,191.9z"/>
<g>
	<path d="M218.6,184.7c0.6-0.2,1.2-0.4,1.8-0.7c0.6-0.3,1.1-0.6,1.5-1c0.9-0.8,1.6-1.9,1.8-3c0.3-1.2,0-2.4-0.3-3.6
		c-0.2-0.6-0.4-1.2-0.6-1.8c-0.2-0.6-0.5-1.2-0.7-1.8c0.4,0.5,0.7,1.1,1.1,1.6c0.3,0.6,0.5,1.2,0.8,1.8c0.4,1.2,0.7,2.6,0.5,3.9
		c-0.2,1.3-1,2.6-2.1,3.4C221.1,184.2,219.8,184.7,218.6,184.7z"/>
</g>
<g>
	<path d="M266.2,199c1.1,1.4,2.4,2.7,3.7,3.9c1.3,1.2,2.8,2.3,4.3,3.2c1.5,1,3.1,1.8,4.8,2.5c1.7,0.6,3.4,1.1,5.2,1.4
		c3.5,0.6,7.2,0.3,10.8,0.1c1.8-0.1,3.6-0.4,5.4-0.7c1.7-0.4,3.6-0.8,5.1-1.8c-1.5,1.1-3.3,1.6-5,2c-1.8,0.4-3.6,0.7-5.4,0.9
		c-1.8,0.2-3.6,0.3-5.4,0.3l-1.4,0l-1.4-0.1c-0.5,0-0.9,0-1.4-0.1l-1.4-0.2c-1.8-0.3-3.6-0.8-5.3-1.5c-1.7-0.7-3.3-1.5-4.8-2.6
		C271,204.5,268.3,201.9,266.2,199z"/>
</g>
<g>
	<path d="M213,207.3c-1.8,2.8-4,5.5-6.3,7.9c-2.4,2.4-5,4.6-8,6.3c-3,1.6-6.4,2.7-9.9,2.2l-5-0.7l-2.5-0.4l-1.2-0.2l-0.6-0.1
		c-0.1,0-0.2-0.1-0.3-0.1c0,0,0,0-0.1,0c0,0,0-0.1,0,0c0.1,0,0.1,0,0.2,0c-0.1,0-0.3,0-0.1,0.1c0.1,0,0.2,0.1,0.3,0.1l0.6,0.1
		l1.3,0.2l2.5,0.3l5,0.6c3.3,0.4,6.7-0.7,9.6-2.3c2.9-1.6,5.5-3.8,7.9-6.2C208.8,212.6,211,210.1,213,207.3z"/>
</g>
<g>
	<path d="M212.2,199c-2.4,2.2-5,4.2-7.5,6.2c-2.6,2-5.2,3.9-7.9,5.7c-2.7,1.8-5.5,3.5-8.4,4.9c-2.9,1.4-6,2.7-9.3,2.8
		c1.6-0.1,3.2-0.5,4.7-1c1.5-0.5,3-1.2,4.5-1.9c2.9-1.5,5.7-3.2,8.4-5c2.7-1.8,5.4-3.7,8-5.6C207.2,203.1,209.7,201.1,212.2,199z"/>
</g>
<g>
	<path d="M199.6,208.8c-2.6,0.6-5.2,1-7.8,1.3c-2.6,0.3-5.3,0.4-7.9,0.2c-2.6-0.2-5.3-0.5-7.8-1.4c-2.5-0.8-4.9-2.2-6.6-4.2
		c1.8,2,4.2,3.2,6.7,4c2.5,0.8,5.1,1.1,7.7,1.3c2.6,0.1,5.3,0.1,7.9-0.2C194.4,209.7,197,209.3,199.6,208.8z"/>
</g>
<g>
	<path d="M269.9,194.7c2.1,1.1,4.2,2,6.4,3c2.1,0.9,4.3,1.8,6.5,2.6c2.2,0.8,4.4,1.6,6.7,2.1c2.3,0.5,4.6,1,6.9,1.1
		c-2.3,0-4.7-0.4-7-0.9c-2.3-0.5-4.5-1.3-6.7-2.1c-2.2-0.8-4.4-1.7-6.5-2.7C274.1,196.8,272,195.8,269.9,194.7z"/>
</g>
<g>
	<path d="M287.4,201.9c3.5-1.1,7-2.2,10.3-3.6c1.7-0.7,3.4-1.4,5-2.2c0.8-0.4,1.6-0.9,2.3-1.4c0.8-0.5,1.5-1.1,2-1.8
		c-1,1.5-2.7,2.5-4.3,3.4c-1.6,0.9-3.3,1.6-5,2.3c-1.7,0.7-3.4,1.2-5.2,1.8C290.9,201,289.1,201.5,287.4,201.9z"/>
</g>
<path d="M265,184.7c0,0,12.5-10.7,23.3-9.6c10.7,1,20.1,10.9,20.1,10.9s-4.9-12.8-21-13.8C278.1,171.4,265,184.7,265,184.7z"/>
<g>
	<path d="M263.6,181c2-3.1,4.7-5.8,7.8-8c1.5-1.1,3.2-2.1,4.9-2.8c1.7-0.8,3.5-1.3,5.4-1.7c1.9-0.4,3.8-0.5,5.6-0.5
		c1.9,0.1,3.8,0.3,5.6,0.8c3.6,1,7.1,2.9,9.6,5.6c-1.4-1.2-3-2.2-4.6-3c-1.6-0.8-3.4-1.4-5.2-1.8c-1.8-0.4-3.6-0.6-5.4-0.6
		c-1.8,0-3.6,0.2-5.4,0.5c-1.8,0.4-3.5,0.9-5.2,1.6c-1.7,0.7-3.3,1.6-4.8,2.6c-1.5,1-3,2.1-4.4,3.4C266,178.2,264.8,179.5,263.6,181
		z"/>
</g>
<g>
	<path d="M269.9,186c2.9,0.5,5.8,0.9,8.7,1.1c2.9,0.2,5.8,0.3,8.7,0.2c2.9-0.1,5.8-0.6,8.6-1.2c2.8-0.6,5.7-1.3,8.5-2.2
		c-2.7,1.1-5.5,1.9-8.4,2.6c-2.9,0.7-5.8,1.1-8.7,1.3c-2.9,0.1-5.9,0-8.8-0.3C275.7,187.2,272.8,186.7,269.9,186z"/>
</g>
<g>
	<path d="M272.8,189.6c1.2,0.4,2.5,0.7,3.7,0.9c1.2,0.2,2.5,0.4,3.8,0.5c2.5,0.2,5.1,0.2,7.6-0.2c2.5-0.3,5-0.8,7.5-1.3
		c2.5-0.6,4.9-1.3,7.2-2.4c-2.2,1.3-4.7,2.1-7.1,2.8c-2.5,0.6-5,1.1-7.5,1.5c-2.5,0.4-5.1,0.4-7.7,0.1
		C277.7,191.1,275.2,190.5,272.8,189.6z"/>
</g>
<g>
	<path d="M269.1,186c-0.9,0.6-2,1.1-3.1,1.3c-0.3,0-0.6,0.1-0.9,0c-0.3-0.1-0.6-0.3-0.7-0.6c-0.2-0.6,0.1-1.2,0.5-1.6
		c-0.3,0.5-0.5,1-0.3,1.5c0.1,0.2,0.3,0.4,0.6,0.4c0.2,0,0.5,0,0.8,0c0.5-0.1,1.1-0.3,1.6-0.5C268.1,186.5,268.6,186.3,269.1,186z"
		/>
</g>
<g>
	<path d="M267.5,183.9c0.2-0.2,0.4-0.3,0.6-0.2c0.2,0,0.5,0.2,0.6,0.3c0.1,0.2,0.2,0.4,0.3,0.6c0.1,0.2,0.1,0.4,0.1,0.6
		c-0.2-0.4-0.3-0.8-0.6-1.1C268.3,183.8,267.9,183.7,267.5,183.9z"/>
</g>
<path d="M210.8,189.3c0,0-11.7-7.4-20.9-4.8c-9.2,2.6-18.5,14.6-18.5,14.6s2.4-13.7,19.7-17.5C200.6,179.1,210.8,189.3,210.8,189.3z
	"/>
<g>
	<path d="M209.9,184.7c-1.5-1.2-3.1-2.2-4.7-3.1c-1.7-0.9-3.4-1.6-5.2-2.1c-3.6-1.1-7.4-1.2-11-0.3c-0.4,0.1-0.9,0.3-1.3,0.4
		l-1.3,0.5c-0.9,0.3-1.7,0.7-2.6,1.1c-1.7,0.9-3.3,1.8-4.8,2.9c-1.5,1.1-2.9,2.3-4.2,3.7c-1.3,1.4-2.5,2.9-3.4,4.5
		c1.6-3.5,4.2-6.4,7.2-8.8c3-2.4,6.5-4.1,10.2-5.2c3.8-1,7.8-0.8,11.5,0.5C203.9,180,207.2,182.1,209.9,184.7z"/>
</g>
<g>
	<path d="M204.8,191.4c-1.7,1.8-3.8,3.1-6,4c-2.2,1-4.7,1.4-7.1,1.6c-2.4,0.1-4.9-0.1-7.3-0.5c-2.4-0.4-4.7-1-7-1.9
		c1.2,0.3,2.3,0.6,3.5,0.9c1.2,0.2,2.4,0.5,3.6,0.6c2.4,0.3,4.8,0.5,7.2,0.4c2.4-0.1,4.8-0.6,7-1.4c1.1-0.4,2.2-0.9,3.2-1.5
		C202.9,192.9,203.9,192.3,204.8,191.4z"/>
</g>
<g>
	<path d="M205.7,195.4c-2.1,1.6-4.3,2.9-6.7,3.9c-2.4,1-5,1.7-7.6,1.8c-2.6,0-5.2-0.5-7.7-1.3c-2.5-0.8-4.9-1.8-7.2-3.1
		c2.3,1.1,4.8,2,7.3,2.7c2.5,0.7,5,1.2,7.6,1.1c2.6,0,5.1-0.7,7.5-1.6C201.2,198,203.5,196.9,205.7,195.4z"/>
</g>
<g>
	<path d="M205.7,191.1c0.5,0.1,1,0.1,1.5,0.1c0.5,0,1,0.1,1.5,0c0.5,0,1-0.1,1.5-0.2c0.2-0.1,0.5-0.2,0.7-0.4
		c0.1-0.1,0.2-0.1,0.3-0.2c0.1-0.1,0.1-0.2,0-0.3c0.1,0,0.1,0.2,0.1,0.3c-0.1,0.1-0.2,0.2-0.3,0.3c-0.2,0.2-0.4,0.3-0.7,0.4
		c-0.5,0.2-1,0.3-1.5,0.3C207.7,191.5,206.7,191.4,205.7,191.1z"/>
</g>
<g>
	<path d="M207.9,188.4c-0.5,0.1-1.1,0.2-1.5,0.5c-0.2,0.1-0.4,0.3-0.5,0.5c-0.1,0.2-0.1,0.5-0.1,0.8c-0.1-0.2-0.2-0.5-0.1-0.8
		c0.1-0.3,0.4-0.5,0.6-0.6C206.8,188.4,207.3,188.3,207.9,188.4z"/>
</g>
<g>
	<path d="M289.8,173.8c1.2,0.6,2.3,1.5,3,2.7c0.7,1.2,1.1,2.6,1.1,4c0,1.4-0.4,2.8-1.2,4c-0.7,1.2-1.8,2.1-3,2.7
		c2-1.7,3.2-4.2,3.2-6.6C292.9,178,291.8,175.6,289.8,173.8z"/>
</g>
<g>
	<path d="M281.8,187.6c-1.1-0.3-2.1-1-2.9-1.8c-0.8-0.9-1.4-1.9-1.7-3.1c-0.3-1.1-0.4-2.4-0.1-3.5c0.2-1.1,0.8-2.2,1.5-3.1
		c-0.9,2.1-1,4.3-0.5,6.3c0.3,1,0.7,2,1.3,2.8C280.1,186.1,280.9,186.9,281.8,187.6z"/>
</g>
<g>
	<path d="M197.5,182.4c1.2,0.5,2.2,1.4,2.9,2.4c0.8,1.1,1.2,2.4,1.3,3.7c0.1,1.3-0.1,2.7-0.6,3.9c-0.5,1.2-1.4,2.2-2.5,2.9
		c0.8-1,1.4-2.1,1.7-3.2c0.4-1.1,0.5-2.3,0.4-3.5C200.6,186.3,199.4,184.1,197.5,182.4z"/>
</g>
<g>
	<path d="M189.9,196.8c-1.3-0.3-2.5-1.1-3.4-2.1c-0.9-1-1.6-2.3-1.9-3.6c-0.3-1.4-0.2-2.8,0.2-4.1c0.4-1.3,1.2-2.5,2.3-3.3
		c-1.5,2.2-2,4.8-1.5,7.2C186.1,193.3,187.7,195.4,189.9,196.8z"/>
</g>
<circle cx="285.4" cy="180.4" r="2.8"/>
<circle cx="193.1" cy="189.3" r="3"/>
<path d="M185.3,191.4c0,0,2-5,5.4-2.1c3.3,2.9,5.5-0.9,5.5-0.9s3-3.4,5.1,0c0-2.4-2.9-7.3-8-6.1c-5.1,1.2-6.8,1.1-7.5,3.4
	C185.1,188,184.8,190.2,185.3,191.4z"/>
<path d="M277.8,182.1c0,0,2.1-4.3,5.5-1.7c3.4,2.6,5.2,0,5.2,0s2.6-3.8,5.2,0c0-2.3-2.7-7.8-7.6-7.7c-5.9,0.1-7.6,4.1-7.6,4.1
	s-1.6,2.1-0.6,4.8"/>
<circle class="st0" cx="191.1" cy="185.2" r="2"/>
<circle class="st0" cx="282.5" cy="176.9" r="1.9"/>
<g>
	<path d="M164.1,203.5c1.2-0.6,2.3-1.5,3.3-2.4c1-0.9,2-1.9,2.9-2.9c0.9-1,1.8-2.1,2.5-3.2c0.8-1.1,1.5-2.3,2.1-3.6
		c-0.4,1.3-1,2.6-1.7,3.8c-0.7,1.2-1.6,2.3-2.5,3.3c-0.9,1-1.9,2-3,2.9C166.6,202.2,165.4,203.1,164.1,203.5z"/>
</g>
<g>
	<path d="M306.3,182.4c1.3,1.9,2.6,3.8,3.9,5.7c0.7,0.9,1.3,1.8,2.1,2.7c0.4,0.4,0.7,0.9,1.2,1.2c0.4,0.4,0.9,0.7,1.4,1
		c-1.2-0.3-2-1.1-2.8-1.9c-0.8-0.8-1.5-1.8-2.2-2.7C308.4,186.4,307.2,184.5,306.3,182.4z"/>
</g>
<g>
	<path d="M201.3,179.5c1.3,0,2.6,0.1,3.9,0.3c1.3,0.2,2.6,0.5,3.8,0.9c0.6,0.2,1.2,0.5,1.8,0.9l1.6,1c1.1,0.7,2.2,1.3,3.4,1.9
		c-1.3-0.4-2.4-0.9-3.6-1.5c-0.6-0.3-1.1-0.7-1.7-1c-0.5-0.3-1.1-0.6-1.7-0.8c-1.2-0.5-2.4-0.7-3.7-1
		C203.8,179.9,202.6,179.7,201.3,179.5z"/>
</g>
<g>
	<path d="M257.1,180.4c2.1-0.8,4.1-1.6,6.1-2.4c2-0.9,4-1.8,5.9-2.9c-0.8,0.7-1.8,1.3-2.7,1.9c-1,0.5-2,1-3,1.5
		C261.4,179.3,259.3,180,257.1,180.4z"/>
</g>
<g>
	<path d="M144.5,251.9c2.2,1.9,4.2,4,6,6.3c0.9,1.1,1.8,2.3,2.3,3.7c0.5,1.4,0.9,2.8,1.3,4.1l2.1,8.4c0.4,1.4,0.7,2.8,1.2,4.2
		c0.5,1.4,0.8,2.8,1.7,4c-0.9-1.1-1.4-2.6-1.8-3.9c-0.4-1.4-0.8-2.8-1.2-4.2L154,266c-0.4-1.4-0.7-2.8-1.3-4.1
		c-0.5-1.3-1.4-2.5-2.3-3.7C148.6,255.9,146.6,253.9,144.5,251.9z"/>
</g>
<g>
	<path d="M130.3,214.6c0,1.2,0,2.4,0.1,3.7c0,1.2,0.1,2.4,0.2,3.6c0.2,2.4,0.6,4.8,1.1,7.2c0.5,2.4,1.2,4.7,2.3,6.8
		c1,2.2,2.5,4.2,4.3,5.7c-1.1-0.6-2-1.4-2.9-2.3c-0.8-0.9-1.5-2-2.2-3c-1.2-2.2-2-4.6-2.6-7c-0.5-2.4-0.8-4.9-0.9-7.4
		C129.9,219.5,130,217,130.3,214.6z"/>
</g>
<g>
	<path d="M139.1,238.9c-0.9-6.6-1.6-13.1-2.2-19.7c-0.6-6.6-1-13.2-1.4-19.8c-0.3-6.6-0.5-13.2-0.5-19.8c0.1-6.6,0.3-13.3,1.7-19.7
		l-0.3,2.5c-0.1,0.8-0.2,1.6-0.3,2.5c-0.1,1.6-0.3,3.3-0.3,4.9c0,1.6-0.1,3.3-0.1,4.9l0,4.9c0.1,6.6,0.4,13.2,0.7,19.8
		c0.3,6.6,0.8,13.2,1.2,19.8L139.1,238.9z"/>
</g>
<g>
	<path d="M134.3,155c1.9-2.9,3.8-5.9,5.5-9c1.7-3.1,3.3-6.2,4.1-9.6c0.1-0.4,0.2-0.8,0.2-1.3c0.1-0.4,0.1-0.9,0.2-1.3
		c0.2-0.9,0.4-1.7,0.7-2.6c0.5-1.7,1.1-3.4,1.8-5c1.3-3.3,2.9-6.5,4.6-9.6c3.6-6.1,7.9-11.9,13.5-16.3c2.8-2.2,5.9-4,9.2-5.3
		c3.3-1.2,6.9-1.8,10.4-1.7c-7.1,0.1-13.8,3-19.2,7.5c-5.4,4.5-9.7,10.2-13.1,16.2c-1.7,3-3.3,6.2-4.6,9.4c-0.7,1.6-1.3,3.3-1.8,4.9
		c-0.3,0.8-0.5,1.7-0.7,2.5c-0.1,0.4-0.2,0.8-0.2,1.3c-0.1,0.5-0.2,0.9-0.3,1.3c-1,3.5-2.7,6.6-4.5,9.7
		C138.4,149.2,136.4,152.2,134.3,155z"/>
</g>
<path d="M350.4,187.6c-0.1-10.2-0.9-75.1-11.9-85c4.1-32.6-5.3-34.9-13.8-43.7c-1.7-14-11.8-18.8-17.5-25.2
	c-5.8-6.4-27.4-5.4-42.3-7c-13.6-18.4-23.9-14.4-56.3-14.4S154,38.7,154.9,48.6c-23.1,9.3-22.9,40-22.9,40
	c-12,6-18.6,21.7-20.4,25.4s-5,28.9-6.8,36.9c-1.9,8,0.4,45.6,1.2,50c0.8,4.3,5.2,14.7,7.7,15.4c6.6,0.8,11.6,4.5,16.3,8.9
	c1.7,9.3,8.4,18.2,9.6,15.8c1.2-2.4-4.1-65.8-4.1-65.8c0-4.3-1.6-20.4,1.2-23.9c2.8-3.5,8.2-25,11.1-30.3s7.2-12.8,16.5-21.9
	c9.3-9.1,23.3-7.6,23.3-7.6s0,0-2.4-2.3c14.5,4.5,22.9-2.3,22.9-2.3s-4.3-3.4-5.1-5.6c7.7,1.4,25.1-0.9,34.8,12.1
	c6-1.5,10.7-3.7,10.4-10.5c4.6-1.7,15.9-2.5,21.6,0.6c5.7,3.1,6.3,1.2,12.7,4c6.3,2.8,21.8,21.7,33.6,21.5
	c1.3,6.8,2.6,12.1,8.7,15.2c0,0-5,36,6.8,53.4c0,0,3.1,36.3,1.9,46.3c3.2-5.1,5.4-9.2,6.2-25.3C340.2,197.4,345,187.1,350.4,187.6z"
	/>
<g>
	<path d="M247.3,81c0.8,1.4,1.5,3,1.6,4.7c0,0.8-0.1,1.7-0.4,2.5c-0.3,0.8-0.9,1.5-1.5,2.1c-1.3,1.2-2.9,1.9-4.5,2.4
		c-1.6,0.5-3.3,0.8-5,0.9l-0.1,0l-0.1-0.1c-2.5-2.4-5.3-4.5-8.3-6.1c-1.5-0.8-3.1-1.5-4.8-1.9c-1.7-0.4-3.4-0.5-5.1-0.7
		c-3.5-0.3-6.9-0.6-10.4-1.1c-1.7-0.3-3.4-0.7-5.1-1.3c-1.6-0.6-3.2-1.4-4.4-2.7c1.2,1.3,2.8,2,4.4,2.6c1.6,0.5,3.3,0.9,5.1,1.1
		c3.4,0.5,6.9,0.7,10.4,1c1.7,0.2,3.5,0.2,5.2,0.6c1.7,0.4,3.4,1.1,4.9,1.9c3.1,1.6,5.9,3.8,8.4,6.3l-0.2-0.1
		c1.6-0.1,3.3-0.4,4.9-0.8c1.6-0.5,3.1-1.1,4.4-2.2c1.3-1.1,2-2.7,1.9-4.3C248.7,84,248.1,82.4,247.3,81z"/>
</g>
<g>
	<path d="M207.9,86.8c-1.8,1.5-3.9,2.6-6.1,3.4c-2.2,0.8-4.6,1.3-6.9,1.3c-2.4,0-4.7-0.4-6.9-1.2c-1.1-0.3-2.1-1-3.2-1.5
		c-1-0.6-1.9-1.3-2.9-2c1,0.6,1.9,1.3,3,1.9c1.1,0.5,2.1,1.1,3.2,1.4c2.2,0.8,4.5,1.2,6.9,1.2c2.3,0,4.7-0.4,6.9-1.2
		c0.5-0.2,1.1-0.4,1.6-0.6c0.5-0.3,1.1-0.5,1.6-0.8C205.9,88.1,206.9,87.5,207.9,86.8z"/>
</g>
<g>
	<path d="M187.5,93.3c-1.3-0.5-2.7-0.7-4.1-0.8c-1.4-0.2-2.8-0.1-4.2-0.1c-2.8,0.2-5.5,0.7-8.1,1.6l-2,0.6l-1.9,0.8l-1,0.4l-0.9,0.5
		l-1.9,0.9c-1.2,0.6-2.4,1.3-3.7,2l-3.5,2.2l3.4-2.4c1.2-0.7,2.4-1.5,3.6-2.1l1.9-0.9l0.9-0.5l1-0.4l1.9-0.8l2-0.7
		c2.7-0.8,5.5-1.4,8.3-1.5C182,92,184.9,92.2,187.5,93.3z"/>
</g>
<g>
	<path d="M136.7,155c-1.2,1.7-2.2,3.5-3.1,5.3c-0.4,0.9-0.8,1.9-1.1,2.8c-0.4,1-0.6,2-0.9,3c0.1-2.1,0.7-4.1,1.6-6
		c0.4-0.9,0.9-1.9,1.5-2.7C135.3,156.5,135.9,155.7,136.7,155z"/>
</g>
<g>
	<path d="M273,86.5c1.3,0.3,2.7,0.4,4,0.5c1.4,0.1,2.7,0.2,4.1,0.1c2.7,0,5.4-0.3,8-0.9c2.6-0.6,5.2-1.6,7.5-3.1
		c2.3-1.4,4.3-3.3,5.9-5.5c-0.8,1.1-1.6,2.3-2.5,3.2c-1,1-2,1.9-3.2,2.6c-2.3,1.5-4.9,2.6-7.5,3.2c-2.7,0.6-5.4,0.9-8.2,0.8
		C278.4,87.4,275.6,87.1,273,86.5z"/>
</g>
<g>
	<path d="M284.4,89.8c1.2,1.4,2.5,2.7,3.8,4c1.3,1.3,2.6,2.5,4,3.8c2.8,2.4,5.6,4.7,8.8,6.6c3.1,1.9,6.4,3.6,9.9,4.5
		c3.5,1,7.3,1.1,10.8,0.2c-1.8,0.5-3.6,0.8-5.4,0.8c-1.8,0-3.7-0.3-5.5-0.7c-3.6-0.9-7-2.5-10.1-4.5c-3.1-2-6-4.2-8.7-6.7
		C289.2,95.4,286.7,92.7,284.4,89.8z"/>
</g>
<g>
	<path d="M322.3,122.7c-0.3,5-0.3,9.9-0.3,14.9c0.1,5,0.3,9.9,0.8,14.9c0.5,4.9,1.2,9.9,2.7,14.6c0.8,2.4,1.7,4.7,3.1,6.7
		c0.7,1,1.5,2,2.5,2.8c1,0.8,2.1,1.3,3.3,1.6c-1.2-0.2-2.4-0.8-3.4-1.5c-1-0.8-1.8-1.7-2.5-2.7c-1.4-2.1-2.4-4.4-3.1-6.8
		c-1.5-4.8-2.3-9.7-2.8-14.6c-0.5-4.9-0.7-9.9-0.7-14.9C321.9,132.6,322,127.7,322.3,122.7z"/>
</g>
<g>
	<path d="M269.9,31.1c-0.7-1.6-1.5-3-2.4-4.5c-0.9-1.4-1.9-2.8-3-4.1c-2.2-2.6-4.7-4.9-7.6-6.6c-1.4-0.9-2.9-1.6-4.5-2.3
		c-1.6-0.6-3.2-1.1-4.9-1.4c-3.3-0.6-6.7-0.6-10.1-0.2c3.3-0.5,6.8-0.5,10.1,0.1c1.7,0.3,3.3,0.8,4.9,1.4c1.6,0.6,3.1,1.4,4.6,2.3
		c2.9,1.8,5.4,4.1,7.6,6.8C266.9,25,268.7,27.9,269.9,31.1z"/>
</g>
<g>
	<path d="M150.3,53.4c0.7-3.6,1.8-7.2,3.3-10.6c1.5-3.4,3.3-6.7,5.5-9.7c2.3-3,4.9-5.6,8-7.7c1.5-1.1,3.2-1.9,4.9-2.7
		c1.7-0.8,3.5-1.2,5.3-1.7c-3.6,1-7,2.5-10,4.7c-3,2.1-5.6,4.8-7.8,7.7c-2.2,2.9-4.1,6.2-5.6,9.5C152.5,46.3,151.2,49.8,150.3,53.4z
		"/>
</g>
<g>
	<path d="M163.8,45c-2.5,0.4-4.9,1-7.2,1.9c-2.3,0.9-4.6,1.9-6.7,3.2c-4.2,2.6-8,6-10.7,10.1c-2.8,4.1-4.8,8.7-5.9,13.6
		c-1.1,4.8-1.5,9.8-1.4,14.8c-0.2-5,0.1-10,1.2-14.8c1.1-4.9,3-9.6,5.8-13.7c2.8-4.1,6.6-7.6,10.9-10.1
		C154.1,47.5,158.9,45.7,163.8,45z"/>
</g>
<g>
	<path d="M310.5,41.3c0.2-1.4,0.1-2.8-0.3-4.2c-0.1-0.7-0.5-1.3-0.8-2c-0.2-0.3-0.4-0.6-0.6-0.9c-0.2-0.3-0.4-0.6-0.6-0.8
		c-1.8-2.1-4.4-3.4-7.1-4.2c-0.7-0.2-1.4-0.3-2-0.5c-0.7-0.2-1.4-0.3-2.1-0.4c-1.4-0.1-2.8-0.4-4.2-0.4l-2.1-0.1l-1.1,0
		c-0.4,0-0.7,0-1.1,0l-4.2,0.2l4.2-0.3c0.4,0,0.7-0.1,1.1-0.1l1.1,0l2.1,0c1.4,0,2.8,0.2,4.2,0.3c0.7,0,1.4,0.2,2.1,0.4
		c0.7,0.2,1.4,0.3,2.1,0.5c2.7,0.8,5.3,2.2,7.2,4.4C310.3,35.5,311,38.5,310.5,41.3z"/>
</g>
<g>
	<path d="M135.4,84.9c-3.3,1.4-6.3,3.4-9.1,5.6c-2.8,2.3-5.3,4.8-7.4,7.7c-2.1,2.9-4,5.9-5.3,9.3c-0.8,1.6-1.2,3.4-1.8,5.1
		c-0.3,0.8-0.4,1.7-0.7,2.6l-0.6,2.6l0.5-2.6c0.2-0.9,0.3-1.8,0.6-2.6c0.6-1.7,1-3.5,1.8-5.1c1.3-3.4,3.2-6.5,5.3-9.4
		c2.1-2.9,4.7-5.5,7.5-7.7C128.9,88.2,132,86.3,135.4,84.9z"/>
</g>
<g>
	<path d="M113.6,216.3c-2.5-1.6-4.6-4-6-6.6c-0.7-1.3-1.2-2.8-1.5-4.3c-0.3-1.5-0.3-3-0.1-4.5c0,1.5,0,3,0.3,4.5
		c0.3,1.5,0.8,2.9,1.5,4.2c0.7,1.3,1.5,2.6,2.5,3.7C111.3,214.3,112.4,215.4,113.6,216.3z"/>
</g>
<g>
	<path d="M350.4,187.6c0.4-1.5,0.6-3,0.7-4.6c0.2-1.5,0.3-3.1,0.3-4.6c0.1-3.1,0-6.2-0.2-9.2c-0.2-3.1-0.5-6.1-0.9-9.2l-0.7-4.6
		l-0.8-4.6l0.9,4.5l0.7,4.6c0.4,3.1,0.8,6.1,1,9.2c0.2,3.1,0.2,6.2,0.1,9.2C351.5,181.6,351.2,184.7,350.4,187.6z"/>
</g>
<g>
	<path d="M338.5,102.7c0.8-2.7,1.4-5.5,1.8-8.4c0.4-2.8,0.6-5.7,0.5-8.5c-0.1-2.8-0.5-5.7-1.4-8.4c-0.9-2.7-2.3-5.3-4.2-7.4
		c1,1,1.9,2.2,2.6,3.4c0.7,1.2,1.3,2.6,1.8,3.9c0.9,2.7,1.3,5.6,1.4,8.5c0.1,2.9-0.2,5.7-0.6,8.6C340,97.2,339.4,100,338.5,102.7z"
		/>
</g>
<g>
	<path d="M323.3,68.2c1-2.1,1.6-4.3,1.9-6.6c0.2-2.3,0.1-4.6-0.5-6.8c-0.1-0.6-0.4-1.1-0.5-1.6l-0.3-0.8c-0.1-0.3-0.2-0.5-0.4-0.8
		c-0.3-0.5-0.5-1-0.8-1.6l-0.9-1.5c-0.2-0.2-0.3-0.5-0.5-0.7l-0.5-0.7l-1.1-1.3c-0.8-0.9-1.6-1.6-2.4-2.5c0.8,0.8,1.7,1.6,2.5,2.4
		l1.1,1.3l0.6,0.7c0.2,0.2,0.3,0.5,0.5,0.7l1,1.5c0.3,0.5,0.5,1,0.8,1.6c0.1,0.3,0.3,0.5,0.4,0.8l0.3,0.8c0.2,0.6,0.4,1.1,0.5,1.7
		c0.6,2.3,0.7,4.6,0.5,6.9C325.1,63.9,324.4,66.2,323.3,68.2z"/>
</g>
<g>
	<path d="M248.9,25.8c-1-1.8-2.3-3.4-3.7-4.8l-1.1-1.1l-1.2-1c-0.8-0.7-1.6-1.2-2.5-1.8c-3.4-2.2-7.3-3.7-11.2-4.7l-3-0.6l-3-0.3
		c-0.5-0.1-1-0.1-1.5-0.2l-1.5,0l-3.1-0.1c-2,0.1-4.1,0.2-6.1,0.4l-6.1,0.8l6.1-1.1c2-0.2,4.1-0.4,6.1-0.5l3.1,0l1.5,0
		c0.5,0,1,0.1,1.5,0.2l3.1,0.3c1,0.2,2,0.4,3,0.6c4,1,7.9,2.5,11.3,4.8C244,19.2,247,22.2,248.9,25.8z"/>
</g>
<g>
	<path d="M326.3,304.3c0.2,2.7-0.4,5.4-1.1,8c-0.4,1.3-0.8,2.6-1.4,3.8c-0.5,1.2-1.2,2.4-1.9,3.6c0.4-1.3,0.8-2.6,1.2-3.8
		c0.4-1.3,0.8-2.5,1.2-3.8c0.4-1.3,0.7-2.5,1.1-3.8C325.6,306.9,326,305.6,326.3,304.3z"/>
</g>
<g>
	<path d="M145.8,273.7c-1,0.5-2.1,0.8-3.2,0.9c-1.1,0.1-2.3,0-3.4-0.3c-1-0.4-2-0.6-3-0.7c-1-0.1-2.1-0.1-3.2,0.2
		c0.9-0.6,2.1-0.9,3.2-0.9c0.6,0,1.1,0,1.7,0.1c0.5,0.1,1.1,0.3,1.6,0.4C141.5,274,143.6,274,145.8,273.7z"/>
</g>
</svg>
